<svg width="161" height="92" viewBox="0 0 161 92" fill="none" xmlns="http://www.w3.org/2000/svg">
<g clip-path="url(#clip0)">
<path d="M92.0829 57.3917C81.7535 57.3917 71.4337 57.4013 61.1044 57.382C59.5769 57.382 58.059 57.1983 56.5888 56.7343C56.3788 56.6666 56.1688 56.5893 55.9683 56.4926C54.7464 55.9319 54.2499 55.0135 54.6127 53.718C54.9087 52.6256 55.3955 51.5815 55.7392 50.4988C56.1402 49.213 56.5984 47.9369 56.818 46.6124C57.1998 44.2439 56.3693 42.1847 54.9373 40.3382C54.3836 39.6228 53.7058 39.0911 52.9707 38.6078C52.6939 38.4241 52.417 38.2307 52.5888 37.8344C52.7416 37.4767 53.0566 37.5347 53.3717 37.554C54.5459 37.6217 55.7201 37.6893 56.8943 37.7377C57.5244 37.7667 57.8299 37.525 57.8872 37.0223C57.9445 36.5292 57.6294 36.1909 57.028 36.0652C55.0137 35.6495 53.028 35.1468 51.1855 34.2091C50.1258 33.6677 49.133 32.991 48.1115 32.3722C47.8442 32.2079 47.6533 32.0049 47.7774 31.6568C47.9015 31.3088 48.1974 31.3378 48.4934 31.3475C50.5459 31.4152 52.5888 31.4732 54.6413 31.5215C55.0996 31.5312 55.4719 31.3475 55.5865 30.8738C55.701 30.3904 55.4623 29.9844 55.0518 29.791C54.6795 29.617 54.2404 29.5203 53.8203 29.501C50.0495 29.3366 46.6223 28.1669 43.5387 25.9627C43.4433 25.895 43.3192 25.8467 43.281 25.7597C43.176 25.547 43.0137 25.2956 43.0614 25.1023C43.0996 24.9669 43.4242 24.8123 43.6246 24.8219C45.0566 24.8703 46.4791 24.9959 47.911 25.0056C49.4003 25.0153 50.8991 24.9476 52.3884 24.8606C53.2857 24.8026 53.8013 24.2902 53.744 23.6232C53.6962 22.9658 53.0375 22.4727 52.1974 22.5017C50.9755 22.5501 49.7535 22.7048 48.5316 22.6757C44.6079 22.5791 41.0471 21.3513 37.8776 19.0021C37.6485 18.8281 37.4576 18.6444 37.5721 18.3157C37.7058 17.9387 38.0208 17.987 38.3263 17.987C40.7416 18.045 43.1569 18.161 45.5721 18.1224C47.0423 18.103 48.5125 17.8613 49.9826 17.6777C50.7845 17.581 51.1569 17.146 51.0709 16.5079C50.9755 15.8408 50.3549 15.4541 49.5912 15.5702C48.8657 15.6765 48.1497 15.8215 47.4242 15.8795C41.0853 16.4499 35.4814 14.8838 30.8991 10.2627C30.8418 10.2047 30.7559 10.1564 30.7368 10.0887C30.6795 9.86634 30.5363 9.55698 30.6223 9.42164C30.7177 9.26696 31.0614 9.17995 31.2619 9.21862C32.4934 9.46997 33.7058 9.77933 34.9373 10.0307C40.7511 11.2295 46.565 11.1908 52.3597 9.92435C53.4958 9.67299 54.3645 10.1564 55.0041 10.9684C57.4862 14.1297 59.9301 17.3296 62.3454 20.5489C63.281 21.8057 63.3955 23.2558 62.8896 24.7349C62.5172 25.837 62.1831 26.9391 62.1354 28.1089C62.0304 30.9414 63.6342 33.02 66.4695 33.6967C69.0757 34.3154 71.5865 33.8707 74.0495 32.9909C76.4266 32.1402 78.5841 30.8738 80.4934 29.2206C82.4218 27.5578 84.5793 27.0841 86.9277 27.9929C91.0232 29.5783 95.0996 31.2025 99.1473 32.8846C105.543 35.5528 111.901 38.3467 118.431 40.6863C121.754 41.8754 125.114 42.9775 128.589 43.6058C130.25 43.9055 131.921 44.1376 133.61 43.7605C134.412 43.5865 135.109 43.2578 135.606 42.5521C135.691 42.4361 135.901 42.3394 136.045 42.3491C140.045 42.5714 144.045 42.8324 147.94 43.8765C149.19 44.2149 150.403 44.6499 151.453 45.433C151.863 45.7424 152.369 46.042 152.255 46.6898C152.14 47.3472 151.558 47.3665 151.071 47.4728C146.288 48.6136 141.515 49.764 136.837 51.2915C132.637 52.6546 128.532 54.2594 124.808 56.6956C124.073 57.179 123.367 57.3723 122.508 57.3723C112.388 57.382 102.231 57.3917 92.0829 57.3917Z" fill="white"/>
<path d="M90.68 61.6066C77.4962 61.6066 64.3029 61.6066 51.1192 61.6066C49.9927 61.6066 49.7635 61.3939 49.7254 60.2822C49.6299 57.6526 48.9235 55.2164 47.6347 52.9349C47.5678 52.8092 47.4819 52.6835 47.4342 52.5482C47.2528 52.0648 47.4437 51.5234 47.8733 51.3011C48.3316 51.0594 48.8184 51.1947 49.1239 51.6394C49.9163 52.7995 50.7182 53.9693 51.5106 55.1391C53.4676 58.02 56.1215 59.5281 59.606 59.4798C60.4366 59.4701 61.2576 59.5184 62.0881 59.5184C82.7659 59.5184 103.453 59.5184 124.131 59.5281C124.713 59.5281 125.2 59.3928 125.687 59.0544C130.594 55.6611 136.007 53.3989 141.668 51.6974C145.162 50.6534 148.713 49.8606 152.293 49.1936C153.286 49.0099 153.62 49.2129 153.916 50.1893C154.48 52.1035 154.031 53.7566 152.589 55.1101C151.196 56.4152 149.477 57.1402 147.711 57.759C143.358 59.2768 138.938 60.4659 134.375 61.1232C131.253 61.5776 128.112 61.7516 124.962 61.6066C124.771 61.5969 124.58 61.6066 124.389 61.6066C113.143 61.6066 101.907 61.6066 90.68 61.6066Z" fill="white"/>
<path d="M23.9307 22.6178C19.673 22.6855 15.4534 22.3278 11.358 21.0517C8.67537 20.2106 6.17418 19.0119 4.07394 17.0784C2.13599 15.2802 0.866304 13.076 0.283965 10.4658C0.217139 10.1564 0.140766 9.78908 0.474895 9.6634C0.704012 9.57639 1.07633 9.61506 1.2959 9.75041C5.05723 12.0416 8.99996 13.9074 13.2195 15.1545C18.6038 16.7497 24.093 17.2427 29.6778 16.7303C30.4701 16.653 31.2625 16.5757 32.0453 16.479C32.4844 16.4306 32.8186 16.5756 33.0763 16.9333C33.9642 18.1514 34.8615 19.3599 35.7494 20.578C36.1408 21.1194 35.9403 21.6414 35.2625 21.7188C32.4367 22.0281 29.6109 22.3471 26.7852 22.6082C25.8401 22.6855 24.8854 22.6178 23.9307 22.6178Z" fill="white"/>
<path d="M25.2681 30.7383C20.2562 30.6997 16.4948 30.2936 12.8958 28.8822C10.1368 27.7994 7.75975 26.1946 6.09865 23.6521C5.87908 23.3137 5.51631 22.9657 5.85044 22.5306C6.18457 22.0859 6.58553 22.405 6.93875 22.5306C11.6261 24.2708 16.4567 25.3052 21.459 25.4792C26.3755 25.6436 31.187 24.9185 35.9221 23.6231C36.323 23.5167 36.7144 23.4007 37.1154 23.2847C37.5832 23.1397 37.9555 23.275 38.2514 23.6617C39.0533 24.7155 39.8743 25.7693 40.6762 26.8327C41.0676 27.3547 40.9244 27.7994 40.2848 28.0024C37.3827 28.9692 34.4232 29.7233 31.397 30.1293C28.9626 30.4387 26.5187 30.6127 25.2681 30.7383Z" fill="white"/>
<path d="M112.637 32.3721C112.465 32.6138 112.331 32.8071 112.197 33.0005C111.825 33.5612 111.93 34.2573 112.436 34.6343C112.952 35.0307 113.62 34.9533 114.059 34.4313C114.336 34.1026 114.575 33.7449 114.842 33.3775C115.854 33.8416 116.828 34.2959 117.849 34.76C117.696 34.992 117.553 35.1757 117.429 35.3787C117.085 35.9394 117.209 36.6451 117.734 37.0028C118.24 37.3605 118.909 37.2542 119.319 36.7708C119.338 36.7418 119.357 36.7225 119.376 36.6935C120.083 35.7847 120.083 35.7847 121.104 36.2584C121.878 36.6161 122.66 36.9738 123.472 37.3508C123.348 37.5345 123.243 37.6892 123.147 37.8439C122.785 38.4143 122.899 39.0813 123.415 39.4777C123.921 39.8644 124.598 39.7677 125.038 39.2457C125.066 39.207 125.095 39.1683 125.124 39.1297C125.706 38.3659 125.706 38.3659 126.594 38.7816C128.598 39.7097 130.613 40.6281 132.694 41.5852C132.092 42.1943 131.386 42.4166 130.632 42.5133C128.77 42.7356 126.966 42.3683 125.248 41.7399C122.489 40.7345 119.758 39.6324 117.047 38.4916C107.033 34.2669 97.0376 30.0036 87.0423 25.7692C86.5936 25.5759 86.2213 25.3342 86.1927 24.7831C86.164 24.2031 86.5459 23.9324 87.0041 23.7197C88.7416 22.898 90.565 22.8883 92.3693 23.3427C93.5722 23.652 94.7368 24.1547 96.0065 24.6091C95.7106 25.0248 95.5006 25.3148 95.3001 25.6145C94.8514 26.2526 94.9278 26.9486 95.4719 27.374C96.0161 27.7994 96.7034 27.664 97.1808 27.0453C97.343 26.8326 97.5053 26.6006 97.6581 26.3879C97.8108 26.1849 97.9636 25.9722 98.145 25.7209C99.3192 26.2622 100.503 26.8036 101.734 27.3643C101.534 27.635 101.362 27.8767 101.19 28.1184C100.751 28.7371 100.837 29.4719 101.4 29.8682C101.944 30.2646 102.632 30.1292 103.071 29.5395C103.09 29.5105 103.109 29.4912 103.128 29.4622C103.405 29.1142 103.625 28.5631 103.968 28.4761C104.312 28.3891 104.77 28.7661 105.171 28.9498C105.792 29.2302 106.403 29.5202 107.052 29.8199C106.861 30.1002 106.67 30.3419 106.508 30.5933C106.126 31.1733 106.24 31.8694 106.775 32.2561C107.291 32.6331 107.968 32.5268 108.388 31.9951C108.675 31.6277 108.933 31.241 109.248 30.8253C110.365 31.328 111.481 31.8404 112.637 32.3721Z" fill="white"/>
<path d="M26.9277 14.4003C21.2284 14.12 15.6342 13.3176 10.3263 11.094C7.84418 10.0499 5.53392 8.71583 3.56733 6.821C2.13535 5.43855 0.989768 3.85309 0.474255 1.87125C0.445615 1.77458 0.426522 1.68757 0.407429 1.5909C0.340603 1.2332 0.32151 0.885171 0.674732 0.633817C1.0375 0.382462 1.35254 0.517807 1.68667 0.730491C2.9659 1.53289 4.23559 2.37396 5.55301 3.10869C10.4122 5.85426 15.596 7.68141 21.133 8.35813C22.6795 8.54182 24.2356 8.59015 25.7917 8.67716C26.5554 8.71583 27.1759 9.01552 27.6437 9.62457C28.3502 10.5333 29.047 11.4517 29.7535 12.3701C30.0876 12.8052 30.1735 13.2692 29.9253 13.7719C29.6867 14.2553 29.2666 14.4293 28.7416 14.4196C28.1401 14.3906 27.5387 14.4003 26.9277 14.4003Z" fill="white"/>
<path d="M27.2057 37.6506C24.3036 37.612 21.0387 37.2543 17.9551 35.8428C16.7045 35.2628 15.559 34.5087 14.5566 33.5516C14.4802 33.4743 14.3656 33.4066 14.3275 33.3099C14.232 33.0779 14.0602 32.7976 14.127 32.5945C14.232 32.2368 14.5852 32.3335 14.8621 32.3915C15.5017 32.5172 16.1413 32.6525 16.7809 32.7685C25.4301 34.3927 33.831 33.5226 41.9838 30.168C42.7571 29.849 42.9862 29.9166 43.5017 30.5644C43.979 31.1831 44.4659 31.8018 44.9432 32.4302C45.411 33.0392 45.2869 33.5613 44.5995 33.9093C41.9456 35.2434 39.1294 36.0652 36.2463 36.6839C33.4014 37.3026 30.5279 37.6313 27.2057 37.6506Z" fill="white"/>
<path d="M27.4541 39.7968C30.4517 39.7195 33.4207 39.4295 36.3514 38.8107C39.7309 38.105 42.9386 36.8966 46.0603 35.4271C46.7476 35.1081 47.0913 35.1951 47.54 35.7945C47.9696 36.3745 48.3896 36.9546 48.8192 37.5346C49.3252 38.221 49.2775 38.6561 48.6092 39.1684C46.2894 40.9569 43.6832 42.1653 40.8861 42.9387C36.2751 44.2149 31.7405 44.0988 27.33 42.1073C26.4899 41.7303 25.707 41.2276 24.8956 40.7926C24.6283 40.6476 24.4183 40.4252 24.5806 40.1448C24.676 39.9708 24.9624 39.8258 25.1724 39.8162C25.9266 39.7678 26.6903 39.7968 27.4541 39.7968Z" fill="white"/>
<path d="M42.7179 49.3676C41.5151 49.4256 40.465 49.0292 39.558 48.2365C39.0521 47.7918 38.5747 47.3181 38.1165 46.8347C37.7442 46.448 37.811 46.332 38.317 46.1677C39.854 45.6746 41.4005 45.1913 42.928 44.6499C43.4817 44.4565 43.9781 44.1278 44.5031 43.8571C44.8373 43.6831 45.095 43.7411 45.3241 44.0505C45.7537 44.6305 46.2215 45.1816 46.6702 45.7423C47.1284 46.3127 47.1666 46.7671 46.7084 47.3471C45.8969 48.3719 44.8659 49.0582 43.5676 49.2709C43.2907 49.3289 43.0043 49.3386 42.7179 49.3676Z" fill="white"/>
<path d="M51.244 41.1599C53.6211 43.6541 53.8311 47.2214 51.7977 50.5374C51.7022 50.4214 51.5972 50.3247 51.5113 50.2184C50.5376 48.9519 49.5543 47.6855 48.5805 46.4094C47.6259 45.1623 47.8455 43.6735 49.1056 42.7357C49.8216 42.204 50.528 41.6916 51.244 41.1599Z" fill="white"/>
<path d="M119.997 85.3015C120.885 84.8665 121.582 84.2188 122.012 83.3294C123.32 80.6225 122.355 76.0981 117.592 75.9724C115.32 75.9144 113.048 75.9627 110.775 75.9627C110.642 75.9627 110.499 75.9821 110.365 75.9917C110.365 81.0865 110.365 86.1426 110.365 91.1987C111.577 91.1987 112.752 91.1987 113.993 91.1987C113.993 89.4682 113.993 87.7571 113.993 86.0072C114.518 86.0072 114.976 86.0266 115.434 85.9976C115.711 85.9879 115.854 86.0846 115.988 86.3359C116.694 87.6507 117.468 88.9268 118.107 90.2706C118.47 91.0343 118.909 91.3147 119.74 91.247C120.742 91.16 121.754 91.2277 122.852 91.2277C121.716 89.2845 120.637 87.4187 119.539 85.5335C119.711 85.4369 119.854 85.3789 119.997 85.3015ZM117.458 82.5946C116.322 82.6816 115.176 82.614 114.002 82.614C114.002 81.4925 114.002 80.4098 114.002 79.3367C115.186 79.3367 116.351 79.2593 117.496 79.3657C118.346 79.443 118.814 80.1391 118.814 80.9898C118.804 81.8309 118.298 82.5366 117.458 82.5946Z" fill="white"/>
<path d="M71.9973 85.4658C74.3553 84.5571 75.2814 82.1692 74.7563 79.6653C74.2885 77.4612 72.3983 75.9917 70.0594 75.9627C67.7205 75.9434 65.3816 75.9627 63.0522 75.9627C62.9472 75.9627 62.8422 75.982 62.7277 75.982C62.7277 81.0671 62.7277 86.1232 62.7277 91.189C63.9401 91.189 65.1143 91.189 66.3458 91.189C66.3458 89.4585 66.3458 87.7474 66.3458 85.9879C66.8518 85.9879 67.3005 86.0072 67.7396 85.9782C68.0546 85.9589 68.2169 86.0749 68.3697 86.3552C69.1716 87.873 70.0021 89.3715 70.8327 90.87C70.909 91.0053 71.0618 91.189 71.1859 91.189C72.4938 91.2083 73.8112 91.1986 75.2145 91.1986C74.088 89.2555 72.9997 87.3993 71.921 85.5432C71.9592 85.5142 71.9687 85.4755 71.9973 85.4658ZM71.1668 81.0961C71.1286 81.9275 70.5272 82.5849 69.6203 82.6333C68.5511 82.6913 67.4723 82.6429 66.3649 82.6429C66.3649 81.5022 66.3649 80.4097 66.3649 79.327C67.52 79.327 68.6465 79.2496 69.7635 79.3463C70.7181 79.4333 71.2145 80.1681 71.1668 81.0961Z" fill="white"/>
<path d="M86.0213 75.7404C80.5893 75.3827 76.8853 79.6654 77.7158 84.9438C78.3459 88.9461 81.3817 91.45 85.4294 91.4694C85.5726 91.4597 85.7158 91.45 85.859 91.4404C92.408 91.1407 94.8423 84.4894 92.3984 79.7427C91.0715 77.1808 88.8376 75.9241 86.0213 75.7404ZM86.7182 87.9504C84.1311 88.7335 81.6681 87.0707 81.3722 84.3444C81.2481 83.1457 81.3913 82.0049 82.0118 80.9511C82.8901 79.4817 84.5225 78.805 86.2982 79.1433C87.9306 79.4527 89.1621 80.7578 89.4772 82.5173C89.544 82.8846 89.5631 83.252 89.6108 83.6194C89.5822 85.7269 88.4557 87.4187 86.7182 87.9504Z" fill="white"/>
<path d="M34.4796 85.1179C36.8185 85.1179 39.1288 85.1179 41.4486 85.1179C41.4486 83.9965 41.4486 82.9331 41.4486 81.802C39.1192 81.802 36.809 81.802 34.4891 81.802C34.4891 80.9223 34.4891 80.1199 34.4891 79.2401C36.8949 79.2401 39.2529 79.2401 41.6109 79.2401C41.6109 78.1187 41.6109 77.0649 41.6109 75.9822C38.0118 75.9822 34.4319 75.9822 30.8137 75.9822C30.8137 81.0673 30.8137 86.1137 30.8137 91.1795C34.4319 91.1795 38.0118 91.1795 41.6109 91.1795C41.6109 90.087 41.6109 89.0236 41.6109 87.8925C39.2242 87.8925 36.8471 87.8925 34.4701 87.8925C34.4796 86.9354 34.4796 86.0557 34.4796 85.1179Z" fill="white"/>
<path d="M58.7566 76.3494C58.7566 76.2238 58.7279 76.1078 58.7184 75.9724C57.4964 75.9724 56.3031 75.9724 55.0334 75.9724C55.0334 76.2044 55.0334 76.3978 55.0334 76.5911C55.0334 79.4237 55.0429 82.2659 55.0334 85.0985C55.0238 86.8193 54.0883 87.8924 52.4272 88.1148C50.7661 88.3371 49.3914 87.5734 48.9713 86.1426C48.8472 85.7076 48.809 85.2242 48.7995 84.7601C48.7804 82.0242 48.7899 79.2787 48.7899 76.5428C48.7899 76.3688 48.7899 76.1948 48.7899 75.9917C47.5393 75.9917 46.346 75.9917 45.1336 75.9917C45.1241 76.0788 45.105 76.1368 45.105 76.1948C45.105 79.269 45.0477 82.3529 45.1241 85.4272C45.1813 87.9697 46.2983 89.9032 48.7231 90.9087C50.0978 91.479 51.5394 91.537 52.9904 91.421C56.5227 91.1503 58.6897 88.8785 58.7375 85.3402C58.7852 82.3433 58.7566 79.3464 58.7566 76.3494Z" fill="white"/>
<path d="M157.602 82.556C156.504 82.1016 155.339 81.8406 154.203 81.4829C153.583 81.2896 152.953 81.1155 152.37 80.8448C151.817 80.5838 151.74 79.9264 152.227 79.5397C152.533 79.298 152.953 79.1144 153.344 79.0854C154.929 78.95 156.361 79.4141 157.592 80.4485C157.717 80.5452 157.831 80.6515 157.984 80.7772C158.671 79.8588 159.349 78.9597 160.027 78.0509C158.461 76.5235 156.59 75.8564 154.49 75.7694C152.896 75.7114 151.397 75.9821 150.051 76.9295C147.559 78.6987 147.435 82.8363 150.623 84.2961C151.301 84.6055 152.017 84.8375 152.724 85.0599C153.707 85.3692 154.719 85.6012 155.702 85.9106C156.132 86.046 156.542 86.2973 156.552 86.829C156.561 87.4091 156.17 87.7184 155.693 87.9311C155.559 87.9891 155.425 88.0375 155.282 88.0665C153.917 88.3275 152.609 88.1245 151.416 87.4284C150.786 87.061 150.232 86.5777 149.621 86.1233C149.001 87.003 148.342 87.9311 147.683 88.8785C147.779 88.9945 147.855 89.0912 147.95 89.1782C150.213 91.4501 154.748 92.2041 157.621 90.7734C159.416 89.8743 160.265 88.4048 160.246 86.3843C160.208 84.4895 159.244 83.2424 157.602 82.556Z" fill="white"/>
<path d="M140.905 75.9723C138.566 75.953 136.227 75.9627 133.898 75.9723C133.774 75.9723 133.659 76.0013 133.554 76.011C133.554 81.0961 133.554 86.1425 133.554 91.1889C134.776 91.1889 135.951 91.1889 137.172 91.1889C137.172 89.4681 137.172 87.7763 137.172 86.0072C138.337 86.0072 139.425 86.0169 140.523 86.0072C141.936 85.9879 143.225 85.6302 144.285 84.6247C145.688 83.281 146.146 80.9801 145.411 79.0369C144.676 77.1518 142.996 75.9917 140.905 75.9723ZM140.657 82.6042C139.521 82.6816 138.385 82.6236 137.192 82.6236C137.192 81.5118 137.192 80.4194 137.192 79.3366C138.385 79.3366 139.559 79.2593 140.714 79.3656C141.583 79.443 142.022 80.139 142.003 81.0574C141.993 81.8598 141.468 82.5462 140.657 82.6042Z" fill="white"/>
<path d="M95.167 79.2884C96.5894 79.2884 97.9737 79.2884 99.4057 79.2884C99.4057 83.2907 99.4057 87.2254 99.4057 91.1987C100.628 91.1987 101.811 91.1987 103.052 91.1987C103.052 87.2157 103.052 83.2617 103.052 79.2594C104.475 79.2594 105.85 79.2594 107.243 79.2594C107.243 78.1476 107.243 77.0842 107.243 76.0015C103.186 76.0015 99.1861 76.0015 95.167 76.0015C95.167 77.0842 95.167 78.1573 95.167 79.2884Z" fill="white"/>
<path d="M125.972 91.1987C127.185 91.1987 128.35 91.1987 129.543 91.1987C129.543 86.1137 129.543 81.0479 129.543 76.0015C128.321 76.0015 127.137 76.0015 125.972 76.0015C125.972 81.0866 125.972 86.1427 125.972 91.1987Z" fill="white"/>
</g>
<defs>
<clipPath id="clip0">
<rect width="160" height="91" fill="white" transform="translate(0.226562 0.498535)"/>
</clipPath>
</defs>
</svg>
