<svg width="118" height="67" viewBox="0 0 118 67" fill="none" xmlns="http://www.w3.org/2000/svg">
<g clip-path="url(#clip0)">
<path d="M67.6345 41.9556C60.0812 41.9556 52.5348 41.9626 44.9815 41.9486C43.8646 41.9486 42.7546 41.8154 41.6795 41.4788C41.526 41.4297 41.3724 41.3736 41.2258 41.3035C40.3322 40.8968 39.9692 40.2307 40.2345 39.2912C40.4509 38.4989 40.8069 37.7416 41.0582 36.9563C41.3514 36.0238 41.6865 35.0983 41.8471 34.1377C42.1263 32.4198 41.519 30.9264 40.4718 29.5872C40.0669 29.0683 39.5713 28.6827 39.0338 28.3321C38.8313 28.1989 38.6289 28.0586 38.7545 27.7712C38.8662 27.5117 39.0966 27.5538 39.327 27.5678C40.1856 27.6169 41.0443 27.666 41.9029 27.701C42.3637 27.7221 42.5871 27.5468 42.6289 27.1822C42.6708 26.8246 42.4405 26.5792 42.0007 26.488C40.5277 26.1865 39.0757 25.8219 37.7283 25.1418C36.9535 24.7492 36.2274 24.2584 35.4805 23.8096C35.285 23.6904 35.1454 23.5432 35.2362 23.2908C35.3269 23.0383 35.5433 23.0594 35.7597 23.0664C37.2606 23.1155 38.7545 23.1575 40.2554 23.1926C40.5905 23.1996 40.8628 23.0664 40.9465 22.7228C41.0303 22.3722 40.8558 22.0778 40.5556 21.9375C40.2834 21.8113 39.9622 21.7412 39.6551 21.7272C36.8976 21.608 34.3915 20.7596 32.1366 19.1609C32.0668 19.1119 31.9761 19.0768 31.9482 19.0137C31.8714 18.8594 31.7527 18.6771 31.7876 18.5369C31.8155 18.4387 32.0529 18.3266 32.1995 18.3336C33.2466 18.3686 34.2868 18.4598 35.3339 18.4668C36.4229 18.4738 37.5189 18.4247 38.6079 18.3616C39.2641 18.3196 39.6411 17.9479 39.5992 17.4641C39.5643 16.9874 39.0826 16.6298 38.4683 16.6508C37.5748 16.6859 36.6812 16.798 35.7877 16.777C32.9185 16.7069 30.3146 15.8164 27.997 14.1126C27.8294 13.9864 27.6898 13.8532 27.7736 13.6148C27.8713 13.3413 28.1017 13.3764 28.3251 13.3764C30.0912 13.4185 31.8574 13.5026 33.6236 13.4746C34.6986 13.4605 35.7737 13.2852 36.8487 13.152C37.4351 13.0819 37.7074 12.7664 37.6446 12.3036C37.5748 11.8198 37.121 11.5394 36.5625 11.6235C36.032 11.7006 35.5084 11.8058 34.9779 11.8479C30.3425 12.2615 26.2447 11.1257 22.8939 7.77414C22.852 7.73207 22.7892 7.69701 22.7752 7.64793C22.7334 7.48666 22.6286 7.26229 22.6915 7.16413C22.7613 7.05195 23.0126 6.98884 23.1592 7.01689C24.0597 7.19919 24.9463 7.42356 25.8468 7.60586C30.0982 8.4753 34.3496 8.44725 38.587 7.52873C39.4177 7.34643 40.053 7.69701 40.5207 8.28598C42.3357 10.5788 44.1229 12.8996 45.889 15.2345C46.5732 16.146 46.6569 17.1977 46.2869 18.2705C46.0147 19.0698 45.7703 19.8691 45.7354 20.7175C45.6587 22.7719 46.8314 24.2794 48.9048 24.7702C50.8106 25.2189 52.6465 24.8964 54.4476 24.2584C56.1859 23.6413 57.7635 22.7228 59.1597 21.5238C60.5699 20.3179 62.1476 19.9743 63.8649 20.6334C66.8597 21.7833 69.8405 22.9612 72.8004 24.1812C77.4776 26.1164 82.1269 28.1428 86.9018 29.8396C89.3312 30.702 91.7885 31.5013 94.3295 31.9571C95.5442 32.1744 96.7659 32.3427 98.0015 32.0693C98.5879 31.943 99.0975 31.7047 99.4605 31.1928C99.5233 31.1087 99.6769 31.0386 99.7816 31.0456C102.707 31.2068 105.632 31.3961 108.48 32.1534C109.394 32.3988 110.281 32.7143 111.049 33.2823C111.349 33.5066 111.719 33.724 111.635 34.1938C111.551 34.6706 111.126 34.6846 110.77 34.7617C107.272 35.5891 103.782 36.4234 100.361 37.5313C97.2894 38.5199 94.2877 39.6838 91.5651 41.4507C91.0276 41.8013 90.511 41.9416 89.8827 41.9416C82.4829 41.9486 75.0553 41.9556 67.6345 41.9556Z" fill="white"/>
<path d="M66.611 45.0134C56.9704 45.0134 47.3227 45.0134 37.6821 45.0134C36.8584 45.0134 36.6908 44.8592 36.6629 44.0528C36.5931 42.1457 36.0765 40.3788 35.1341 38.724C35.0852 38.6329 35.0224 38.5417 34.9875 38.4436C34.8548 38.093 34.9945 37.7003 35.3086 37.5391C35.6437 37.3638 35.9997 37.462 36.2231 37.7845C36.8025 38.6259 37.3889 39.4743 37.9683 40.3227C39.3994 42.4121 41.3401 43.5059 43.8881 43.4709C44.4955 43.4639 45.0958 43.4989 45.7032 43.4989C60.8238 43.4989 75.9514 43.4989 91.0721 43.5059C91.4979 43.5059 91.854 43.4078 92.21 43.1624C95.7982 40.7013 99.7563 39.0606 103.896 37.8266C106.451 37.0693 109.048 36.4944 111.666 36.0106C112.392 35.8773 112.636 36.0246 112.853 36.7327C113.264 38.121 112.936 39.32 111.882 40.3016C110.863 41.2482 109.606 41.7741 108.315 42.2228C105.132 43.3236 101.899 44.1861 98.5626 44.6628C96.2798 44.9924 93.9831 45.1186 91.6794 45.0134C91.5398 45.0064 91.4002 45.0134 91.2606 45.0134C83.0371 45.0134 74.8205 45.0134 66.611 45.0134Z" fill="white"/>
<path d="M17.7983 16.7354C14.6848 16.7844 11.5993 16.525 8.60447 15.5995C6.64284 14.9895 4.81384 14.12 3.27804 12.7177C1.86092 11.4136 0.932458 9.81493 0.506622 7.92181C0.457756 7.69744 0.401909 7.431 0.64624 7.33985C0.813782 7.27674 1.08604 7.30479 1.2466 7.40295C3.99708 9.0647 6.88019 10.4179 9.96575 11.3224C13.903 12.4793 17.917 12.8369 22.0008 12.4653C22.5803 12.4092 23.1597 12.3531 23.7321 12.283C24.0532 12.248 24.2976 12.3531 24.486 12.6126C25.1353 13.496 25.7915 14.3725 26.4407 15.2559C26.7269 15.6486 26.5803 16.0272 26.0847 16.0833C24.0183 16.3077 21.952 16.539 19.8856 16.7284C19.1945 16.7844 18.4964 16.7354 17.7983 16.7354Z" fill="white"/>
<path d="M18.7747 22.625C15.1097 22.597 12.3593 22.3025 9.72745 21.2788C7.70997 20.4935 5.97172 19.3296 4.75704 17.4855C4.59648 17.2401 4.33121 16.9877 4.57554 16.6722C4.81987 16.3496 5.11307 16.581 5.37136 16.6722C8.79899 17.9343 12.3313 18.6845 15.9893 18.8107C19.5845 18.9299 23.1029 18.404 26.5654 17.4645C26.8586 17.3874 27.1448 17.3032 27.438 17.2191C27.7801 17.1139 28.0523 17.2121 28.2687 17.4925C28.8551 18.2568 29.4555 19.0211 30.0419 19.7923C30.3281 20.171 30.2234 20.4935 29.7557 20.6407C27.6335 21.3419 25.4694 21.8888 23.2565 22.1833C21.4763 22.4077 19.6892 22.5339 18.7747 22.625Z" fill="white"/>
<path d="M82.6664 23.8097C82.5407 23.985 82.443 24.1252 82.3452 24.2655C82.073 24.6721 82.1498 25.177 82.5198 25.4504C82.8967 25.7379 83.3854 25.6818 83.7065 25.3032C83.909 25.0648 84.0835 24.8054 84.279 24.5389C85.0189 24.8755 85.731 25.205 86.4779 25.5416C86.3663 25.7099 86.2615 25.8431 86.1708 25.9903C85.9195 26.397 86.0102 26.9088 86.3942 27.1683C86.7642 27.4277 87.2528 27.3506 87.553 27C87.567 26.979 87.5809 26.9649 87.5949 26.9439C88.1115 26.2848 88.1115 26.2848 88.8584 26.6284C89.4239 26.8878 89.9963 27.1472 90.5897 27.4207C90.499 27.5539 90.4222 27.6661 90.3524 27.7783C90.0871 28.192 90.1709 28.6758 90.5478 28.9632C90.9178 29.2437 91.4135 29.1736 91.7346 28.795C91.7555 28.7669 91.7765 28.7389 91.7974 28.7108C92.2232 28.1569 92.2232 28.1569 92.8725 28.4584C94.3385 29.1315 95.8114 29.7976 97.3333 30.4918C96.8935 30.9335 96.3769 31.0948 95.8254 31.1649C94.4641 31.3261 93.1447 31.0597 91.8882 30.6039C89.8707 29.8747 87.8741 29.0754 85.8915 28.2481C78.5686 25.184 71.2596 22.0919 63.9505 19.0208C63.6224 18.8806 63.3502 18.7053 63.3292 18.3056C63.3083 17.8849 63.5875 17.6886 63.9226 17.5344C65.1931 16.9384 66.5265 16.9314 67.8459 17.2609C68.7255 17.4853 69.5772 17.8499 70.5056 18.1794C70.2892 18.4809 70.1356 18.6913 69.989 18.9086C69.6609 19.3714 69.7168 19.8762 70.1147 20.1847C70.5126 20.4932 71.0152 20.3951 71.3643 19.9463C71.4829 19.7921 71.6016 19.6238 71.7133 19.4696C71.825 19.3223 71.9367 19.1681 72.0693 18.9858C72.928 19.3784 73.7936 19.7711 74.6942 20.1777C74.5476 20.374 74.4219 20.5493 74.2962 20.7246C73.9751 21.1734 74.038 21.7062 74.4498 21.9937C74.8477 22.2812 75.3504 22.183 75.6715 21.7553C75.6855 21.7343 75.6994 21.7203 75.7134 21.6992C75.9158 21.4468 76.0764 21.0472 76.3277 20.9841C76.579 20.921 76.9141 21.1944 77.2073 21.3276C77.6611 21.531 78.1078 21.7413 78.5825 21.9587C78.4429 22.162 78.3033 22.3373 78.1846 22.5196C77.9054 22.9403 77.9892 23.4451 78.3801 23.7256C78.7571 23.999 79.2527 23.9219 79.5599 23.5363C79.7693 23.2698 79.9578 22.9894 80.1881 22.6879C81.0049 23.0525 81.8217 23.4241 82.6664 23.8097Z" fill="white"/>
<path d="M19.9878 10.776C15.8202 10.5727 11.7294 9.99071 7.84801 8.37805C6.03298 7.6208 4.3436 6.6532 2.90553 5.27893C1.8584 4.27627 1.02069 3.12637 0.643717 1.689C0.622775 1.61889 0.608813 1.55578 0.594851 1.48567C0.545985 1.22624 0.532023 0.97382 0.790316 0.791519C1.05559 0.609217 1.28596 0.70738 1.53029 0.861634C2.46573 1.4436 3.39419 2.0536 4.35756 2.58648C7.91084 4.57777 11.7015 5.90296 15.7504 6.39377C16.8813 6.52699 18.0192 6.56205 19.1571 6.62515C19.7156 6.6532 20.1693 6.87056 20.5114 7.31229C21.028 7.97138 21.5376 8.63748 22.0542 9.30358C22.2985 9.6191 22.3613 9.95566 22.1798 10.3203C22.0053 10.6708 21.6981 10.797 21.3142 10.79C20.8744 10.769 20.4346 10.776 19.9878 10.776Z" fill="white"/>
<path d="M20.1959 27.6382C18.0737 27.6102 15.6863 27.3507 13.4314 26.327C12.5169 25.9064 11.6792 25.3595 10.9462 24.6653C10.8904 24.6092 10.8066 24.5601 10.7787 24.49C10.7089 24.3217 10.5832 24.1184 10.6321 23.9712C10.7089 23.7117 10.9672 23.7818 11.1696 23.8239C11.6373 23.9151 12.1051 24.0132 12.5728 24.0974C18.8975 25.2753 25.0407 24.6443 31.0024 22.2113C31.5678 21.9799 31.7354 22.029 32.1123 22.4987C32.4614 22.9475 32.8174 23.3962 33.1665 23.852C33.5085 24.2937 33.4178 24.6723 32.9152 24.9247C30.9745 25.8923 28.9151 26.4883 26.8069 26.9371C24.7265 27.3858 22.6253 27.6242 20.1959 27.6382Z" fill="white"/>
<path d="M20.3733 29.1953C22.5653 29.1392 24.7364 28.9288 26.8795 28.4801C29.3508 27.9683 31.6964 27.0918 33.9791 26.026C34.4817 25.7947 34.733 25.8578 35.0611 26.2925C35.3753 26.7132 35.6824 27.1339 35.9966 27.5546C36.3666 28.0524 36.3317 28.3679 35.843 28.7395C34.1466 30.0367 32.2409 30.9131 30.1955 31.474C26.8237 32.3996 23.5077 32.3154 20.2826 30.871C19.6682 30.5976 19.0958 30.233 18.5024 29.9175C18.307 29.8123 18.1534 29.651 18.2721 29.4477C18.3419 29.3215 18.5513 29.2163 18.7049 29.2093C19.2564 29.1742 19.8148 29.1953 20.3733 29.1953Z" fill="white"/>
<path d="M31.5369 36.1362C30.6573 36.1783 29.8894 35.8908 29.2263 35.3159C28.8563 34.9933 28.5072 34.6498 28.1721 34.2992C27.8999 34.0187 27.9488 33.9346 28.3187 33.8154C29.4427 33.4578 30.5736 33.1072 31.6905 32.7146C32.0954 32.5743 32.4584 32.3359 32.8424 32.1396C33.0867 32.0134 33.2752 32.0555 33.4427 32.2798C33.7569 32.7005 34.0989 33.1002 34.427 33.5069C34.7621 33.9205 34.79 34.2501 34.455 34.6708C33.8616 35.414 33.1076 35.9118 32.1582 36.0661C31.9558 36.1082 31.7464 36.1152 31.5369 36.1362Z" fill="white"/>
<path d="M37.7716 30.1836C39.5099 31.9926 39.6634 34.5799 38.1765 36.9848C38.1067 36.9007 38.0299 36.8306 37.9671 36.7535C37.255 35.8349 36.536 34.9164 35.8239 33.9909C35.1259 33.0864 35.2864 32.0066 36.2079 31.3265C36.7315 30.9408 37.248 30.5692 37.7716 30.1836Z" fill="white"/>
<path d="M88.0478 62.198C88.697 61.8825 89.2066 61.4127 89.5207 60.7677C90.4771 58.8044 89.772 55.523 86.2886 55.4318C84.6271 55.3898 82.9657 55.4248 81.3042 55.4248C81.2065 55.4248 81.1018 55.4389 81.004 55.4459C81.004 59.141 81.004 62.808 81.004 66.4751C81.8906 66.4751 82.7493 66.4751 83.6568 66.4751C83.6568 65.22 83.6568 63.979 83.6568 62.7099C84.0407 62.7099 84.3758 62.7239 84.7109 62.7029C84.9133 62.6958 85.018 62.766 85.1158 62.9483C85.6324 63.9018 86.1978 64.8274 86.6655 65.802C86.9308 66.3559 87.2519 66.5592 87.8593 66.5101C88.5923 66.447 89.3322 66.4961 90.135 66.4961C89.3043 65.0868 88.5155 63.7336 87.7127 62.3663C87.8383 62.2962 87.943 62.2541 88.0478 62.198ZM86.1908 60.2348C85.3601 60.2979 84.5224 60.2488 83.6638 60.2488C83.6638 59.4355 83.6638 58.6502 83.6638 57.8719C84.5294 57.8719 85.3811 57.8158 86.2188 57.8929C86.8401 57.949 87.1821 58.4538 87.1821 59.0709C87.1751 59.6809 86.8052 60.1927 86.1908 60.2348Z" fill="white"/>
<path d="M52.9464 62.3171C54.6707 61.658 55.3479 59.9261 54.9639 58.1101C54.6219 56.5115 53.2396 55.4457 51.5293 55.4247C49.819 55.4107 48.1087 55.4247 46.4053 55.4247C46.3285 55.4247 46.2517 55.4387 46.168 55.4387C46.168 59.1268 46.168 62.7939 46.168 66.4679C47.0545 66.4679 47.9132 66.4679 48.8137 66.4679C48.8137 65.2129 48.8137 63.9718 48.8137 62.6957C49.1837 62.6957 49.5118 62.7097 49.8329 62.6887C50.0633 62.6747 50.182 62.7588 50.2937 62.9621C50.8801 64.063 51.4874 65.1498 52.0948 66.2365C52.1506 66.3347 52.2623 66.4679 52.3531 66.4679C53.3094 66.482 54.2728 66.4749 55.299 66.4749C54.4753 65.0656 53.6794 63.7194 52.8906 62.3732C52.9185 62.3521 52.9255 62.3241 52.9464 62.3171ZM52.3391 59.1478C52.3112 59.7508 51.8714 60.2276 51.2082 60.2627C50.4263 60.3047 49.6375 60.2697 48.8277 60.2697C48.8277 59.4423 48.8277 58.65 48.8277 57.8647C49.6724 57.8647 50.4961 57.8086 51.3129 57.8787C52.011 57.9418 52.374 58.4747 52.3391 59.1478Z" fill="white"/>
<path d="M63.2014 55.2637C59.2293 55.0043 56.5207 58.1104 57.128 61.9387C57.5888 64.8415 59.8087 66.6575 62.7686 66.6715C62.8733 66.6645 62.9781 66.6575 63.0828 66.6505C67.8717 66.4331 69.6518 61.6092 67.8647 58.1665C66.8943 56.3084 65.2608 55.3969 63.2014 55.2637ZM63.711 64.1193C61.8192 64.6872 60.0181 63.4813 59.8017 61.504C59.711 60.6346 59.8157 59.8072 60.2695 59.0429C60.9117 57.9772 62.1054 57.4864 63.4039 57.7318C64.5976 57.9561 65.4982 58.9027 65.7285 60.1788C65.7774 60.4452 65.7914 60.7117 65.8263 60.9781C65.8053 62.5066 64.9816 63.7337 63.711 64.1193Z" fill="white"/>
<path d="M25.5127 62.0649C27.223 62.0649 28.9124 62.0649 30.6088 62.0649C30.6088 61.2516 30.6088 60.4803 30.6088 59.6599C28.9054 59.6599 27.216 59.6599 25.5197 59.6599C25.5197 59.0219 25.5197 58.4399 25.5197 57.8019C27.2789 57.8019 29.0032 57.8019 30.7274 57.8019C30.7274 56.9885 30.7274 56.2243 30.7274 55.439C28.0956 55.439 25.4778 55.439 22.832 55.439C22.832 59.1271 22.832 62.7871 22.832 66.4612C25.4778 66.4612 28.0956 66.4612 30.7274 66.4612C30.7274 65.6689 30.7274 64.8976 30.7274 64.0772C28.9822 64.0772 27.244 64.0772 25.5057 64.0772C25.5127 63.3831 25.5127 62.745 25.5127 62.0649Z" fill="white"/>
<path d="M43.2634 55.7056C43.2634 55.6144 43.2425 55.5303 43.2355 55.4321C42.3419 55.4321 41.4693 55.4321 40.5409 55.4321C40.5409 55.6004 40.5409 55.7406 40.5409 55.8809C40.5409 57.9353 40.5478 59.9967 40.5409 62.051C40.5339 63.2991 39.8498 64.0774 38.6351 64.2387C37.4204 64.3999 36.4151 63.846 36.108 62.8083C36.0172 62.4928 35.9893 62.1422 35.9823 61.8056C35.9684 59.8214 35.9753 57.8301 35.9753 55.8458C35.9753 55.7196 35.9753 55.5934 35.9753 55.4462C35.0608 55.4462 34.1882 55.4462 33.3016 55.4462C33.2947 55.5093 33.2807 55.5513 33.2807 55.5934C33.2807 57.8231 33.2388 60.0598 33.2947 62.2894C33.3366 64.1335 34.1533 65.5358 35.9265 66.265C36.9317 66.6787 37.9858 66.7208 39.0469 66.6366C41.6299 66.4403 43.2146 64.7926 43.2495 62.2263C43.2844 60.0528 43.2634 57.8792 43.2634 55.7056Z" fill="white"/>
<path d="M115.546 60.2073C114.743 59.8778 113.892 59.6885 113.061 59.429C112.607 59.2888 112.146 59.1626 111.721 58.9663C111.316 58.777 111.26 58.3002 111.616 58.0197C111.839 57.8444 112.146 57.7112 112.433 57.6902C113.591 57.592 114.639 57.9286 115.539 58.6788C115.63 58.7489 115.714 58.826 115.825 58.9172C116.328 58.2511 116.824 57.599 117.319 56.9399C116.174 55.8321 114.806 55.3483 113.27 55.2852C112.105 55.2431 111.009 55.4394 110.024 56.1266C108.202 57.4097 108.111 60.4107 110.443 61.4694C110.939 61.6938 111.462 61.8621 111.979 62.0233C112.698 62.2477 113.438 62.416 114.157 62.6403C114.471 62.7385 114.771 62.9208 114.778 63.3064C114.785 63.7271 114.499 63.9515 114.15 64.1058C114.052 64.1478 113.954 64.1829 113.85 64.2039C112.851 64.3932 111.895 64.246 111.022 63.7412C110.562 63.4747 110.157 63.1241 109.71 62.7946C109.256 63.4326 108.775 64.1058 108.293 64.7929C108.363 64.877 108.419 64.9472 108.488 65.0103C110.143 66.658 113.459 67.2049 115.56 66.1672C116.872 65.5151 117.494 64.4493 117.48 62.9839C117.452 61.6096 116.747 60.7051 115.546 60.2073Z" fill="white"/>
<path d="M103.336 55.4324C101.626 55.4184 99.9156 55.4254 98.2122 55.4324C98.1215 55.4324 98.0377 55.4534 97.9609 55.4605C97.9609 59.1485 97.9609 62.8086 97.9609 66.4686C98.8545 66.4686 99.7132 66.4686 100.607 66.4686C100.607 65.2206 100.607 63.9935 100.607 62.7104C101.458 62.7104 102.254 62.7174 103.057 62.7104C104.09 62.6964 105.033 62.437 105.807 61.7078C106.834 60.7332 107.169 59.0644 106.631 57.6551C106.094 56.2878 104.865 55.4464 103.336 55.4324ZM103.155 60.2424C102.324 60.2984 101.493 60.2564 100.621 60.2564C100.621 59.45 100.621 58.6577 100.621 57.8724C101.493 57.8724 102.352 57.8163 103.197 57.8935C103.832 57.9496 104.153 58.4544 104.139 59.1205C104.132 59.7025 103.748 60.2003 103.155 60.2424Z" fill="white"/>
<path d="M69.8906 57.8366C70.9308 57.8366 71.943 57.8366 72.9902 57.8366C72.9902 60.7394 72.9902 63.5931 72.9902 66.4748C73.8837 66.4748 74.7493 66.4748 75.6569 66.4748C75.6569 63.5861 75.6569 60.7183 75.6569 57.8155C76.697 57.8155 77.7023 57.8155 78.7215 57.8155C78.7215 57.0092 78.7215 56.2379 78.7215 55.4526C75.7546 55.4526 72.8296 55.4526 69.8906 55.4526C69.8906 56.2379 69.8906 57.0162 69.8906 57.8366Z" fill="white"/>
<path d="M92.4178 66.4753C93.3044 66.4753 94.1561 66.4753 95.0287 66.4753C95.0287 62.7872 95.0287 59.1132 95.0287 55.4531C94.1351 55.4531 93.2695 55.4531 92.4178 55.4531C92.4178 59.1412 92.4178 62.8083 92.4178 66.4753Z" fill="white"/>
</g>
<defs>
<clipPath id="clip0">
<rect width="117" height="66" fill="white" transform="translate(0.464844 0.692871)"/>
</clipPath>
</defs>
</svg>
