<svg width="157" height="40" viewBox="0 0 157 40" fill="none" xmlns="http://www.w3.org/2000/svg">
<g clip-path="url(#clip0)">
<path d="M6.72559 0.615695L0.30468 0.592285L0.937398 2.1373L0.960832 30.7435L0.257812 32.3588H6.74902L6.04601 30.767V17.0725V2.20753L6.72559 0.615695Z" fill="white"/>
<path d="M19.4275 27.3024L11.7177 16.4171L21.9115 4.66557C23.6925 2.65237 25.7781 1.27121 27.6763 0.920073L27.934 0.63916H18.1621L18.8416 2.20759L6.04669 17.0725L13.8502 28.1452C16.756 32.2652 18.9588 35.0275 22.4973 37.0876C25.6609 38.9135 29.7853 39.9435 34.3549 39.3583C34.4487 39.171 34.5893 38.8433 34.7064 38.6092C31.0742 38.0239 27.7231 36.596 25.3563 34.4189C23.5753 32.827 22.2161 31.4693 19.4275 27.3024Z" fill="white"/>
<path d="M119.818 29.1751V18.1259H130.058L131.394 14.9423H119.818V3.77599H129.754L131.441 4.38463L133.011 0.615723H114.076L114.756 2.18415V30.7436L114.076 32.3588H131.394L133.035 28.4729L131.277 29.1751H119.818Z" fill="white"/>
<path d="M154.499 29.1751H143.04V18.1259L143.017 2.27779L143.72 0.615723H137.299L137.978 2.18415V30.7436L137.299 32.3588H154.593L156.257 28.4729L154.499 29.1751Z" fill="white"/>
<path d="M35.4786 29.3624V18.3132H45.6958L47.0316 15.1295H35.4786V3.96324H45.3912L47.0784 4.57189L48.672 0.802979H29.7373L30.3935 2.37141V30.9308L29.7373 32.5461H47.0316L48.6954 28.6601L46.9144 29.3624H35.4786Z" fill="white"/>
<path d="M75.856 29.2453L67.6073 17.5875C71.7785 16.8149 75.4811 14.2165 75.4811 8.90258C75.4811 3.61207 70.888 0.428392 63.3423 0.522029L58.2102 0.568848L52.6329 0.639076L53.3125 2.2075V30.7669L52.3049 32.4056H59.0773L58.304 30.7669V3.33115V3.26093L58.3508 3.1907C61.5847 2.86297 64.5843 2.62887 66.6465 3.54184C68.4743 4.33776 70.4896 6.23391 70.4896 8.90258C70.4896 10.7987 69.8569 12.2267 68.943 13.2099C66.8105 15.4806 63.4829 15.5274 59.8506 14.9656L59.8975 15.0358C59.71 15.0124 59.6163 14.989 59.6163 14.989L70.0444 29.9008C71.8722 32.9206 75.4576 32.5694 78.6447 32.4524L78.6212 32.0778C78.0822 31.9608 76.8168 30.6265 75.856 29.2453Z" fill="white"/>
<path d="M105.289 2.32466V15.0125V15.8787V18.1962V20.8649L87.3853 0.662598L81.8081 0.709416L81.644 0.686007V0.709416H80.6598L82.2767 2.55876V30.8139L81.5737 32.4525H86.7995L86.0965 30.8139V18.1962V15.0125V6.88949L98.9617 21.4969C98.9617 21.4969 98.9852 21.4969 98.9852 21.4735L104.562 27.8877C104.773 28.1686 105.008 28.4027 105.242 28.6134V28.6602L108.593 32.4291L109.038 32.4057V2.32466L109.765 0.686007H104.516L105.289 2.32466Z" fill="white"/>
</g>
<defs>
<clipPath id="clip0">
<rect width="156" height="39" fill="white" transform="translate(0.257812 0.498535)"/>
</clipPath>
</defs>
</svg>
