<svg width="139" height="73" viewBox="0 0 139 73" fill="none" xmlns="http://www.w3.org/2000/svg">
<g clip-path="url(#clip0)">
<path d="M138.941 43.6946C138.184 45.1405 137.426 46.5864 136.642 48.0055C134.424 51.9416 131.8 55.5831 128.636 58.8497C122.929 64.7404 116.112 68.6764 108.106 70.6311C105.104 71.3808 102.047 71.8092 98.9638 71.9966C95.5017 72.2108 92.0395 72.1305 88.5773 71.8092C82.3833 71.2469 76.3515 69.9617 70.3739 68.3016C62.584 66.1059 55.0105 63.2677 47.5722 60.1082C46.5714 59.6798 45.5436 59.2514 44.5428 58.7962C44.056 58.582 43.5421 58.5552 43.0281 58.6623C41.9192 58.9033 40.9184 59.3317 40.1069 60.135C39.2684 60.965 39.1061 62.518 39.7283 63.5355C40.134 64.1781 40.8102 64.4191 41.5405 64.1781C41.838 64.0978 42.1355 64.0174 42.4601 63.9907C43.1093 63.9639 43.4609 64.2584 43.4339 64.901C43.4068 65.4098 43.2986 65.9453 43.0822 66.4005C42.2978 68.1409 41.0266 69.4797 39.4578 70.5507C37.5103 71.9163 35.3194 72.6392 32.9121 72.6928C30.8564 72.7463 28.909 72.3447 27.2049 71.1666C25.2575 69.8278 24.1214 67.9267 23.6616 65.6508C23.0936 62.8661 23.31 60.1617 24.6083 57.5913C25.8255 55.1547 27.8 53.5213 30.2343 52.3968C32.3711 51.4061 34.6432 50.8705 36.9964 50.6563C39.9717 50.3618 42.947 50.5492 45.8411 51.2454C47.7075 51.6738 49.4656 52.3968 51.2237 53.0929C59.5275 56.3328 68.0477 59.0371 76.6491 61.3666C80.5711 62.4109 84.5201 63.2945 88.5232 63.83C90.8764 64.1513 93.2296 64.3387 95.5828 64.4994C98.2065 64.6868 100.83 64.6065 103.454 64.3387C111.217 63.6158 118.357 61.0989 124.822 56.788C128.284 54.4853 131.422 51.8077 134.316 48.8356C135.29 47.8181 136.236 46.7738 137.183 45.7296C137.264 45.6493 137.345 45.5422 137.399 45.3815C137.318 45.4351 137.21 45.4618 137.129 45.5154C135.831 46.2383 134.505 46.881 133.018 47.0952C130.908 47.3897 129.231 45.8635 129.339 43.775C129.339 43.6411 129.339 43.4804 129.339 43.293C128.825 43.8553 128.365 44.4176 127.878 44.9263C127.256 45.5957 126.553 46.2116 125.687 46.6132C123.226 47.7646 121.17 46.9345 120.224 44.4176C120.116 44.0963 120.007 43.775 119.845 43.4537C119.764 44.1766 119.656 44.8728 119.575 45.5957C119.439 46.5596 118.98 47.1219 117.925 47.0952C117.086 47.0684 116.248 47.0952 115.409 47.0952C114.3 47.0952 113.516 46.399 113.435 45.3012C113.408 44.9531 113.435 44.5782 113.516 44.2302C113.922 42.5433 114.354 40.8564 114.787 39.1695C114.976 38.4198 114.706 38.1253 113.867 38.1521C113.705 38.7947 113.57 39.4641 113.408 40.1335C112.975 41.7936 112.407 43.4001 111.244 44.7121C109.377 46.8274 106.997 47.3897 104.292 46.7739C104.13 46.7471 103.941 46.7471 103.805 46.8006C102.994 47.0416 102.183 47.2558 101.317 47.1219C99.7212 46.8542 98.6122 45.5422 98.6934 43.9356C98.6934 43.7482 98.6934 43.5875 98.6934 43.3198C98.3958 43.6679 98.1524 43.9624 97.8819 44.2569C97.0975 45.1405 96.3131 46.0241 95.2582 46.5596C94.4468 46.9881 93.6083 47.2023 92.7157 47.1487C91.742 47.0952 90.9576 46.6667 90.3625 45.8902C90.092 45.5422 89.8756 45.1405 89.6593 44.7924C89.0912 45.1673 88.5232 45.5689 87.9282 45.8902C86.711 46.5596 85.4397 47.0416 84.0332 47.0952C83.2759 47.1219 82.5456 46.9613 81.8694 46.5864C80.6252 45.8902 80.0571 44.7657 80.3547 43.3733C80.6522 42.0345 81.0038 40.7225 81.3014 39.3837C81.3555 39.116 81.4096 38.8482 81.4366 38.5537C81.4637 38.0985 81.4366 37.6433 81.0038 37.3756C80.544 37.1078 80.0571 37.1614 79.6244 37.4291C79.1375 37.7236 78.867 38.1788 78.7318 38.6876C78.4613 39.705 78.1908 40.7225 77.9744 41.74C77.758 42.6504 77.5687 43.5608 77.3794 44.4711C77.0818 45.7831 76.1351 46.5596 74.7557 46.6132C74.1877 46.64 73.6197 46.6667 73.0787 46.6667C72.3484 46.6667 71.6722 46.9077 71.0771 47.2826C70.9419 47.3629 70.7796 47.47 70.5903 47.5771C70.7255 46.9613 70.8337 46.399 70.9689 45.8367C71.4829 43.4804 72.0238 41.1242 72.5107 38.7411C72.5648 38.4734 72.5648 38.1788 72.5377 37.9111C72.4836 37.3756 72.0238 37.081 71.4288 37.1346C70.6714 37.2149 70.1845 37.6969 69.9682 38.3663C69.6706 39.2766 69.4813 40.2138 69.2379 41.1242C68.9403 42.3023 68.6698 43.5072 68.3723 44.6853C68.1559 45.5957 67.5609 46.158 66.6142 46.3722C65.8568 46.5596 65.1265 46.6132 64.3692 46.5596C63.3954 46.4793 62.5299 46.6935 61.8266 47.4165C61.7725 47.47 61.7184 47.4968 61.6373 47.5503C61.9889 45.9706 62.3406 44.4176 62.6922 42.8914C62.6651 42.8914 62.6651 42.8646 62.6381 42.8646C62.5569 42.9717 62.4758 43.0788 62.4217 43.1859C60.0956 46.5329 56.3359 47.6039 52.9278 46.8274C51.1696 46.4258 49.9525 45.328 49.114 43.775C49.0599 43.6946 49.0328 43.6143 48.9517 43.5072C48.3296 44.364 47.6263 45.087 46.7878 45.7028C45.8682 46.399 44.8674 46.9345 43.6773 47.0684C42.947 47.1487 42.2437 47.0952 41.5675 46.8274C40.6749 46.4793 40.2422 45.7564 40.134 44.846C40.0799 44.4444 40.0528 44.0427 39.9717 43.5875C39.7283 43.9624 39.5389 44.2837 39.3496 44.605C38.8357 45.3815 38.2136 46.0777 37.4021 46.5596C36.3472 47.2023 35.2112 47.3094 34.0752 46.9077C32.8039 46.4793 32.2088 45.4618 31.8843 44.2302C31.8572 44.123 31.8302 44.0159 31.8031 43.8821C31.3704 44.2837 30.9646 44.7121 30.5319 45.087C28.6926 46.6132 26.5287 47.1755 24.1485 47.0416C21.4437 46.9077 19.5232 45.4618 18.6306 42.8914C18.6036 42.8378 18.5765 42.811 18.5495 42.7039C18.0897 43.6143 17.4676 44.364 16.7373 45.0334C15.7365 45.9438 14.6275 46.6935 13.248 47.0148C12.4907 47.1755 11.7333 47.1487 10.976 46.9345C10.0023 46.64 9.38015 45.8902 9.29901 44.8728C9.27196 44.4711 9.21786 44.0695 9.13672 43.5608C9.02853 43.7214 8.97443 43.8017 8.92033 43.9088C8.40642 44.8192 7.81136 45.6493 6.97286 46.2651C5.86389 47.0952 4.64672 47.3094 3.32135 46.9077C1.99599 46.5061 1.37388 45.4618 1.0493 44.2034C0.995207 43.9892 0.968159 43.775 0.914062 43.5608C0.914062 43.0788 0.914062 42.5701 0.914062 42.0881C0.995207 41.74 1.02226 41.3651 1.13045 41.0171C1.31979 40.4012 1.59027 39.8121 2.34762 39.7586C2.6722 39.7318 3.02382 39.8389 3.3484 39.946C3.70003 40.0799 4.05166 40.2941 4.40328 40.4548C4.9172 40.6958 5.45816 40.6958 5.97208 40.4012C6.89172 39.8925 7.43268 39.0892 7.48678 38.045C7.54088 36.9471 6.75648 36.2242 5.5934 36.1974C5.21473 36.1974 4.8631 36.1974 4.48443 36.1974C3.86232 36.1706 3.59184 35.8761 3.61888 35.287C3.64593 34.7783 3.83527 34.3231 4.1869 33.9483C5.24178 32.8237 6.54009 32.1007 8.10889 31.9936C9.59654 31.8598 10.408 32.3953 11.003 33.7608C11.0842 33.975 11.1653 34.1625 11.2735 34.4302C11.3547 34.2963 11.4358 34.216 11.4899 34.1089C12.2743 33.0647 13.194 32.1811 14.5464 31.9133C15.8176 31.6455 16.9807 31.8865 17.9274 32.8237C18.6306 33.5198 18.7659 34.7248 18.3061 35.5013C18.0356 35.9832 17.6299 36.2242 17.0618 36.1706C16.7373 36.1439 16.4397 36.0903 16.1422 36.0368C14.4923 35.7958 13.0858 37.1078 13.248 38.7143C13.3562 39.8389 14.5734 40.7493 15.7906 40.5619C16.2504 40.5083 16.6832 40.3477 17.143 40.2406C17.5487 40.1335 17.9544 40.0531 18.4143 39.9728C18.4684 39.7318 18.4954 39.4105 18.5765 39.116C19.4421 35.287 22.5526 32.5024 26.4746 32.074C28.3139 31.8597 30.045 32.1007 31.5597 33.1985C33.0473 34.2696 33.8588 35.7422 33.9129 37.563C33.9399 38.2859 33.8588 39.0089 33.8317 39.7854C34.3727 40.0264 34.9678 40.3209 35.5628 40.5619C36.0767 40.7493 36.5636 40.6422 37.0234 40.3477C37.8078 39.8122 38.2947 39.0892 38.3758 38.1253C38.457 37.0542 37.6455 36.2778 36.4825 36.2242C36.1308 36.2242 35.7792 36.2242 35.4546 36.2242C34.7243 36.2242 34.4268 35.8226 34.535 35.1264C34.6161 34.5909 34.8596 34.1357 35.2382 33.7876C36.2661 32.8237 37.4562 32.1275 38.8898 32.0204C40.5938 31.8865 41.27 32.4488 41.811 33.6537C41.9192 33.8947 42.0003 34.1357 42.1355 34.4302C42.2167 34.2963 42.2978 34.216 42.3519 34.1357C43.1363 33.0914 44.056 32.2078 45.4084 31.9401C46.5714 31.6991 47.6534 31.8598 48.573 32.663C49.4386 33.386 49.682 34.698 49.141 35.5816C48.8705 36.0368 48.4919 36.2778 47.9239 36.2242C47.5993 36.1974 47.3018 36.1439 47.0042 36.0903C45.5707 35.8761 44.1912 36.8936 44.056 38.2324C43.9207 39.8122 45.3813 40.7761 46.6255 40.5886C47.2206 40.5083 47.7886 40.3209 48.3566 40.1335C48.4378 40.1067 48.5189 39.9996 48.5189 39.8925C49.0599 35.9564 51.8999 32.9308 55.8219 32.1543C57.553 31.8062 59.2841 31.8598 60.907 32.7166C62.6922 33.6537 63.693 35.0996 63.9905 37.1881C64.0446 37.0007 64.0987 36.8668 64.0987 36.7597C64.1528 36.3581 64.2339 35.9297 64.288 35.528C64.3421 34.8586 64.0987 34.3499 63.4766 34.0018C63.5577 33.9215 63.6118 33.8412 63.6659 33.7876C64.856 32.7701 66.2085 32.074 67.7773 31.833C68.21 31.7794 68.6428 31.7526 69.0756 31.833C69.9682 31.9669 70.5362 32.5827 70.7526 33.6002C70.7796 33.7341 70.8066 33.8679 70.8337 34.0554C70.9419 33.975 71.0501 33.9215 71.1312 33.8679C71.9968 33.3324 72.8353 32.7434 73.7279 32.2882C74.7286 31.7794 75.8376 31.6723 76.9466 31.8865C77.9744 32.1007 78.7047 32.6898 79.1646 33.6002C79.2457 33.7341 79.2998 33.8947 79.3809 34.0554C79.5973 33.8679 79.8137 33.7073 80.0301 33.5466C81.4636 32.4756 83.0054 31.7794 84.8447 31.8062C85.2504 31.8062 85.6832 31.8865 86.0889 31.9936C87.7388 32.4756 88.5773 33.7876 88.2798 35.4745C88.0634 36.7597 87.7118 38.045 87.4413 39.3302C87.3061 40.0264 87.1708 40.7225 87.0626 41.4187C87.0356 41.6329 87.0356 41.8739 87.0897 42.0881C87.1979 42.6504 87.7388 42.9717 88.3068 42.8914C88.3609 42.8914 88.4421 42.8646 88.4962 42.8646C89.1453 42.6772 89.1453 42.6772 89.1453 42.0078C89.1453 39.0892 90.3084 36.6258 92.2559 34.5106C93.3919 33.2789 94.7443 32.422 96.4213 32.1275C98.2606 31.8062 99.9105 32.1811 101.236 33.5466C101.263 33.5734 101.29 33.6002 101.344 33.6537C101.75 33.3592 102.156 33.0914 102.561 32.7969C103.129 32.422 103.751 32.1007 104.428 32.0472C104.779 32.0204 105.158 32.0472 105.51 32.1543C106.24 32.3685 106.618 32.9308 106.483 33.6805C106.267 34.8854 105.969 36.0635 105.726 37.2685C105.428 38.6608 105.104 40.0531 104.806 41.4455C104.671 42.0881 104.86 42.5968 105.374 42.8914C105.564 42.9985 105.699 42.9985 105.861 42.8378C106.402 42.3023 106.808 41.6597 106.997 40.9367C107.43 39.3837 107.809 37.804 108.214 36.251C108.323 35.8493 108.35 35.4477 108.377 35.0461C108.404 34.457 108.187 34.1892 107.538 33.975C107.619 33.9483 107.7 33.8947 107.755 33.8679C109.08 32.8505 110.54 32.1275 112.217 32.0204C112.948 31.9669 113.678 31.9669 114.408 31.9669C116.275 31.9669 118.141 31.9669 119.98 31.9669C121.387 31.9669 122.117 32.8772 121.82 34.2428C121.63 35.0728 121.414 35.8761 121.279 36.7329C121.333 36.6526 121.387 36.5723 121.441 36.492C122.388 35.0461 123.47 33.7341 125.038 32.9308C126.688 32.074 128.419 31.8062 130.205 32.5024C130.773 32.7166 131.232 33.145 131.746 33.4931C131.854 33.5466 131.909 33.6537 132.017 33.7341C132.45 33.4395 132.855 33.145 133.261 32.8505C134.045 32.3417 134.911 31.9669 135.885 32.1543C136.912 32.3149 137.345 33.0111 137.129 34.0018C136.561 36.492 136.02 38.9821 135.452 41.499C135.208 42.5701 135.993 43.2662 137.048 42.9449C137.21 42.8914 137.399 42.8378 137.562 42.7575C138.103 42.4897 138.562 42.5968 138.941 43.0788C138.941 43.2127 138.941 43.4537 138.941 43.6946ZM58.4727 37.7504C58.4727 36.6794 58.1481 36.0903 57.6071 35.8761C57.0391 35.6351 56.3088 35.8226 55.876 36.3313C55.308 37.0275 55.0105 37.8575 55.1187 38.7679C55.1998 39.4908 55.7678 39.9996 56.444 39.946C56.8768 39.9193 57.2825 39.7586 57.6071 39.4373C58.1481 38.875 58.4456 38.2056 58.4727 37.7504ZM24.987 38.5001C24.9599 39.3302 25.582 40.0264 26.3394 39.946C26.7722 39.9193 27.1779 39.7586 27.5025 39.4373C28.0705 38.875 28.368 38.1788 28.395 37.4023C28.4221 36.1974 27.3943 35.4209 26.3394 35.9297C26.0419 36.0635 25.7714 36.3313 25.582 36.5991C25.1763 37.1614 25.014 37.804 24.987 38.5001ZM99.8294 37.4023C99.8564 36.492 99.5589 36.0635 98.9638 35.9832C98.3147 35.8761 97.7467 36.0368 97.2869 36.5455C96.7729 37.1078 96.5025 37.7772 96.5025 38.5269C96.4754 39.4641 97.0164 39.9728 97.8819 39.8925C98.2606 39.8657 98.6122 39.705 98.8827 39.4105C99.4778 38.7947 99.8023 38.0717 99.8294 37.4023ZM130.475 37.4291C130.475 36.492 130.205 36.0903 129.637 35.9832C129.014 35.8761 128.446 36.0368 128.014 36.492C127.473 37.081 127.175 37.7772 127.175 38.5537C127.148 39.4641 127.689 39.9996 128.555 39.8657C128.906 39.8122 129.258 39.6515 129.528 39.4105C130.15 38.8482 130.421 38.0717 130.475 37.4291Z" fill="white"/>
<path d="M39.6202 0.69312C40.2423 0.826999 40.8644 0.880551 41.4595 1.06798C42.866 1.52317 44.2454 2.03191 45.6249 2.54065C46.815 2.96906 48.0051 3.42425 49.2764 3.53135C49.9255 3.5849 50.5747 3.50457 51.2239 3.4778C51.2509 3.4778 51.278 3.4778 51.3321 3.45102C52.441 3.34392 53.0361 4.06687 52.6845 5.11112C52.6033 5.40565 52.4951 5.70019 52.414 5.99472C51.873 7.65482 51.873 9.36846 51.9271 11.0821C51.9542 11.9925 52.0353 12.8761 52.0894 13.7865C52.0894 13.8936 52.1164 14.0274 52.1705 14.1613C52.2246 14.081 52.2787 13.9739 52.3328 13.8936C53.0361 12.6619 53.6852 11.3766 54.4967 10.1985C56.2819 7.54771 58.5539 5.32533 61.2587 3.5849C62.2054 2.96906 63.2603 2.54065 64.4234 2.46032C64.9103 2.43354 65.343 2.54065 65.6946 2.8084C65.8299 2.91551 65.9651 3.15649 65.9922 3.34392C66.0733 3.93299 65.7758 4.44173 65.5053 4.95047C64.207 7.19963 63.1792 9.58267 62.3948 12.046C61.8268 13.8936 61.6104 15.7946 61.8538 17.7225C61.9079 18.2045 62.0702 18.6864 62.3136 19.1148C62.6923 19.811 63.5308 19.8913 64.1259 19.3558C64.207 19.2755 64.2341 19.1416 64.2611 19.0077C64.9644 16.7586 66.2086 14.8843 68.0478 13.4116C69.7248 12.0996 71.6182 11.5909 73.728 12.0996C74.6476 12.3138 75.405 12.8493 76.0541 13.5455C76.4869 13.2509 76.8926 12.9564 77.2983 12.6619C78.0016 12.2067 78.7319 11.8854 79.5974 11.9122C79.8138 11.9122 80.0302 11.9657 80.2195 12.0193C80.9769 12.2602 81.3556 12.8225 81.1933 13.599C80.9769 14.6701 80.7335 15.7411 80.49 16.8389C80.1654 18.3116 79.8409 19.7842 79.4892 21.2569V21.2837C79.354 22.0066 79.4351 22.1673 80.1384 22.4083C80.2466 22.435 80.3548 22.4886 80.4359 22.5154C81.3556 22.7296 81.7613 22.5689 82.14 21.7121C82.735 20.3733 83.0596 18.9542 83.4112 17.5351C83.5194 17.1067 83.6006 16.6782 83.7088 16.2498C83.9522 15.2859 83.7899 14.4559 82.8432 13.84C83.4383 13.4652 83.9792 13.0903 84.5202 12.769C85.4128 12.2335 86.3595 11.7783 87.4414 11.6712C88.1176 11.6176 88.7668 11.6444 89.4159 11.9389C89.9298 12.1531 90.2544 12.5012 90.3356 13.0367C90.4167 13.5187 90.4708 14.0007 90.4979 14.5094C90.552 15.6608 90.552 16.7854 90.6061 17.9367C90.6061 18.017 90.6331 18.0974 90.6331 18.258C91.0659 17.5351 91.4445 16.8389 91.8503 16.1963C92.4724 15.2591 93.0674 14.2952 93.7437 13.4116C94.4469 12.4745 95.3936 11.9389 96.5837 11.8854C97.5033 11.8586 98.45 11.8318 99.3697 11.8318C100.046 11.8318 100.127 12.3941 99.9647 12.9029C99.3697 14.6701 98.7746 16.4105 98.2337 18.1777C97.8279 19.4629 97.7738 20.8017 97.6927 22.1137C97.6656 22.5957 97.8009 22.6492 98.2877 22.5421C98.7746 22.4083 98.6394 22.087 98.6394 21.7924C98.6664 19.5433 99.3967 17.5351 100.695 15.7143C101.588 14.4826 102.615 13.3848 103.995 12.6887C105.699 11.8586 107.457 11.5909 109.242 12.3941C109.756 12.6083 110.162 13.01 110.622 13.3313C110.703 13.3848 110.784 13.4652 110.838 13.5455C111.433 13.1438 112.001 12.7422 112.623 12.3941C113.272 12.0193 113.976 11.8586 114.706 11.9657C115.761 12.1531 116.194 12.8225 115.977 13.84C115.409 16.3302 114.868 18.8203 114.3 21.3372C114.057 22.4083 114.841 23.1044 115.896 22.7831C116.167 22.7028 116.437 22.5957 116.735 22.5154C117.33 22.3547 117.871 22.7563 117.762 23.3454C117.708 23.7203 117.492 24.0951 117.276 24.3897C116.789 25.0055 116.113 25.3804 115.436 25.7285C114.273 26.3175 113.11 26.8263 111.785 26.9869C109.756 27.2279 108.106 25.7552 108.187 23.7203C108.187 23.5596 108.187 23.399 108.187 23.1848C108.079 23.2919 108.025 23.3722 107.944 23.4257C107.268 24.1487 106.646 24.8984 105.942 25.5678C105.077 26.3978 104.022 26.8798 102.832 26.9869C101.398 27.1208 100.343 26.5317 99.5861 25.3536C99.4238 25.0858 99.2885 24.8181 99.1533 24.5503C98.6394 25.1126 98.1525 25.6749 97.6115 26.1836C96.9894 26.7995 96.2591 27.2011 95.3665 27.2814C94.474 27.3618 93.7166 26.9869 93.3109 26.1836C92.8781 25.3268 92.824 24.4164 92.8781 23.5061C92.9863 22.087 93.4191 20.7214 93.8248 19.3558C93.8789 19.1952 93.9059 19.0345 93.96 18.8739C93.933 18.8471 93.9059 18.8471 93.8789 18.8203C93.8248 18.9006 93.7436 18.9542 93.6896 19.0345C93.2838 19.7575 92.9052 20.5072 92.4994 21.2569C91.8773 22.435 91.147 23.5328 90.2544 24.4968C89.6864 25.1126 88.9561 25.4607 88.0365 25.3536C87.5767 25.3 87.4955 25.2465 87.4955 24.7913C87.4955 24.1219 87.5767 23.4525 87.5767 22.7831C87.6037 21.4979 87.6308 20.2126 87.6849 18.9274C87.6578 18.9274 87.6037 18.9274 87.5767 18.9006C87.5496 18.981 87.4955 19.0613 87.4685 19.1416C87.198 20.1323 86.9275 21.123 86.6841 22.1137C86.3324 23.5328 85.6833 24.7645 84.4391 25.6213C83.6817 26.1301 82.9514 26.6656 82.0588 26.8798C81.2203 27.0672 80.4089 26.9066 79.5704 26.7995C79.327 26.7727 79.1106 26.6924 78.8671 26.6656C78.6778 26.6388 78.4614 26.6388 78.2721 26.6924C77.4877 26.9066 76.7303 27.094 75.9189 26.9601C74.4312 26.7459 73.3222 25.5142 73.2682 24.0416C73.2682 23.7738 73.2682 23.5061 73.2682 23.1848C73.1329 23.3186 73.0518 23.4257 72.9706 23.5061C72.3756 24.1487 71.7805 24.8449 71.1584 25.4607C70.2658 26.3443 69.1839 26.8798 67.9126 27.0137C66.5061 27.1476 65.4242 26.6121 64.6939 25.4339C64.3963 24.9787 64.207 24.47 63.9906 23.9613C63.666 24.3629 63.3144 24.8181 62.9357 25.2197C61.7997 26.4514 60.4202 27.2279 58.6892 27.2547C57.4179 27.2814 56.4712 26.6924 55.8491 25.6213C55.254 24.6039 55.0647 23.4793 55.0377 22.3279C54.9836 20.3465 55.4704 18.4722 55.9573 16.5711C56.4712 14.563 57.5531 12.7958 58.4728 10.9482C58.5269 10.8144 58.608 10.7073 58.608 10.5466C58.4187 10.734 58.2293 10.8947 58.04 11.0821C56.7146 12.4477 55.7409 14.081 54.9024 15.7679C54.0639 17.4012 53.3066 19.0613 52.414 20.6678C51.873 21.6318 51.1968 22.5154 50.5206 23.4257C50.2772 23.7203 49.9526 23.988 49.601 24.1755C48.8436 24.5771 48.0592 24.1487 48.0592 23.2919C48.0863 21.9798 48.1945 20.6678 48.2215 19.3558C48.2756 18.017 48.2756 16.6782 48.2756 15.3395C48.2756 13.8132 48.2756 12.3138 48.2756 10.734C48.2215 10.8679 48.1404 10.9482 48.1133 11.0553C47.383 12.7154 46.8961 14.4559 46.4363 16.1963C45.9495 18.0438 45.5167 19.8913 44.9216 21.7121C44.2454 23.9077 43.1094 25.8623 41.4595 27.4689C39.3767 29.5306 36.8883 30.8426 33.9401 31.2443C32.1278 31.4852 30.3426 31.4585 28.6116 30.8426C25.9067 29.8519 23.9322 28.1115 23.3372 25.1929C22.715 22.087 23.5535 19.4094 25.9879 17.3209C28.4493 15.1788 31.3434 14.4291 34.5622 14.8843C34.9138 14.9378 35.2654 15.0985 35.5629 15.2859C36.158 15.6608 36.158 16.3302 35.617 16.7586C35.5088 16.8389 35.4007 16.946 35.2925 16.9996C34.3458 17.5886 34.481 18.8471 35.049 19.4362C35.8064 20.2394 36.7531 20.3465 37.7809 20.0788C39.1333 19.7307 40.0529 18.8471 40.7021 17.6957C41.5947 16.0892 42.3791 14.4559 43.1905 12.7958C44.002 11.1089 44.7323 9.34169 45.8413 7.81547C46.0036 7.60127 46.1658 7.36028 46.3552 7.09253C45.3814 6.82477 44.4618 6.50346 43.461 6.44991C42.7307 6.42313 42.0004 6.44991 41.3242 6.79799C40.7292 7.09253 40.4587 7.62804 40.5669 8.27066C40.648 8.69907 40.8914 8.94005 41.3513 8.94005C41.5676 8.94005 41.757 8.94005 41.9734 8.94005C42.4332 8.94005 42.6496 9.20781 42.5955 9.663C42.5414 10.1985 42.2709 10.6269 41.8922 11.0018C41.6758 11.216 41.4324 11.457 41.1619 11.6176C39.7013 12.6083 38.1055 13.3045 36.3473 13.5723C34.1564 13.8936 32.0467 12.769 30.9647 10.6805C29.6123 8.08323 30.2074 5.05757 32.5065 3.04939C34.0482 1.7106 35.8064 0.880551 37.862 0.666344C37.9432 0.666344 37.9973 0.639569 38.0784 0.612793C38.6464 0.69312 39.1333 0.69312 39.6202 0.69312ZM71.1584 18.1777C71.1584 19.3826 71.6182 19.9181 72.4838 19.811C72.8354 19.7575 73.2141 19.6236 73.4575 19.3826C74.1337 18.7668 74.4312 17.9635 74.4583 17.0531C74.4853 16.4105 74.1607 16.0089 73.6468 15.9017C73.0518 15.7946 72.4837 15.9017 72.0239 16.3569C71.483 16.946 71.1854 17.6422 71.1584 18.1777ZM109.323 17.1334C109.323 16.4373 109.08 16.0356 108.512 15.9285C107.836 15.7946 107.268 15.9553 106.808 16.464C106.294 17.0263 106.024 17.6957 106.024 18.4722C106.024 19.5165 106.754 20.0788 107.728 19.7307C108.025 19.6236 108.296 19.4361 108.512 19.1952C109.026 18.6329 109.296 17.9367 109.323 17.1334Z" fill="white"/>
</g>
<defs>
<clipPath id="clip0">
<rect width="138" height="72" fill="white" transform="translate(0.941406 0.692871)"/>
</clipPath>
</defs>
</svg>
