<svg width="127" height="59" viewBox="0 0 127 59" fill="none" xmlns="http://www.w3.org/2000/svg">
<g clip-path="url(#clip0)">
<path d="M100.441 36.978C100.441 36.9956 100.459 36.9956 100.459 37.0131C100.459 36.9956 100.477 36.9956 100.477 36.978C100.477 36.978 100.459 36.978 100.441 36.978Z" fill="white"/>
<path d="M110.018 14.6487C110.018 12.2788 110.018 9.89141 110.018 7.52155C110.018 6.85448 109.748 6.39807 109.118 6.13475C108.398 5.81877 107.678 5.50279 106.976 5.16925C103.827 3.72978 100.677 2.30787 97.5277 0.85085C97.0418 0.622641 96.5559 0.640196 96.0699 0.833295C93.7842 1.79879 91.4806 2.74673 89.1769 3.69468C86.3333 4.87083 83.4897 6.02942 80.6461 7.18802C77.9285 8.3115 75.1929 9.43499 72.4753 10.5585C69.8837 11.6293 67.292 12.6826 64.7004 13.7534C64.2325 13.9465 63.8005 14.1396 63.2246 13.8763C61.3709 13.0337 59.4632 12.2964 57.5734 11.524C54.5139 10.2601 51.4543 9.01368 48.3947 7.76731C45.6591 6.64383 42.9055 5.50279 40.1699 4.3793C37.3443 3.2207 34.4827 2.04455 31.6211 0.868404C31.0992 0.640196 30.6133 0.65775 30.0913 0.885959C29.1015 1.35993 28.0936 1.81635 27.0858 2.27276C24.2422 3.55424 21.3986 4.85327 18.537 6.11719C18.0691 6.32785 17.8171 6.64383 17.7271 7.1178C17.7271 23.8823 17.7271 40.6469 17.7271 57.4114C17.7271 57.464 17.7271 57.5167 17.7271 57.5869C17.9251 58.4295 18.267 58.6753 19.2029 58.6753C48.9347 58.6753 78.6844 58.6753 108.416 58.6929C109.424 58.6929 110.018 57.9907 110.018 57.1481C110.018 42.9816 110.018 28.8151 110.018 14.6487ZM98.1576 4.32664C98.1576 4.11598 98.1936 3.9931 98.4456 4.11598C100.731 5.1517 102.999 6.18741 105.285 7.22313C105.321 7.24068 105.339 7.27579 105.393 7.32845C103.647 8.04819 101.937 8.76792 100.209 9.48765C99.6334 9.73342 99.0575 9.94407 98.4996 10.2074C98.2476 10.3127 98.1576 10.2952 98.1576 10.0143C98.1576 8.10085 98.1576 6.20497 98.1576 4.32664ZM65.6003 16.211C75.3009 12.2262 85.0015 8.24129 94.6841 4.23886C95.512 3.90533 95.512 3.90533 95.512 4.78305C95.512 6.87204 95.512 8.96102 95.512 11.05C95.512 11.3484 95.422 11.4713 95.1521 11.5766C85.3075 15.6668 75.4449 19.757 65.6003 23.8648C65.2763 24.0052 65.1863 23.9877 65.2043 23.619C65.2223 22.478 65.2043 21.3369 65.2043 20.1783C65.2043 19.0548 65.2223 17.9489 65.1863 16.8254C65.1863 16.4919 65.2943 16.3339 65.6003 16.211ZM32.233 4.36175C32.233 3.90533 32.233 3.90533 32.683 4.08087C42.4916 8.1184 52.3182 12.1735 62.1268 16.1935C62.4327 16.3163 62.5587 16.4743 62.5407 16.8079C62.5227 19.0548 62.5227 21.3018 62.5227 23.5488C62.5227 23.6717 62.5227 23.7946 62.5227 24.0052C60.8849 23.3206 59.3192 22.6711 57.7534 22.0216C49.4026 18.5633 41.0338 15.0875 32.647 11.6117C32.359 11.4889 32.233 11.366 32.233 11.0324C32.251 8.80303 32.233 6.59116 32.233 4.36175ZM24.4581 6.31029C26.0419 5.59056 27.6257 4.87083 29.2095 4.15109C29.4794 4.02821 29.6054 3.9931 29.5874 4.36175C29.5694 6.22252 29.5874 8.08329 29.5874 9.96162C29.5874 10.1723 29.6414 10.3654 29.2815 10.2074C26.9778 9.24189 24.6921 8.29395 22.2805 7.29334C23.0723 6.94225 23.7742 6.62627 24.4581 6.31029ZM22.6224 56.1124C22.6044 55.9368 22.7664 55.8841 22.8744 55.8139C25.61 53.4441 28.3456 51.0918 31.0632 48.7219C31.3152 48.4937 31.5671 48.4059 31.9091 48.4059C53.218 48.4059 74.509 48.4059 95.818 48.4059C96.1779 48.4059 96.4479 48.4937 96.6998 48.7395C99.4534 51.1444 102.225 53.5143 104.979 55.9193C105.033 55.9719 105.123 56.007 105.123 56.1299C77.6406 56.1123 50.1405 56.1124 22.6224 56.1124ZM107.372 54.5149C106.832 54.0585 106.346 53.6547 105.879 53.2334C103.395 51.0742 100.893 48.915 98.3916 46.7734C98.1936 46.5978 98.1396 46.4223 98.1396 46.1765C98.1396 44.4386 98.1396 42.7007 98.1396 40.9628C97.2398 40.9979 96.3579 40.8926 95.494 40.6293C95.494 42.2092 95.476 43.7891 95.494 45.3866C95.494 45.7728 95.404 45.8781 95.0081 45.8781C81.0781 45.8605 67.1481 45.8605 53.236 45.8605C46.415 45.8605 39.576 45.8605 32.755 45.8781C32.305 45.8781 32.215 45.7552 32.215 45.3339C32.233 43.8242 32.215 42.3145 32.215 40.8048C31.3332 40.8048 30.4513 40.8048 29.5694 40.8048C29.5694 42.613 29.5694 44.4211 29.5694 46.2292C29.5694 46.4223 29.5694 46.5627 29.3894 46.7207C26.4019 49.3012 23.4143 51.8817 20.3727 54.5149C20.3727 39.4356 20.3727 24.3914 20.3727 9.32966C21.0206 9.59298 21.6685 9.8563 22.3165 10.1372C24.6021 11.0851 26.8878 12.0506 29.1915 12.981C29.4974 13.1039 29.5694 13.2794 29.5694 13.5778C29.5694 19.09 29.5694 24.6021 29.5694 30.1142C30.4513 30.1142 31.3332 30.1142 32.215 30.1142C32.215 24.8478 32.215 19.5815 32.215 14.2449C33.1329 14.6311 33.9788 14.9822 34.8247 15.3333C44.2373 19.2479 53.668 23.145 63.0806 27.0772C63.6566 27.323 64.1785 27.2703 64.7364 27.0246C73.9691 23.1801 83.2198 19.3357 92.4704 15.5088C93.4603 15.1051 94.4322 14.6838 95.494 14.2449C95.494 19.6166 95.494 24.9356 95.494 30.2546C96.3579 29.9562 97.2398 29.9035 98.1396 29.9386C98.1396 24.5318 98.1396 19.1075 98.1396 13.7007C98.1396 13.2794 98.2476 13.0863 98.6436 12.9283C101.415 11.8048 104.187 10.6462 106.94 9.48765C107.066 9.43499 107.192 9.32966 107.354 9.36477C107.372 24.3914 107.372 39.418 107.372 54.5149Z" fill="white"/>
<path d="M11.8391 33.6601C11.8391 32.5893 11.8391 31.5185 11.8391 30.4301C11.8391 30.2546 11.875 30.0966 11.5871 30.1141C10.8852 30.1317 10.1653 30.1317 9.46339 30.1141C9.33741 30.1141 9.26542 30.1492 9.21143 30.2721C8.34755 31.6765 7.44768 33.0633 6.5838 34.4676C6.38583 34.7836 6.33184 34.7661 6.15187 34.4676C5.30599 33.0808 4.42411 31.7116 3.57823 30.3248C3.47025 30.1492 3.34427 30.1141 3.16429 30.1141C2.53438 30.1317 1.88647 30.1317 1.25656 30.1141C0.986602 30.1141 0.914612 30.1843 0.914612 30.4477C0.932609 31.2727 0.914612 32.1153 0.914612 32.958C0.914612 35.4507 0.914612 37.9259 0.914612 40.4186C0.914612 40.7521 1.0046 40.8224 1.32855 40.8048C1.88647 40.7697 2.46239 40.7697 3.02031 40.8048C3.38026 40.8224 3.48824 40.717 3.48824 40.3659C3.47025 38.6632 3.48824 36.9779 3.48824 35.2751C3.48824 35.1523 3.50624 35.0118 3.52424 34.7836C3.74021 35.1523 3.90219 35.4156 4.06416 35.6789C4.73007 36.7497 5.39597 37.8205 6.07987 38.8914C6.27785 39.2073 6.51181 39.1898 6.70979 38.8914C6.88976 38.5929 7.06973 38.2945 7.24971 37.9961C7.91561 36.9253 8.58152 35.8544 9.24742 34.8012C9.28342 34.8187 9.30142 34.8187 9.33741 34.8363C9.33741 34.9241 9.33741 34.9943 9.33741 35.082C9.33741 36.8726 9.33741 38.6807 9.33741 40.4713C9.33741 40.7521 9.4094 40.8399 9.69736 40.8224C10.2913 40.8048 10.8852 40.7872 11.4791 40.8224C11.8211 40.8399 11.875 40.7346 11.875 40.4186C11.8211 38.1541 11.8391 35.9071 11.8391 33.6601Z" fill="white"/>
<path d="M121.498 29.9214C121.264 29.9214 121.031 29.9214 120.797 29.9214C118.925 30.0443 117.413 30.8167 116.369 32.3615C115.793 33.2216 115.487 34.1696 115.469 35.2053C115.469 35.3808 115.469 35.5388 115.469 35.7144C115.631 39.2955 119.051 41.7356 122.704 40.7876C125.008 40.1908 126.556 38.2949 126.808 35.7846C126.808 35.5564 126.808 35.3282 126.808 35.1175C126.52 32.1684 124.45 30.1496 121.498 29.9214ZM121.157 38.5933C119.321 38.5933 118.007 37.2767 118.007 35.4159C118.007 33.6078 119.339 32.3088 121.174 32.3088C122.992 32.3088 124.288 33.6254 124.288 35.4511C124.288 37.2767 122.974 38.5933 121.157 38.5933Z" fill="white"/>
<path d="M17.7033 57.1133C17.7033 40.5946 17.7033 24.0933 17.7033 7.57458C17.7033 7.41659 17.6853 7.2586 17.7213 7.11816C17.5954 7.2586 17.6493 7.41659 17.6493 7.55703C17.6493 24.0758 17.6493 40.5946 17.6493 57.1309C17.6493 57.2889 17.5954 57.4469 17.7213 57.5873C17.6853 57.4293 17.7033 57.2713 17.7033 57.1133Z" fill="white"/>
<path d="M17.7404 7.11816C17.6864 7.27615 17.7224 7.43415 17.7224 7.57458C17.7224 24.0933 17.7224 40.5946 17.7224 57.1133C17.7224 57.2713 17.7044 57.4293 17.7404 57.5697C17.7404 57.5171 17.7404 57.4644 17.7404 57.3942C17.7404 40.6472 17.7404 23.8827 17.7404 7.11816Z" fill="white"/>
<path d="M121.496 29.9208C121.262 29.8155 121.028 29.8155 120.794 29.9208C121.028 29.8857 121.262 29.8857 121.496 29.9208Z" fill="white"/>
<path d="M120.794 29.9213C121.028 29.9213 121.262 29.9213 121.496 29.9213C121.262 29.8862 121.028 29.8862 120.794 29.9213Z" fill="white"/>
<path d="M126.825 35.1167C126.861 35.3449 126.861 35.5731 126.825 35.7838C126.933 35.5556 126.933 35.3449 126.825 35.1167Z" fill="white"/>
<path d="M126.825 35.1167C126.825 35.3449 126.825 35.5731 126.825 35.7838C126.861 35.5556 126.861 35.3449 126.825 35.1167Z" fill="white"/>
<path d="M115.468 35.2046C115.36 35.3801 115.36 35.5381 115.468 35.7137C115.432 35.5381 115.432 35.3626 115.468 35.2046Z" fill="white"/>
<path d="M115.466 35.6961C115.466 35.5205 115.466 35.3626 115.466 35.187C115.43 35.3626 115.43 35.5381 115.466 35.6961Z" fill="white"/>
<path d="M102.942 36.0477C102.942 34.8364 103.104 34.9944 101.863 34.9768C100.675 34.9768 99.4869 34.9768 98.299 34.9768C97.7051 34.9768 97.7051 34.9944 97.7051 35.5737C97.7051 35.8721 97.7051 36.1705 97.7051 36.469C97.6871 36.7674 97.8311 36.8727 98.1191 36.8727C98.731 36.8727 99.3429 36.8727 99.9368 36.8727C100.117 36.8727 100.333 36.8201 100.441 36.9781C100.459 36.9781 100.459 36.9781 100.477 36.9781C100.477 36.9956 100.459 36.9956 100.459 37.0132C100.459 37.0307 100.477 37.0307 100.477 37.0307C100.549 37.2414 100.405 37.4169 100.279 37.5749C99.5229 38.5228 98.497 38.7686 97.3272 38.6808C96.6073 38.6282 95.9414 38.4 95.3655 37.9611C94.6456 37.4169 94.2856 36.6796 94.2316 35.8019C94.1956 35.1348 94.2676 34.4853 94.5916 33.8709C95.6174 31.9048 98.317 31.7644 99.7568 32.9756C100.225 33.3794 100.225 33.3794 100.801 33.0634C101.125 32.8879 101.431 32.7299 101.737 32.5368C102.096 32.3261 102.096 32.2383 101.827 31.9224C100.999 30.992 99.9728 30.4127 98.731 30.1494C98.515 30.1142 98.299 30.1142 98.1371 29.9211C97.2372 29.886 96.3553 29.9387 95.4914 30.2371C95.3835 30.4653 95.1315 30.5004 94.9335 30.6058C93.2958 31.4484 92.2519 32.7474 91.964 34.538C91.568 37.0132 92.7199 39.225 95.0775 40.3485C95.2215 40.4187 95.4195 40.4363 95.4914 40.6294C96.3553 40.9103 97.2372 41.0156 98.1371 40.9629C98.317 40.7874 98.569 40.8049 98.785 40.7698C101.233 40.3836 102.942 38.4351 102.942 36.0477Z" fill="white"/>
<path d="M95.0972 40.3482C92.7395 39.2247 91.5877 37.0128 91.9836 34.5377C92.2716 32.7471 93.3154 31.4481 94.9532 30.6055C95.1512 30.5001 95.4032 30.465 95.5111 30.2368C92.5775 31.3252 91.2097 34.2568 92.0196 37.0304C92.5415 38.8034 93.7654 39.962 95.5111 40.6466C95.4572 40.4535 95.2592 40.436 95.0972 40.3482Z" fill="white"/>
<path d="M98.7462 30.1491C99.988 30.4124 101.014 30.9917 101.842 31.9221C102.13 32.2381 102.112 32.3259 101.752 32.5365C101.446 32.7296 101.122 32.8876 100.816 33.0632C100.258 33.3792 100.258 33.3616 99.7721 32.9754C98.3323 31.7641 95.6327 31.9046 94.6068 33.8707C94.2829 34.4851 94.2109 35.1346 94.2469 35.8017C94.2829 36.6794 94.6608 37.3991 95.3807 37.9609C95.9566 38.3997 96.6225 38.6279 97.3424 38.6806C98.4943 38.7684 99.5381 38.5226 100.294 37.5747C100.42 37.4167 100.564 37.2411 100.492 37.0305C100.492 37.0129 100.474 37.0129 100.474 37.0129C100.024 37.996 99.2501 38.4348 98.2603 38.5577C96.1186 38.8035 94.2828 37.5922 94.3548 35.3979C94.3908 34.0638 95.1287 32.9754 96.3346 32.5365C97.6304 32.0626 99.1242 32.3785 99.988 33.344C100.168 33.5371 100.276 33.5371 100.492 33.4143C100.996 33.1158 101.5 32.8174 102.04 32.5541C102.328 32.4137 102.31 32.2908 102.13 32.0626C101.122 30.7986 99.7721 30.1491 98.1883 29.9385C98.2963 30.114 98.5303 30.114 98.7462 30.1491Z" fill="white"/>
<path d="M101.986 39.1022C102.958 37.8909 103.12 36.4866 103.066 35.0296C103.048 34.7838 102.904 34.854 102.778 34.854C101.141 34.854 99.5028 34.854 97.8651 34.854C97.6311 34.854 97.5771 34.9242 97.5771 35.1349C97.5951 35.644 97.5951 36.153 97.5771 36.6621C97.5591 36.9605 97.6671 37.0132 97.9371 36.9957C98.7649 36.9781 99.5748 36.9957 100.439 36.9957C100.331 36.8377 100.115 36.8903 99.9348 36.8903C99.3229 36.8728 98.7109 36.8728 98.117 36.8903C97.8291 36.8903 97.6851 36.785 97.7031 36.4866C97.7211 36.1882 97.7031 35.8897 97.7031 35.5913C97.7031 34.9944 97.7211 34.9944 98.297 34.9944C99.4848 34.9944 100.673 34.9944 101.86 34.9944C103.102 34.9944 102.94 34.854 102.94 36.0653C102.94 38.4702 101.231 40.4188 98.8009 40.805C98.585 40.8401 98.333 40.8225 98.153 40.9981C99.6828 40.8401 101.015 40.3135 101.986 39.1022Z" fill="white"/>
<path d="M33.2373 40.6645C33.7413 40.647 33.7773 40.6294 33.7773 40.1379C33.7773 39.7868 33.7773 39.4357 33.7773 39.0846C33.7593 38.6282 33.7233 38.5756 33.2553 38.5756C31.9235 38.5756 30.5917 38.5756 29.2599 38.5756C28.2341 38.5756 28.2161 38.558 28.2161 37.5574C28.2161 36.4515 28.2161 36.4515 29.3679 36.4515C30.6637 36.4515 31.9415 36.4515 33.2373 36.4515C33.7413 36.4515 33.7773 36.3988 33.7773 35.9073C33.7773 35.5913 33.7773 35.2929 33.7773 34.9769C33.7773 34.38 33.7413 34.3449 33.1473 34.3449C31.8515 34.3449 30.5377 34.3449 29.2419 34.3449C28.2341 34.3449 28.2161 34.3449 28.2161 33.3619C28.2161 32.4139 28.2341 32.3788 29.2059 32.3788C30.5377 32.3788 31.8695 32.3788 33.2013 32.3788C33.7233 32.3788 33.7593 32.3261 33.7773 31.8171C33.7773 31.4309 33.7773 31.0622 33.7773 30.676C33.7773 30.3952 33.6513 30.2898 33.3633 30.2723C32.9854 30.2547 32.5714 30.3952 32.2295 30.1318C31.3476 30.1318 30.4657 30.1318 29.5839 30.1318C29.4039 30.3074 29.1879 30.2723 28.9719 30.2723C28.1441 30.2723 27.3162 30.2723 26.5063 30.2723C26.0204 30.2723 25.9844 30.3074 25.9844 30.7814C25.9844 33.9236 25.9844 37.0483 25.9844 40.1906C25.9844 40.6645 26.0204 40.6996 26.5063 40.6996C27.3342 40.6996 28.1621 40.6996 28.9719 40.6996C29.1879 40.6996 29.4039 40.6645 29.5839 40.8401C30.4657 40.8401 31.3476 40.8401 32.2295 40.8401C32.5354 40.5592 32.8954 40.6821 33.2373 40.6645Z" fill="white"/>
<path d="M33.5771 40.7868C33.8291 40.8044 33.937 40.7342 33.919 40.4533C33.901 39.9091 33.883 39.3825 33.919 38.8383C33.937 38.5048 33.8651 38.3819 33.4871 38.3994C31.8853 38.417 30.3016 38.3994 28.6998 38.417C28.4118 38.417 28.3218 38.3468 28.3398 38.0659C28.3578 37.6797 28.3578 37.2759 28.3398 36.8722C28.3218 36.5913 28.4118 36.5211 28.6998 36.5211C30.3016 36.5387 31.8853 36.5211 33.4871 36.5387C33.8111 36.5387 33.955 36.486 33.919 36.1349C33.883 35.6258 33.883 35.1167 33.919 34.6077C33.937 34.239 33.8111 34.1688 33.4511 34.1688C31.8673 34.1864 30.3016 34.1688 28.7178 34.1864C28.4118 34.1864 28.3218 34.0986 28.3398 33.8177C28.3578 33.5017 28.3758 33.1682 28.3398 32.8522C28.3038 32.5362 28.4118 32.4485 28.7358 32.466C30.3376 32.4836 31.9573 32.466 33.5591 32.4836C33.8111 32.4836 33.919 32.4485 33.901 32.1676C33.883 31.5883 33.883 31.009 33.901 30.4297C33.919 30.1664 33.8111 30.0962 33.5591 30.0962C33.1092 30.1137 32.6592 30.0962 32.2093 30.0786C32.5692 30.3244 32.9652 30.2015 33.3431 30.219C33.6311 30.2366 33.7571 30.3419 33.7571 30.6228C33.7571 31.009 33.7571 31.3776 33.7571 31.7638C33.7571 32.2729 33.7031 32.3256 33.1811 32.3256C31.8493 32.3256 30.5175 32.3256 29.1857 32.3256C28.2139 32.3256 28.1959 32.3431 28.1959 33.3086C28.1959 34.2917 28.1959 34.2917 29.2217 34.2917C30.5175 34.2917 31.8313 34.2917 33.1272 34.2917C33.7211 34.2917 33.7571 34.3268 33.7571 34.9236C33.7571 35.2396 33.7571 35.5381 33.7571 35.854C33.7571 36.3456 33.7031 36.3807 33.2171 36.3982C31.9213 36.3982 30.6435 36.3982 29.3477 36.3982C28.1959 36.3982 28.1959 36.3982 28.1959 37.5042C28.1959 38.5048 28.2139 38.5223 29.2397 38.5223C30.5715 38.5223 31.9033 38.5223 33.2351 38.5223C33.7031 38.5223 33.7571 38.575 33.7571 39.0314C33.7571 39.3825 33.7571 39.7336 33.7571 40.0847C33.7571 40.5762 33.7211 40.5937 33.2171 40.6113C32.8752 40.6288 32.5152 40.506 32.2093 40.7517C32.6772 40.7868 33.1272 40.7693 33.5771 40.7868Z" fill="white"/>
<path d="M28.9739 40.664C28.146 40.664 27.3181 40.664 26.5082 40.664C26.0223 40.664 25.9863 40.6289 25.9863 40.1549C25.9863 37.0127 25.9863 33.888 25.9863 30.7457C25.9863 30.2717 26.0223 30.2366 26.5082 30.2366C27.3361 30.2366 28.164 30.2366 28.9739 30.2366C29.1898 30.2366 29.4058 30.2717 29.5858 30.0962C28.4519 30.0962 27.3361 30.1137 26.2023 30.1137C25.9323 30.1137 25.8243 30.1664 25.8423 30.4648C25.8603 33.8002 25.8603 37.1355 25.8423 40.4533C25.8423 40.7342 25.9323 40.8044 26.2023 40.8044C27.3361 40.7869 28.4519 40.8044 29.5858 40.822C29.4238 40.6289 29.1898 40.664 28.9739 40.664Z" fill="white"/>
<path d="M56.6504 34.8364C54.9946 34.8364 53.3389 34.8364 51.7011 34.8364C51.4492 34.8364 51.4132 34.9242 51.4132 35.1348C51.4312 35.6439 51.4312 36.153 51.4132 36.6621C51.3952 36.9254 51.4852 36.9956 51.7551 36.9956C52.583 36.9781 53.4289 36.9956 54.3107 36.9956C54.2748 37.1009 54.2568 37.1361 54.2388 37.1712C53.6268 38.3298 52.583 38.6457 51.3772 38.5931C49.0375 38.4877 47.8677 36.785 48.2456 34.7838C48.4796 33.5725 49.2355 32.7474 50.4773 32.4315C51.7371 32.1155 52.907 32.3437 53.8068 33.3267C54.0048 33.5374 54.1308 33.5198 54.3467 33.397C54.8327 33.1161 55.3186 32.8352 55.8045 32.5719C56.1285 32.4139 56.1465 32.291 55.9305 32.0277C54.8507 30.7111 53.4289 30.0265 51.7011 29.9387C47.7597 29.7105 44.8261 33.239 45.852 36.943C46.5359 39.383 48.7136 40.9629 51.4852 40.9805C53.1049 40.998 54.5267 40.5241 55.6426 39.3128C56.7764 38.084 56.9744 36.5743 56.9204 34.9944C56.9024 34.8013 56.7764 34.8364 56.6504 34.8364Z" fill="white"/>
<path d="M74.4331 29.9209C71.2296 29.9209 68.7099 32.361 68.7279 35.4681C68.7459 38.5577 71.2476 40.9978 74.4151 40.9802C77.6007 40.9802 80.0843 38.5402 80.0843 35.4506C80.1023 32.361 77.6187 29.9209 74.4331 29.9209ZM74.6851 38.5753C72.7774 38.6981 71.3196 37.364 71.3016 35.6086C71.1576 33.8882 72.3994 32.4487 74.1632 32.3083C75.9449 32.1503 77.4387 33.3791 77.5827 35.1697C77.7267 36.9602 76.4668 38.4699 74.6851 38.5753Z" fill="white"/>
</g>
<defs>
<clipPath id="clip0">
<rect width="126" height="58" fill="white" transform="translate(0.895081 0.692871)"/>
</clipPath>
</defs>
</svg>
