<svg width="137" height="65" viewBox="0 0 137 65" fill="none" xmlns="http://www.w3.org/2000/svg">
<g clip-path="url(#clip0)">
<path d="M108.111 40.0952C108.111 40.1146 108.13 40.1146 108.13 40.1339C108.13 40.1146 108.15 40.1146 108.15 40.0952C108.15 40.0952 108.13 40.0952 108.111 40.0952Z" fill="white"/>
<path d="M118.447 15.4561C118.447 12.8411 118.447 10.2067 118.447 7.59167C118.447 6.85559 118.155 6.35196 117.475 6.0614C116.698 5.71273 115.921 5.36407 115.164 4.99603C111.764 3.40765 108.365 1.83864 104.965 0.230894C104.441 -0.0209216 103.916 -0.00155115 103.392 0.211524C100.924 1.2769 98.438 2.3229 95.9515 3.36891C92.8822 4.66673 89.8129 5.94518 86.7436 7.22363C83.8103 8.46334 80.8576 9.70305 77.9243 10.9428C75.127 12.1244 72.3297 13.2866 69.5324 14.4682C69.0273 14.6813 68.5611 14.8943 67.9395 14.6038C65.9386 13.674 63.8795 12.8604 61.8398 12.0081C58.5374 10.6135 55.235 9.23816 51.9326 7.86286C48.9799 6.62315 46.0077 5.36407 43.055 4.12436C40.0052 2.84591 36.9165 1.54809 33.8278 0.250265C33.2644 -0.00155115 32.7399 0.0178193 32.1766 0.269635C31.1082 0.792638 30.0203 1.29627 28.9325 1.7999C25.8632 3.21395 22.7939 4.64736 19.7052 6.04203C19.2001 6.27448 18.9282 6.62315 18.8311 7.14615C18.8311 25.6449 18.8311 44.1437 18.8311 62.6425C18.8311 62.7006 18.8311 62.7587 18.8311 62.8362C19.0447 63.766 19.4138 64.0372 20.424 64.0372C52.5154 64.0372 84.6262 64.0372 116.718 64.0566C117.805 64.0566 118.447 63.2817 118.447 62.352C118.447 46.72 118.447 31.088 118.447 15.4561ZM105.645 4.06625C105.645 3.8338 105.684 3.69821 105.956 3.8338C108.423 4.97666 110.87 6.11951 113.338 7.26237C113.376 7.28174 113.396 7.32048 113.454 7.37859C111.57 8.17278 109.724 8.96697 107.859 9.76116C107.238 10.0323 106.616 10.2648 106.014 10.5553C105.742 10.6716 105.645 10.6522 105.645 10.3423C105.645 8.23089 105.645 6.13889 105.645 4.06625ZM70.5037 17.18C80.9742 12.783 91.4447 8.38586 101.896 3.96939C102.789 3.60135 102.789 3.60135 102.789 4.56988C102.789 6.87496 102.789 9.18005 102.789 11.4851C102.789 11.8144 102.692 11.95 102.401 12.0662C91.7749 16.5796 81.1296 21.0929 70.5037 25.6256C70.154 25.7805 70.0569 25.7612 70.0763 25.3544C70.0957 24.0953 70.0763 22.8362 70.0763 21.5578C70.0763 20.3181 70.0957 19.0977 70.0569 17.858C70.0569 17.49 70.1734 17.3156 70.5037 17.18ZM34.4882 4.10499C34.4882 3.60135 34.4882 3.60135 34.9739 3.79506C45.561 8.25027 56.1674 12.7248 66.7545 17.1607C67.0847 17.2963 67.2207 17.4706 67.2013 17.8386C67.1819 20.3181 67.1819 22.7975 67.1819 25.2769C67.1819 25.4125 67.1819 25.5481 67.1819 25.7805C65.4141 25.0251 63.7241 24.3084 62.034 23.5917C53.0205 19.7757 43.9875 15.9403 34.935 12.105C34.6242 11.9694 34.4882 11.8338 34.4882 11.4658C34.5077 9.00571 34.4882 6.56503 34.4882 4.10499ZM26.0963 6.25511C27.8058 5.46092 29.5152 4.66673 31.2247 3.87254C31.5161 3.73695 31.6521 3.69821 31.6327 4.10499C31.6132 6.15826 31.6327 8.21152 31.6327 10.2842C31.6327 10.5166 31.6909 10.7297 31.3024 10.5553C28.8159 9.48997 26.3488 8.44397 23.7458 7.33985C24.6005 6.95244 25.3581 6.60378 26.0963 6.25511ZM24.1149 61.2091C24.0954 61.0154 24.2703 60.9573 24.3868 60.8798C27.3396 58.2648 30.2923 55.6692 33.2256 53.0541C33.4975 52.8023 33.7695 52.7055 34.1386 52.7055C57.1387 52.7055 80.1194 52.7055 103.12 52.7055C103.508 52.7055 103.799 52.8023 104.071 53.0735C107.044 55.7273 110.035 58.3423 113.007 60.996C113.066 61.0541 113.163 61.0929 113.163 61.2285C83.4995 61.2091 53.8169 61.2091 24.1149 61.2091ZM115.591 59.4464C115.008 58.9428 114.484 58.4972 113.979 58.0323C111.298 55.6498 108.598 53.2672 105.897 50.904C105.684 50.7103 105.626 50.5166 105.626 50.2454C105.626 48.3277 105.626 46.4101 105.626 44.4924C104.654 44.5311 103.702 44.4149 102.77 44.1244C102.77 45.8677 102.75 47.611 102.77 49.3738C102.77 49.7999 102.673 49.9161 102.245 49.9161C87.2099 49.8968 72.1743 49.8968 57.1581 49.8968C49.7958 49.8968 42.414 49.8968 35.0516 49.9161C34.5659 49.9161 34.4688 49.7805 34.4688 49.3156C34.4882 47.6498 34.4688 45.9839 34.4688 44.3181C33.517 44.3181 32.5651 44.3181 31.6132 44.3181C31.6132 46.3132 31.6132 48.3084 31.6132 50.3035C31.6132 50.5166 31.6132 50.6716 31.419 50.8459C28.1943 53.6934 24.9696 56.5408 21.6866 59.4464C21.6866 42.8072 21.6866 26.2067 21.6866 9.58683C22.386 9.87738 23.0853 10.1679 23.7846 10.4779C26.2517 11.5239 28.7188 12.5892 31.2053 13.6159C31.5355 13.7515 31.6132 13.9452 31.6132 14.2745C31.6132 20.3568 31.6132 26.4391 31.6132 32.5215C32.5651 32.5215 33.517 32.5215 34.4688 32.5215C34.4688 26.7103 34.4688 20.8992 34.4688 15.0106C35.4595 15.4367 36.3725 15.8241 37.2856 16.2115C47.4453 20.5311 57.6244 24.8314 67.7841 29.1704C68.4057 29.4415 68.969 29.3834 69.5712 29.1123C79.5367 24.8701 89.5215 20.628 99.5064 16.4052C100.575 15.9597 101.624 15.4948 102.77 15.0106C102.77 20.9379 102.77 26.8072 102.77 32.6764C103.702 32.3471 104.654 32.289 105.626 32.3277C105.626 26.3616 105.626 20.3762 105.626 14.4101C105.626 13.9452 105.742 13.7321 106.169 13.5578C109.161 12.3181 112.153 11.0396 115.125 9.76116C115.261 9.70305 115.397 9.58683 115.572 9.62557C115.591 26.2067 115.591 42.7878 115.591 59.4464Z" fill="white"/>
<path d="M12.4776 36.4343C12.4776 35.2527 12.4776 34.0711 12.4776 32.8702C12.4776 32.6765 12.5165 32.5021 12.2057 32.5215C11.4481 32.5409 10.671 32.5409 9.91341 32.5215C9.77743 32.5215 9.69973 32.5602 9.64145 32.6958C8.70901 34.2455 7.73772 35.7757 6.80528 37.3254C6.5916 37.674 6.53332 37.6547 6.33906 37.3254C5.42605 35.7951 4.47419 34.2842 3.56118 32.7539C3.44462 32.5602 3.30864 32.5215 3.11438 32.5215C2.43448 32.5409 1.73515 32.5409 1.05525 32.5215C0.76386 32.5215 0.686157 32.599 0.686157 32.8895C0.705583 33.7999 0.686157 34.7297 0.686157 35.6595C0.686157 38.4101 0.686157 41.1413 0.686157 43.8919C0.686157 44.26 0.783286 44.3375 1.13295 44.3181C1.73515 44.2794 2.35678 44.2794 2.95898 44.3181C3.34749 44.3375 3.46405 44.2212 3.46405 43.8338C3.44462 41.9549 3.46405 40.0953 3.46405 38.2164C3.46405 38.0808 3.48347 37.9258 3.5029 37.674C3.73601 38.0808 3.91084 38.3714 4.08567 38.6619C4.80443 39.8435 5.52318 41.0251 6.26136 42.2067C6.47505 42.5554 6.72758 42.536 6.94126 42.2067C7.13552 41.8774 7.32978 41.5481 7.52404 41.2188C8.24279 40.0372 8.96155 38.8556 9.6803 37.6934C9.71915 37.7128 9.73858 37.7128 9.77743 37.7321C9.77743 37.829 9.77743 37.9065 9.77743 38.0033C9.77743 39.9791 9.77743 41.9743 9.77743 43.9501C9.77743 44.26 9.85513 44.3568 10.1659 44.3375C10.807 44.3181 11.448 44.2987 12.0891 44.3375C12.4582 44.3568 12.5165 44.2406 12.5165 43.8919C12.4582 41.3932 12.4776 38.9137 12.4776 36.4343Z" fill="white"/>
<path d="M130.839 32.3083C130.586 32.3083 130.334 32.3083 130.081 32.3083C128.061 32.4439 126.429 33.2962 125.303 35.0008C124.681 35.95 124.351 36.996 124.331 38.1389C124.331 38.3326 124.331 38.5069 124.331 38.7006C124.506 42.6522 128.197 45.3447 132.14 44.2987C134.627 43.6401 136.298 41.5481 136.57 38.7781C136.57 38.5263 136.57 38.2745 136.57 38.042C136.259 34.7878 134.025 32.5602 130.839 32.3083ZM130.47 41.8774C128.488 41.8774 127.07 40.4246 127.07 38.3713C127.07 36.3762 128.508 34.9427 130.489 34.9427C132.451 34.9427 133.85 36.3955 133.85 38.4101C133.85 40.4246 132.432 41.8774 130.47 41.8774Z" fill="white"/>
<path d="M18.8093 62.3133C18.8093 44.0857 18.8093 25.8775 18.8093 7.64987C18.8093 7.47554 18.7899 7.3012 18.8288 7.14624C18.6928 7.3012 18.7511 7.47554 18.7511 7.6305C18.7511 25.8581 18.7511 44.0857 18.7511 62.3327C18.7511 62.507 18.6928 62.6814 18.8288 62.8363C18.7899 62.662 18.8093 62.4876 18.8093 62.3133Z" fill="white"/>
<path d="M18.8483 7.14624C18.79 7.32057 18.8289 7.49491 18.8289 7.64987C18.8289 25.8775 18.8289 44.0857 18.8289 62.3133C18.8289 62.4876 18.8094 62.662 18.8483 62.8169C18.8483 62.7588 18.8483 62.7007 18.8483 62.6232C18.8483 44.1438 18.8483 25.645 18.8483 7.14624Z" fill="white"/>
<path d="M130.838 32.3083C130.585 32.1921 130.333 32.1921 130.08 32.3083C130.333 32.2696 130.585 32.2696 130.838 32.3083Z" fill="white"/>
<path d="M130.08 32.3083C130.333 32.3083 130.585 32.3083 130.838 32.3083C130.585 32.2696 130.333 32.2696 130.08 32.3083Z" fill="white"/>
<path d="M136.588 38.0422C136.627 38.2941 136.627 38.5459 136.588 38.7783C136.704 38.5265 136.704 38.2941 136.588 38.0422Z" fill="white"/>
<path d="M136.588 38.0422C136.588 38.2941 136.588 38.5459 136.588 38.7783C136.627 38.5265 136.627 38.2941 136.588 38.0422Z" fill="white"/>
<path d="M124.331 38.1389C124.214 38.3326 124.214 38.507 124.331 38.7007C124.292 38.507 124.292 38.3133 124.331 38.1389Z" fill="white"/>
<path d="M124.33 38.6811C124.33 38.4874 124.33 38.3131 124.33 38.1194C124.291 38.3131 124.291 38.5068 124.33 38.6811Z" fill="white"/>
<path d="M110.812 39.0687C110.812 37.7321 110.987 37.9064 109.646 37.8871C108.364 37.8871 107.082 37.8871 105.8 37.8871C105.159 37.8871 105.159 37.9064 105.159 38.5457C105.159 38.8749 105.159 39.2042 105.159 39.5335C105.14 39.8628 105.295 39.9791 105.606 39.9791C106.266 39.9791 106.927 39.9791 107.568 39.9791C107.762 39.9791 107.995 39.921 108.112 40.0953C108.131 40.0953 108.131 40.0953 108.151 40.0953C108.151 40.1147 108.131 40.1147 108.131 40.134C108.131 40.1534 108.151 40.1534 108.151 40.1534C108.228 40.3858 108.073 40.5796 107.937 40.7539C107.121 41.7999 106.014 42.0711 104.751 41.9742C103.974 41.9161 103.255 41.6643 102.634 41.18C101.857 40.5796 101.468 39.766 101.41 38.7975C101.371 38.0614 101.449 37.3447 101.798 36.6667C102.906 34.4972 105.819 34.3423 107.374 35.6788C107.879 36.1243 107.879 36.1243 108.5 35.7757C108.85 35.582 109.18 35.4076 109.51 35.1946C109.899 34.9621 109.899 34.8653 109.607 34.5166C108.714 33.49 107.607 32.8507 106.266 32.5602C106.033 32.5214 105.8 32.5214 105.625 32.3084C104.654 32.2696 103.702 32.3277 102.77 32.657C102.653 32.9088 102.381 32.9476 102.167 33.0638C100.4 33.9936 99.273 35.427 98.9622 37.4028C98.5348 40.134 99.7781 42.5747 102.323 43.8144C102.478 43.8919 102.692 43.9113 102.77 44.1243C103.702 44.4343 104.654 44.5505 105.625 44.4924C105.819 44.2987 106.091 44.3181 106.325 44.2793C108.966 43.8532 110.812 41.703 110.812 39.0687Z" fill="white"/>
<path d="M102.342 43.8144C99.7968 42.5747 98.5535 40.134 98.9809 37.4027C99.2917 35.427 100.418 33.9935 102.186 33.0638C102.4 32.9475 102.672 32.9088 102.788 32.657C99.6219 33.858 98.1456 37.0928 99.0197 40.1533C99.5831 42.1098 100.904 43.3882 102.788 44.1437C102.73 43.9306 102.516 43.9112 102.342 43.8144Z" fill="white"/>
<path d="M106.284 32.5603C107.624 32.8509 108.731 33.4901 109.625 34.5167C109.936 34.8654 109.916 34.9623 109.528 35.1947C109.198 35.4078 108.848 35.5821 108.518 35.7758C107.915 36.1245 107.915 36.1051 107.391 35.679C105.837 34.3424 102.923 34.4974 101.816 36.6669C101.466 37.3448 101.388 38.0615 101.427 38.7976C101.466 39.7661 101.874 40.5603 102.651 41.1802C103.273 41.6644 103.991 41.9163 104.768 41.9744C106.012 42.0712 107.138 41.8 107.954 40.754C108.09 40.5797 108.246 40.386 108.168 40.1535C108.168 40.1342 108.149 40.1342 108.149 40.1342C107.663 41.2189 106.828 41.7032 105.759 41.8388C103.447 42.11 101.466 40.7734 101.544 38.3521C101.583 36.8799 102.379 35.679 103.681 35.1947C105.079 34.6717 106.692 35.0204 107.624 36.0857C107.818 36.2988 107.935 36.2988 108.168 36.1632C108.712 35.8339 109.256 35.5046 109.839 35.2141C110.149 35.0591 110.13 34.9235 109.936 34.6717C108.848 33.277 107.391 32.5603 105.681 32.3279C105.798 32.5216 106.051 32.5216 106.284 32.5603Z" fill="white"/>
<path d="M109.781 42.4391C110.83 41.1025 111.005 39.5529 110.947 37.9452C110.927 37.674 110.772 37.7515 110.636 37.7515C108.868 37.7515 107.1 37.7515 105.333 37.7515C105.08 37.7515 105.022 37.8289 105.022 38.0614C105.041 38.6231 105.041 39.1849 105.022 39.7466C105.002 40.0759 105.119 40.134 105.41 40.1147C106.304 40.0953 107.178 40.1147 108.11 40.1147C107.994 39.9403 107.761 39.9984 107.566 39.9984C106.906 39.9791 106.246 39.9791 105.604 39.9984C105.294 39.9984 105.138 39.8822 105.158 39.5529C105.177 39.2236 105.158 38.8943 105.158 38.565C105.158 37.9064 105.177 37.9064 105.799 37.9064C107.081 37.9064 108.363 37.9064 109.645 37.9064C110.985 37.9064 110.811 37.7515 110.811 39.088C110.811 41.7418 108.965 43.8919 106.343 44.318C106.11 44.3568 105.838 44.3374 105.643 44.5311C107.295 44.3568 108.732 43.7757 109.781 42.4391Z" fill="white"/>
<path d="M35.5742 44.1631C36.1181 44.1437 36.157 44.1243 36.157 43.5819C36.157 43.1945 36.157 42.8071 36.157 42.4197C36.1375 41.9161 36.0987 41.858 35.5936 41.858C34.1561 41.858 32.7186 41.858 31.2811 41.858C30.1738 41.858 30.1544 41.8386 30.1544 40.7345C30.1544 39.5141 30.1544 39.5141 31.3977 39.5141C32.7963 39.5141 34.1755 39.5141 35.5742 39.5141C36.1181 39.5141 36.157 39.456 36.157 38.9137C36.157 38.565 36.157 38.2357 36.157 37.887C36.157 37.2284 36.1181 37.1897 35.4771 37.1897C34.0784 37.1897 32.6603 37.1897 31.2617 37.1897C30.1738 37.1897 30.1544 37.1897 30.1544 36.1049C30.1544 35.0589 30.1738 35.0202 31.2228 35.0202C32.6603 35.0202 34.0978 35.0202 35.5353 35.0202C36.0987 35.0202 36.1375 34.9621 36.157 34.4003C36.157 33.9742 36.157 33.5674 36.157 33.1413C36.157 32.8313 36.021 32.7151 35.7102 32.6957C35.3022 32.6764 34.8554 32.8313 34.4863 32.5408C33.5345 32.5408 32.5826 32.5408 31.6308 32.5408C31.4365 32.7345 31.2034 32.6957 30.9703 32.6957C30.0767 32.6957 29.1831 32.6957 28.309 32.6957C27.7845 32.6957 27.7456 32.7345 27.7456 33.2575C27.7456 36.7248 27.7456 40.1727 27.7456 43.6401C27.7456 44.1631 27.7845 44.2018 28.309 44.2018C29.2025 44.2018 30.0961 44.2018 30.9703 44.2018C31.2034 44.2018 31.4365 44.1631 31.6308 44.3568C32.5826 44.3568 33.5345 44.3568 34.4863 44.3568C34.8166 44.0468 35.2051 44.1824 35.5742 44.1631Z" fill="white"/>
<path d="M35.9427 44.2986C36.2147 44.318 36.3312 44.2405 36.3118 43.9306C36.2924 43.3301 36.273 42.749 36.3118 42.1485C36.3312 41.7805 36.2535 41.6449 35.8456 41.6643C34.1167 41.6836 32.4072 41.6643 30.6783 41.6836C30.3675 41.6836 30.2704 41.6061 30.2898 41.2962C30.3092 40.8701 30.3092 40.4246 30.2898 39.979C30.2704 39.6691 30.3675 39.5916 30.6783 39.5916C32.4072 39.611 34.1167 39.5916 35.8456 39.611C36.1953 39.611 36.3507 39.5529 36.3118 39.1655C36.273 38.6037 36.273 38.042 36.3118 37.4802C36.3312 37.0735 36.1952 36.996 35.8067 36.996C34.0973 37.0154 32.4072 36.996 30.6977 37.0154C30.3675 37.0154 30.2704 36.9185 30.2898 36.6086C30.3092 36.2599 30.3287 35.8919 30.2898 35.5432C30.251 35.1945 30.3675 35.0977 30.7172 35.117C32.4461 35.1364 34.1944 35.117 35.9233 35.1364C36.1953 35.1364 36.3118 35.0977 36.2924 34.7878C36.273 34.1485 36.273 33.5093 36.2924 32.8701C36.3118 32.5795 36.1953 32.502 35.9233 32.502C35.4376 32.5214 34.952 32.502 34.4664 32.4827C34.8549 32.7539 35.2822 32.6183 35.6902 32.6376C36.001 32.657 36.137 32.7732 36.137 33.0832C36.137 33.5093 36.137 33.9161 36.137 34.3422C36.137 34.904 36.0787 34.9621 35.5153 34.9621C34.0778 34.9621 32.6403 34.9621 31.2028 34.9621C30.1538 34.9621 30.1344 34.9815 30.1344 36.0468C30.1344 37.1316 30.1344 37.1316 31.2417 37.1316C32.6403 37.1316 34.0584 37.1316 35.4571 37.1316C36.0981 37.1316 36.137 37.1703 36.137 37.8289C36.137 38.1776 36.137 38.5069 36.137 38.8555C36.137 39.3979 36.0787 39.4367 35.5542 39.456C34.1555 39.456 32.7763 39.456 31.3777 39.456C30.1344 39.456 30.1344 39.456 30.1344 40.6764C30.1344 41.7805 30.1538 41.7999 31.2611 41.7999C32.6986 41.7999 34.1361 41.7999 35.5736 41.7999C36.0787 41.7999 36.137 41.858 36.137 42.3616C36.137 42.749 36.137 43.1364 36.137 43.5238C36.137 44.0662 36.0981 44.0856 35.5542 44.1049C35.1851 44.1243 34.7966 43.9887 34.4664 44.2599C34.9714 44.2986 35.4571 44.2793 35.9427 44.2986Z" fill="white"/>
<path d="M30.9719 44.163C30.0783 44.163 29.1847 44.163 28.3105 44.163C27.786 44.163 27.7472 44.1242 27.7472 43.6012C27.7472 40.1339 27.7472 36.686 27.7472 33.2187C27.7472 32.6957 27.786 32.6569 28.3105 32.6569C29.2041 32.6569 30.0977 32.6569 30.9719 32.6569C31.205 32.6569 31.4381 32.6957 31.6324 32.502C30.4085 32.502 29.2041 32.5213 27.9803 32.5213C27.6889 32.5213 27.5724 32.5794 27.5918 32.9087C27.6112 36.5891 27.6112 40.2695 27.5918 43.9305C27.5918 44.2404 27.6889 44.3179 27.9803 44.3179C29.2041 44.2986 30.4085 44.3179 31.6324 44.3373C31.4575 44.1242 31.205 44.163 30.9719 44.163Z" fill="white"/>
<path d="M60.8472 37.7321C59.0601 37.7321 57.2729 37.7321 55.5051 37.7321C55.2332 37.7321 55.1943 37.829 55.1943 38.0614C55.2138 38.6231 55.2138 39.1849 55.1943 39.7466C55.1749 40.0372 55.272 40.1147 55.5634 40.1147C56.457 40.0953 57.37 40.1147 58.3219 40.1147C58.283 40.2309 58.2636 40.2696 58.2442 40.3084C57.5837 41.5868 56.457 41.9355 55.1555 41.8774C52.6301 41.7612 51.3675 39.8822 51.7754 37.674C52.0279 36.3374 52.8438 35.427 54.1842 35.0784C55.544 34.7297 56.8067 34.9815 57.778 36.0662C57.9916 36.2987 58.1276 36.2793 58.3607 36.1437C58.8852 35.8338 59.4097 35.5239 59.9342 35.2333C60.2839 35.059 60.3033 34.9234 60.0702 34.6328C58.9047 33.18 57.37 32.4246 55.5051 32.3277C51.2509 32.0759 48.0845 35.9694 49.1918 40.0566C49.9299 42.749 52.2805 44.4924 55.272 44.5118C57.0204 44.5311 58.555 44.0081 59.7594 42.6716C60.9832 41.3156 61.1969 39.6498 61.1386 37.9064C61.1192 37.6934 60.9832 37.7321 60.8472 37.7321Z" fill="white"/>
<path d="M80.0394 32.3083C76.5816 32.3083 73.862 35.0008 73.8815 38.4294C73.9009 41.8386 76.6011 44.5311 80.02 44.5117C83.4584 44.5117 86.1391 41.8192 86.1391 38.41C86.1586 35.0008 83.4778 32.3083 80.0394 32.3083ZM80.3114 41.858C78.2523 41.9936 76.6788 40.5214 76.6593 38.5844C76.5039 36.6861 77.8443 35.0977 79.748 34.9427C81.6712 34.7684 83.2835 36.1243 83.439 38.1001C83.5944 40.0759 82.2346 41.7418 80.3114 41.858Z" fill="white"/>
</g>
<defs>
<clipPath id="clip0">
<rect width="136" height="64" fill="white" transform="translate(0.667969 0.0566406)"/>
</clipPath>
</defs>
</svg>
