<svg width="172" height="30" viewBox="0 0 172 30" fill="none" xmlns="http://www.w3.org/2000/svg">
<g clip-path="url(#clip0)">
<path d="M69.9693 7.90917C68.7474 7.22379 67.4612 6.8811 66.0678 6.8811C64.1599 6.8811 62.4664 7.54506 61.0088 8.87298C59.3367 10.3937 58.5007 12.2999 58.5007 14.5916C58.5007 16.7334 59.251 18.5539 60.7301 20.0318C62.2092 21.531 64.0099 22.2807 66.1107 22.2807C67.5469 22.2807 68.8331 21.938 70.0336 21.2526C71.2126 20.5672 72.1558 19.6248 72.8418 18.4254C73.5277 17.226 73.8707 15.9195 73.8707 14.5488C73.8707 13.178 73.5277 11.8929 72.8418 10.7149C72.1344 9.53694 71.1697 8.59455 69.9693 7.90917ZM68.9832 17.6544C68.2115 18.4468 67.2682 18.8538 66.1107 18.8538C64.9531 18.8538 64.0099 18.4683 63.2596 17.6758C62.5093 16.8833 62.1449 15.8553 62.1449 14.5702C62.1449 13.3279 62.5308 12.3213 63.281 11.5288C64.0313 10.7363 64.996 10.3294 66.1321 10.3294C67.3111 10.3294 68.2543 10.7149 69.0046 11.5074C69.7549 12.2999 70.1408 13.3065 70.1408 14.5702C70.1193 15.8338 69.7549 16.8619 68.9832 17.6544Z" fill="white"/>
<path d="M99.4012 6.85962C97.2361 6.85962 95.4355 7.58783 93.9992 9.06567C92.563 10.5435 91.8341 12.4069 91.8341 14.6344C91.8341 16.819 92.563 18.6395 93.9992 20.0745C95.4355 21.531 97.3219 22.2378 99.6156 22.2378C101.095 22.2378 102.381 21.9807 103.453 21.4453C104.525 20.9098 105.446 20.1174 106.218 19.0036L103.131 17.5472C102.145 18.511 100.966 18.9822 99.5942 18.9822C98.4366 18.9822 97.4934 18.6824 96.7645 18.0612C96.0142 17.4401 95.5641 16.6262 95.3926 15.5768H107.183L107.204 14.87C107.204 12.4497 106.475 10.5007 105.039 9.02284C103.581 7.60925 101.695 6.85962 99.4012 6.85962ZM95.5426 12.7496C95.9499 11.85 96.4001 11.2075 96.8931 10.8434C97.6649 10.2651 98.5652 9.98665 99.5942 9.98665C100.537 9.98665 101.373 10.2437 102.081 10.7577C102.788 11.2717 103.281 11.9357 103.517 12.7496H95.5426Z" fill="white"/>
<path d="M135.737 7.24512L132.05 15.898L128.363 7.24512H124.612L130.85 21.895H133.229L139.446 7.24512H135.737Z" fill="white"/>
<path d="M147.011 6.85962C144.846 6.85962 143.045 7.58783 141.609 9.06567C140.173 10.5435 139.444 12.4069 139.444 14.6344C139.444 16.819 140.173 18.6395 141.609 20.0745C143.045 21.531 144.932 22.2378 147.225 22.2378C148.704 22.2378 149.991 21.9807 151.063 21.4453C152.134 20.9098 153.056 20.1174 153.828 19.0036L150.741 17.5472C149.755 18.511 148.576 18.9822 147.204 18.9822C146.046 18.9822 145.103 18.6824 144.374 18.0612C143.624 17.4401 143.174 16.6262 143.002 15.5768H154.792L154.814 14.87C154.814 12.4497 154.085 10.5007 152.649 9.02284C151.191 7.60925 149.326 6.85962 147.011 6.85962ZM143.174 12.7496C143.581 11.85 144.031 11.2075 144.524 10.8434C145.296 10.2651 146.196 9.98665 147.225 9.98665C148.169 9.98665 149.005 10.2437 149.712 10.7577C150.419 11.2717 150.912 11.9357 151.148 12.7496H143.174Z" fill="white"/>
<path d="M170.806 10.7149C170.12 9.53687 169.177 8.59448 167.955 7.88768C166.733 7.20231 165.447 6.85962 164.054 6.85962C162.146 6.85962 160.452 7.52358 158.995 8.8515C157.323 10.3722 156.487 12.2784 156.487 14.5701C156.487 16.7119 157.237 18.5324 158.716 20.0103C160.195 21.5095 161.996 22.2592 164.097 22.2592C165.533 22.2592 166.819 21.9165 168.02 21.2311C169.199 20.5457 170.142 19.6033 170.828 18.4039C171.514 17.2045 171.857 15.898 171.857 14.5273C171.814 13.1779 171.492 11.8929 170.806 10.7149ZM166.991 17.6543C166.219 18.4468 165.276 18.8537 164.118 18.8537C162.961 18.8537 162.017 18.4682 161.267 17.6757C160.517 16.8833 160.152 15.8552 160.152 14.5701C160.152 13.3279 160.538 12.3212 161.289 11.5287C162.039 10.7363 163.003 10.3293 164.14 10.3293C165.319 10.3293 166.262 10.7149 167.012 11.5073C167.762 12.2998 168.148 13.3064 168.148 14.5701C168.127 15.8338 167.741 16.8618 166.991 17.6543Z" fill="white"/>
<path d="M82.8316 6.90259C78.8015 6.90259 75.5217 10.201 75.5217 14.2276V21.8952H79.1016V14.2276C79.1016 12.1714 80.7736 10.4794 82.853 10.4794C84.9109 10.4794 86.6044 12.15 86.6044 14.2276V21.8952H90.1843V14.2276C90.1629 10.1795 86.8831 6.90259 82.8316 6.90259Z" fill="white"/>
<path d="M49.498 6.90259C47.2685 6.90259 45.2749 7.90924 43.9244 9.47275C42.5739 7.88782 40.5803 6.90259 38.3509 6.90259C34.3208 6.90259 31.041 10.201 31.041 14.2276V21.8952H34.6209V14.2276C34.6209 12.1714 36.293 10.4794 38.3723 10.4794C40.4303 10.4794 42.1238 12.15 42.1238 14.2276V21.8952H42.1881H45.7037H45.768V14.2276C45.768 12.1714 47.44 10.4794 49.5194 10.4794C51.5773 10.4794 53.2708 12.15 53.2708 14.2276V21.8952H56.8507V14.2276C56.8078 10.1795 53.528 6.90259 49.498 6.90259Z" fill="white"/>
<path d="M119.872 10.1151V14.9128C119.872 16.9689 118.2 18.6609 116.121 18.6609C114.063 18.6609 112.37 16.9903 112.37 14.9128V7.24512H108.79V14.9128C108.79 18.9608 112.069 22.2377 116.1 22.2377C117.472 22.2377 118.736 21.8522 119.851 21.2097V22.1521C119.851 24.2082 118.179 25.9002 116.1 25.9002V29.477C120.108 29.477 123.367 26.2429 123.409 22.2377V14.9128V10.1151V7.24512H119.83V10.1151H119.872Z" fill="white"/>
<path d="M14.6399 6.1958H26.3014L20.4492 21.7024H8.78772L14.6399 6.1958Z" fill="white"/>
<path d="M12.4546 0.498535H0.835938L8.81036 21.7024H20.429L12.4546 0.498535Z" fill="white"/>
<path d="M8.81079 21.681V21.7024H20.4294L14.6201 6.26001L8.81079 21.681Z" fill="white"/>
</g>
<defs>
<clipPath id="clip0">
<rect width="171" height="29" fill="white" transform="translate(0.835938 0.498535)"/>
</clipPath>
</defs>
</svg>
