<svg width="139" height="73" viewBox="0 0 139 73" fill="none" xmlns="http://www.w3.org/2000/svg">
<g clip-path="url(#clip0)">
<path d="M138.817 43.0587C138.059 44.5045 137.302 45.9504 136.518 47.3695C134.3 51.3056 131.676 54.9471 128.511 58.2137C122.804 64.1044 115.988 68.0404 107.982 69.9951C104.98 70.7448 101.923 71.1732 98.8396 71.3606C95.3774 71.5748 91.9152 71.4945 88.4531 71.1732C82.259 70.6109 76.2273 69.3257 70.2496 67.6656C62.4597 65.47 54.8862 62.6317 47.448 59.4722C46.4472 59.0438 45.4193 58.6154 44.4186 58.1602C43.9317 57.946 43.4178 57.9192 42.9039 58.0263C41.7949 58.2673 40.7941 58.6957 39.9827 59.499C39.1442 60.329 38.9819 61.882 39.604 62.8995C40.0097 63.5421 40.6859 63.7831 41.4162 63.5421C41.7137 63.4618 42.0113 63.3815 42.3359 63.3547C42.985 63.3279 43.3366 63.6224 43.3096 64.2651C43.2825 64.7738 43.1744 65.3093 42.958 65.7645C42.1736 67.5049 40.9023 68.8437 39.3335 69.9147C37.386 71.2803 35.1951 72.0032 32.7878 72.0568C30.7322 72.1103 28.7847 71.7087 27.0807 70.5306C25.1332 69.1918 23.9972 67.2907 23.5373 65.0148C22.9693 62.2301 23.1857 59.5257 24.484 56.9553C25.7012 54.5187 27.6757 52.8854 30.1101 51.7608C32.2469 50.7701 34.5189 50.2346 36.8721 50.0203C39.8474 49.7258 42.8227 49.9132 45.7169 50.6094C47.5832 51.0378 49.3413 51.7608 51.0995 52.4569C59.4033 55.6968 67.9235 58.4012 76.5248 60.7307C80.4468 61.7749 84.3958 62.6585 88.399 63.194C90.7522 63.5153 93.1054 63.7028 95.4585 63.8634C98.0822 64.0508 100.706 63.9705 103.33 63.7028C111.092 62.9798 118.233 60.4629 124.698 56.152C128.16 53.8493 131.297 51.1717 134.192 48.1996C135.165 47.1821 136.112 46.1379 137.059 45.0936C137.14 45.0133 137.221 44.9062 137.275 44.7455C137.194 44.7991 137.086 44.8258 137.005 44.8794C135.706 45.6023 134.381 46.245 132.893 46.4592C130.784 46.7537 129.107 45.2275 129.215 43.139C129.215 43.0051 129.215 42.8444 129.215 42.657C128.701 43.2193 128.241 43.7816 127.754 44.2903C127.132 44.9597 126.429 45.5756 125.563 45.9772C123.102 47.1286 121.046 46.2985 120.099 43.7816C119.991 43.4603 119.883 43.139 119.721 42.8177C119.64 43.5406 119.531 44.2368 119.45 44.9597C119.315 45.9237 118.855 46.4859 117.8 46.4592C116.962 46.4324 116.123 46.4592 115.285 46.4592C114.176 46.4592 113.392 45.763 113.31 44.6652C113.283 44.3171 113.31 43.9423 113.392 43.5942C113.797 41.9073 114.23 40.2204 114.663 38.5335C114.852 37.7838 114.582 37.4893 113.743 37.5161C113.581 38.1587 113.446 38.8281 113.283 39.4975C112.851 41.1576 112.283 42.7641 111.119 44.0761C109.253 46.1914 106.873 46.7537 104.168 46.1379C104.006 46.1111 103.816 46.1111 103.681 46.1646C102.87 46.4056 102.058 46.6198 101.193 46.4859C99.5969 46.2182 98.4879 44.9062 98.5691 43.2996C98.5691 43.1122 98.5691 42.9515 98.5691 42.6838C98.2716 43.0319 98.0281 43.3264 97.7576 43.6209C96.9733 44.5045 96.1889 45.3881 95.134 45.9237C94.3225 46.3521 93.484 46.5663 92.5914 46.5127C91.6177 46.4592 90.8333 46.0308 90.2382 45.2543C89.9678 44.9062 89.7514 44.5045 89.535 44.1565C88.967 44.5313 88.399 44.933 87.8039 45.2543C86.5867 45.9237 85.3155 46.4056 83.909 46.4592C83.1516 46.4859 82.4213 46.3253 81.7451 45.9504C80.5009 45.2543 79.9329 44.1297 80.2304 42.7373C80.5279 41.3986 80.8796 40.0865 81.1771 38.7478C81.2312 38.48 81.2853 38.2122 81.3123 37.9177C81.3394 37.4625 81.3123 37.0073 80.8796 36.7396C80.4197 36.4718 79.9329 36.5254 79.5001 36.7931C79.0132 37.0877 78.7428 37.5428 78.6075 38.0516C78.337 39.0691 78.0665 40.0865 77.8502 41.104C77.6338 42.0144 77.4444 42.9248 77.2551 43.8351C76.9576 45.1472 76.0109 45.9237 74.6314 45.9772C74.0634 46.004 73.4954 46.0308 72.9544 46.0308C72.2241 46.0308 71.5479 46.2717 70.9529 46.6466C70.8176 46.7269 70.6553 46.834 70.466 46.9411C70.6012 46.3253 70.7094 45.763 70.8447 45.2007C71.3586 42.8444 71.8996 40.4882 72.3864 38.1051C72.4405 37.8374 72.4405 37.5428 72.4135 37.2751C72.3594 36.7396 71.8996 36.445 71.3045 36.4986C70.5471 36.5789 70.0603 37.0609 69.8439 37.7303C69.5464 38.6406 69.357 39.5778 69.1136 40.4882C68.8161 41.6663 68.5456 42.8712 68.248 44.0494C68.0317 44.9597 67.4366 45.522 66.4899 45.7362C65.7326 45.9237 65.0023 45.9772 64.2449 45.9237C63.2712 45.8433 62.4056 46.0575 61.7024 46.7805C61.6483 46.834 61.5942 46.8608 61.513 46.9144C61.8647 45.3346 62.2163 43.7816 62.5679 42.2554C62.5409 42.2554 62.5409 42.2286 62.5138 42.2286C62.4327 42.3357 62.3515 42.4428 62.2974 42.5499C59.9713 45.8969 56.2116 46.9679 52.8035 46.1914C51.0454 45.7898 49.8282 44.692 48.9897 43.139C48.9356 43.0586 48.9086 42.9783 48.8274 42.8712C48.2053 43.728 47.5021 44.451 46.6636 45.0668C45.7439 45.763 44.7431 46.2985 43.553 46.4324C42.8227 46.5127 42.1195 46.4592 41.4433 46.1914C40.5507 45.8433 40.1179 45.1204 40.0097 44.21C39.9556 43.8084 39.9286 43.4067 39.8474 42.9515C39.604 43.3264 39.4146 43.6477 39.2253 43.969C38.7114 44.7455 38.0893 45.4417 37.2778 45.9237C36.223 46.5663 35.0869 46.6734 33.9509 46.2717C32.6796 45.8433 32.0846 44.8259 31.76 43.5942C31.733 43.4871 31.7059 43.38 31.6789 43.2461C31.2461 43.6477 30.8404 44.0761 30.4076 44.451C28.5683 45.9772 26.4045 46.5395 24.0242 46.4056C21.3194 46.2717 19.399 44.8259 18.5064 42.2554C18.4793 42.2018 18.4523 42.175 18.4252 42.0679C17.9654 42.9783 17.3433 43.728 16.613 44.3974C15.6122 45.3078 14.5032 46.0575 13.1238 46.3788C12.3664 46.5395 11.6091 46.5127 10.8517 46.2985C9.87799 46.004 9.25589 45.2543 9.17474 44.2368C9.14769 43.8351 9.0936 43.4335 9.01245 42.9248C8.90426 43.0854 8.85016 43.1658 8.79607 43.2729C8.28215 44.1832 7.68709 45.0133 6.8486 45.6291C5.73962 46.4592 4.52245 46.6734 3.19709 46.2717C1.87172 45.8701 1.24961 44.8258 0.925036 43.5674C0.87094 43.3532 0.843891 43.139 0.789795 42.9248C0.789795 42.4428 0.789795 41.9341 0.789795 41.4521C0.87094 41.104 0.897988 40.7292 1.00618 40.3811C1.19552 39.7652 1.466 39.1762 2.22335 39.1226C2.54793 39.0958 2.89956 39.2029 3.22413 39.31C3.57576 39.4439 3.92739 39.6581 4.27901 39.8188C4.79293 40.0598 5.3339 40.0598 5.84781 39.7652C6.76745 39.2565 7.30841 38.4532 7.36251 37.409C7.41661 36.3112 6.63221 35.5882 5.46914 35.5614C5.09046 35.5614 4.73883 35.5614 4.36016 35.5614C3.73805 35.5347 3.46757 35.2401 3.49462 34.6511C3.52166 34.1423 3.711 33.6871 4.06263 33.3123C5.11751 32.1877 6.41582 31.4647 7.98462 31.3576C9.47227 31.2238 10.2837 31.7593 10.8788 33.1248C10.9599 33.339 11.0411 33.5265 11.1493 33.7942C11.2304 33.6604 11.3116 33.58 11.3656 33.4729C12.15 32.4287 13.0697 31.5451 14.4221 31.2773C15.6934 31.0096 16.8564 31.2505 17.8031 32.1877C18.5064 32.8839 18.6416 34.0888 18.1818 34.8653C17.9113 35.3472 17.5056 35.5882 16.9376 35.5347C16.613 35.5079 16.3155 35.4543 16.0179 35.4008C14.368 35.1598 12.9615 36.4718 13.1238 38.0784C13.232 39.2029 14.4491 40.1133 15.6663 39.9259C16.1261 39.8723 16.5589 39.7117 17.0187 39.6046C17.4244 39.4975 17.8302 39.4171 18.29 39.3368C18.3441 39.0958 18.3711 38.7745 18.4523 38.48C19.3178 34.6511 22.4284 31.8664 26.3504 31.438C28.1896 31.2238 29.9207 31.4647 31.4354 32.5626C32.9231 33.6336 33.7345 35.1062 33.7886 36.927C33.8157 37.6499 33.7345 38.3729 33.7075 39.1494C34.2484 39.3904 34.8435 39.6849 35.4386 39.9259C35.9525 40.1133 36.4393 40.0062 36.8992 39.7117C37.6836 39.1762 38.1704 38.4532 38.2516 37.4893C38.3327 36.4183 37.5213 35.6418 36.3582 35.5882C36.0066 35.5882 35.6549 35.5882 35.3304 35.5882C34.6001 35.5882 34.3025 35.1866 34.4107 34.4904C34.4919 33.9549 34.7353 33.4997 35.114 33.1516C36.1418 32.1877 37.3319 31.4915 38.7655 31.3844C40.4695 31.2505 41.1457 31.8128 41.6867 33.0177C41.7949 33.2587 41.876 33.4997 42.0113 33.7942C42.0924 33.6604 42.1736 33.58 42.2277 33.4997C43.0121 32.4554 43.9317 31.5718 45.2841 31.3041C46.4472 31.0631 47.5291 31.2238 48.4488 32.027C49.3143 32.75 49.5577 34.062 49.0168 34.9456C48.7463 35.4008 48.3676 35.6418 47.7996 35.5882C47.475 35.5614 47.1775 35.5079 46.88 35.4543C45.4464 35.2401 44.0669 36.2576 43.9317 37.5964C43.7965 39.1762 45.2571 40.1401 46.5013 39.9527C47.0963 39.8723 47.6644 39.6849 48.2324 39.4975C48.3135 39.4707 48.3947 39.3636 48.3947 39.2565C48.9356 35.3205 51.7757 32.2948 55.6977 31.5183C57.4288 31.1702 59.1598 31.2238 60.7827 32.0806C62.5679 33.0177 63.5687 34.4636 63.8662 36.5521C63.9203 36.3647 63.9744 36.2308 63.9744 36.1237C64.0285 35.7221 64.1097 35.2937 64.1638 34.892C64.2179 34.2227 63.9744 33.7139 63.3523 33.3658C63.4335 33.2855 63.4876 33.2052 63.5417 33.1516C64.7318 32.1341 66.0842 31.438 67.653 31.197C68.0858 31.1434 68.5185 31.1167 68.9513 31.197C69.8439 31.3309 70.4119 31.9467 70.6283 32.9642C70.6553 33.0981 70.6824 33.2319 70.7094 33.4194C70.8176 33.339 70.9258 33.2855 71.007 33.2319C71.8725 32.6964 72.711 32.1074 73.6036 31.6522C74.6044 31.1434 75.7134 31.0363 76.8223 31.2505C77.8502 31.4647 78.5805 32.0538 79.0403 32.9642C79.1214 33.0981 79.1755 33.2587 79.2567 33.4194C79.4731 33.2319 79.6894 33.0713 79.9058 32.9106C81.3394 31.8396 82.8811 31.1434 84.7204 31.1702C85.1261 31.1702 85.5589 31.2505 85.9646 31.3576C87.6146 31.8396 88.4531 33.1516 88.1555 34.8385C87.9391 36.1237 87.5875 37.409 87.317 38.6942C87.1818 39.3904 87.0466 40.0865 86.9384 40.7827C86.9113 40.9969 86.9113 41.2379 86.9654 41.4521C87.0736 42.0144 87.6146 42.3357 88.1826 42.2554C88.2367 42.2554 88.3178 42.2286 88.3719 42.2286C89.0211 42.0412 89.0211 42.0412 89.0211 41.3718C89.0211 38.4532 90.1842 35.9899 92.1316 33.8746C93.2676 32.6429 94.6201 31.7861 96.297 31.4915C98.1363 31.1702 99.7863 31.5451 101.112 32.9106C101.139 32.9374 101.166 32.9642 101.22 33.0177C101.626 32.7232 102.031 32.4554 102.437 32.1609C103.005 31.7861 103.627 31.4647 104.303 31.4112C104.655 31.3844 105.034 31.4112 105.385 31.5183C106.116 31.7325 106.494 32.2948 106.359 33.0445C106.143 34.2494 105.845 35.4276 105.602 36.6325C105.304 38.0248 104.98 39.4171 104.682 40.8095C104.547 41.4521 104.736 41.9608 105.25 42.2554C105.439 42.3625 105.575 42.3625 105.737 42.2018C106.278 41.6663 106.684 41.0237 106.873 40.3007C107.306 38.7478 107.684 37.168 108.09 35.615C108.198 35.2134 108.225 34.8117 108.252 34.4101C108.279 33.821 108.063 33.5533 107.414 33.3391C107.495 33.3123 107.576 33.2587 107.63 33.2319C108.956 32.2145 110.416 31.4915 112.093 31.3844C112.824 31.3309 113.554 31.3309 114.284 31.3309C116.15 31.3309 118.017 31.3309 119.856 31.3309C121.263 31.3309 121.993 32.2412 121.695 33.6068C121.506 34.4369 121.29 35.2401 121.154 36.097C121.208 36.0166 121.263 35.9363 121.317 35.856C122.263 34.4101 123.345 33.0981 124.914 32.2948C126.564 31.438 128.295 31.1702 130.08 31.8664C130.648 32.0806 131.108 32.509 131.622 32.8571C131.73 32.9106 131.784 33.0177 131.893 33.0981C132.325 32.8035 132.731 32.509 133.137 32.2145C133.921 31.7057 134.787 31.3309 135.76 31.5183C136.788 31.679 137.221 32.3751 137.005 33.3658C136.437 35.856 135.896 38.3461 135.328 40.863C135.084 41.9341 135.869 42.6302 136.923 42.3089C137.086 42.2554 137.275 42.2018 137.437 42.1215C137.978 41.8537 138.438 41.9608 138.817 42.4428C138.817 42.5767 138.817 42.8177 138.817 43.0587ZM58.3484 37.1144C58.3484 36.0434 58.0238 35.4543 57.4829 35.2401C56.9148 34.9991 56.1845 35.1866 55.7518 35.6953C55.1838 36.3915 54.8862 37.2215 54.9944 38.1319C55.0756 38.8549 55.6436 39.3636 56.3198 39.31C56.7526 39.2833 57.1583 39.1226 57.4829 38.8013C58.0238 38.239 58.3214 37.5696 58.3484 37.1144ZM24.8627 37.8642C24.8357 38.6942 25.4578 39.3904 26.2151 39.31C26.6479 39.2833 27.0536 39.1226 27.3782 38.8013C27.9462 38.239 28.2437 37.5428 28.2708 36.7663C28.2978 35.5614 27.27 34.7849 26.2151 35.2937C25.9176 35.4276 25.6471 35.6953 25.4578 35.9631C25.052 36.5254 24.8898 37.168 24.8627 37.8642ZM99.7051 36.7663C99.7322 35.856 99.4346 35.4276 98.8396 35.3472C98.1904 35.2401 97.6224 35.4008 97.1626 35.9095C96.6487 36.4718 96.3782 37.1412 96.3782 37.8909C96.3511 38.8281 96.8921 39.3368 97.7576 39.2565C98.1363 39.2297 98.488 39.0691 98.7584 38.7745C99.3535 38.1587 99.6781 37.4357 99.7051 36.7663ZM130.351 36.7931C130.351 35.856 130.08 35.4543 129.512 35.3472C128.89 35.2401 128.322 35.4008 127.889 35.856C127.348 36.445 127.051 37.1412 127.051 37.9177C127.024 38.8281 127.565 39.3636 128.43 39.2297C128.782 39.1762 129.134 39.0155 129.404 38.7745C130.026 38.2122 130.297 37.4357 130.351 36.7931Z" fill="white"/>
<path d="M39.4941 0.0566456C40.1162 0.190524 40.7384 0.244076 41.3334 0.431506C42.7399 0.886694 44.1194 1.39543 45.4988 1.90417C46.689 2.33259 47.8791 2.78777 49.1503 2.89488C49.7995 2.94843 50.4487 2.8681 51.0978 2.84132C51.1249 2.84132 51.1519 2.84132 51.206 2.81455C52.315 2.70745 52.9101 3.43039 52.5584 4.47465C52.4773 4.76918 52.3691 5.06371 52.2879 5.35824C51.747 7.01834 51.747 8.73199 51.8011 10.4456C51.8281 11.356 51.9093 12.2396 51.9634 13.15C51.9634 13.2571 51.9904 13.391 52.0445 13.5249C52.0986 13.4445 52.1527 13.3374 52.2068 13.2571C52.9101 12.0254 53.5592 10.7402 54.3707 9.56204C56.1558 6.91124 58.4279 4.68885 61.1327 2.94843C62.0794 2.33259 63.1343 1.90417 64.2973 1.82385C64.7842 1.79707 65.217 1.90417 65.5686 2.17193C65.7039 2.27903 65.8391 2.52002 65.8661 2.70745C65.9473 3.29651 65.6498 3.80525 65.3793 4.31399C64.081 6.56315 63.0531 8.9462 62.2687 11.4096C61.7007 13.2571 61.4843 15.1582 61.7278 17.086C61.7819 17.568 61.9442 18.05 62.1876 18.4784C62.5663 19.1745 63.4048 19.2549 63.9998 18.7193C64.081 18.639 64.108 18.5051 64.1351 18.3713C64.8383 16.1221 66.0825 14.2478 67.9218 12.7751C69.5988 11.4631 71.4922 10.9544 73.6019 11.4631C74.5216 11.6773 75.2789 12.2128 75.9281 12.909C76.3609 12.6145 76.7666 12.3199 77.1723 12.0254C77.8755 11.5702 78.6059 11.2489 79.4714 11.2757C79.6878 11.2757 79.9042 11.3292 80.0935 11.3828C80.8509 11.6238 81.2295 12.1861 81.0672 12.9626C80.8509 14.0336 80.6074 15.1046 80.364 16.2024C80.0394 17.6751 79.7148 19.1478 79.3632 20.6204V20.6472C79.228 21.3701 79.3091 21.5308 80.0124 21.7718C80.1205 21.7986 80.2287 21.8521 80.3099 21.8789C81.2295 22.0931 81.6353 21.9324 82.0139 21.0756C82.609 19.7368 82.9336 18.3177 83.2852 16.8986C83.3934 16.4702 83.4745 16.0418 83.5827 15.6134C83.8262 14.6494 83.6639 13.8194 82.7172 13.2035C83.3122 12.8287 83.8532 12.4538 84.3942 12.1325C85.2868 11.597 86.2334 11.1418 87.3154 11.0347C87.9916 10.9812 88.6407 11.0079 89.2899 11.3025C89.8038 11.5167 90.1284 11.8648 90.2095 12.4003C90.2907 12.8822 90.3448 13.3642 90.3718 13.8729C90.4259 15.0243 90.4259 16.1489 90.48 17.3002C90.48 17.3806 90.5071 17.4609 90.5071 17.6215C90.9398 16.8986 91.3185 16.2024 91.7242 15.5598C92.3463 14.6227 92.9414 13.6587 93.6176 12.7751C94.3209 11.838 95.2676 11.3025 96.4577 11.2489C97.3773 11.2221 98.324 11.1954 99.2436 11.1954C99.9198 11.1954 100.001 11.7577 99.8387 12.2664C99.2436 14.0336 98.6486 15.774 98.1076 17.5412C97.7019 18.8265 97.6478 20.1652 97.5667 21.4773C97.5396 21.9592 97.6748 22.0128 98.1617 21.9057C98.6486 21.7718 98.5133 21.4505 98.5133 21.1559C98.5404 18.9068 99.2707 16.8986 100.569 15.0778C101.462 13.8462 102.489 12.7484 103.869 12.0522C105.573 11.2221 107.331 10.9544 109.116 11.7577C109.63 11.9719 110.036 12.3735 110.496 12.6948C110.577 12.7484 110.658 12.8287 110.712 12.909C111.307 12.5074 111.875 12.1057 112.497 11.7577C113.146 11.3828 113.85 11.2221 114.58 11.3292C115.635 11.5167 116.068 12.1861 115.851 13.2035C115.283 15.6937 114.742 18.1838 114.174 20.7008C113.931 21.7718 114.715 22.468 115.77 22.1466C116.041 22.0663 116.311 21.9592 116.609 21.8789C117.204 21.7182 117.745 22.1199 117.636 22.7089C117.582 23.0838 117.366 23.4587 117.15 23.7532C116.663 24.369 115.986 24.7439 115.31 25.092C114.147 25.681 112.984 26.1898 111.659 26.3504C109.63 26.5914 107.98 25.1188 108.061 23.0838C108.061 22.9231 108.061 22.7625 108.061 22.5483C107.953 22.6554 107.899 22.7357 107.818 22.7893C107.142 23.5122 106.52 24.2619 105.816 24.9313C104.951 25.7614 103.896 26.2433 102.706 26.3504C101.272 26.4843 100.217 25.8953 99.46 24.7171C99.2977 24.4494 99.1625 24.1816 99.0273 23.9138C98.5133 24.4761 98.0265 25.0384 97.4855 25.5472C96.8634 26.163 96.1331 26.5646 95.2405 26.645C94.3479 26.7253 93.5906 26.3504 93.1848 25.5472C92.7521 24.6903 92.698 23.78 92.7521 22.8696C92.8603 21.4505 93.293 20.0849 93.6988 18.7193C93.7529 18.5587 93.7799 18.398 93.834 18.2374C93.8069 18.2106 93.7799 18.2106 93.7529 18.1838C93.6988 18.2642 93.6176 18.3177 93.5635 18.398C93.1578 19.121 92.7791 19.8707 92.3734 20.6204C91.7513 21.7986 91.021 22.8964 90.1284 23.8603C89.5604 24.4761 88.8301 24.8242 87.9104 24.7171C87.4506 24.6636 87.3695 24.61 87.3695 24.1548C87.3695 23.4854 87.4506 22.816 87.4506 22.1466C87.4777 20.8614 87.5047 19.5762 87.5588 18.2909C87.5318 18.2909 87.4777 18.2909 87.4506 18.2642C87.4236 18.3445 87.3695 18.4248 87.3424 18.5051C87.0719 19.4958 86.8015 20.4865 86.558 21.4773C86.2064 22.8964 85.5572 24.1281 84.313 24.9849C83.5557 25.4936 82.8254 26.0291 81.9328 26.2433C81.0943 26.4308 80.2828 26.2701 79.4444 26.163C79.2009 26.1362 78.9845 26.0559 78.7411 26.0291C78.5518 26.0024 78.3354 26.0024 78.146 26.0559C77.3616 26.2701 76.6043 26.4575 75.7928 26.3237C74.3052 26.1095 73.1962 24.8778 73.1421 23.4051C73.1421 23.1373 73.1421 22.8696 73.1421 22.5483C73.0069 22.6822 72.9257 22.7893 72.8446 22.8696C72.2495 23.5122 71.6545 24.2084 71.0324 24.8242C70.1398 25.7078 69.0578 26.2433 67.7866 26.3772C66.3801 26.5111 65.2981 25.9756 64.5678 24.7974C64.2703 24.3423 64.081 23.8335 63.8646 23.3248C63.54 23.7264 63.1884 24.1816 62.8097 24.5832C61.6737 25.8149 60.2942 26.5914 58.5631 26.6182C57.2919 26.645 56.3452 26.0559 55.7231 24.9849C55.128 23.9674 54.9387 22.8428 54.9116 21.6915C54.8575 19.7101 55.3444 17.8357 55.8313 15.9347C56.3452 13.9265 57.4271 12.1593 58.3467 10.3118C58.4008 10.1779 58.482 10.0708 58.482 9.91012C58.2926 10.0976 58.1033 10.2582 57.914 10.4456C56.5886 11.8112 55.6149 13.4445 54.7764 15.1314C53.9379 16.7647 53.1805 18.4248 52.2879 20.0314C51.747 20.9953 51.0708 21.8789 50.3946 22.7893C50.1511 23.0838 49.8266 23.3516 49.4749 23.539C48.7176 23.9406 47.9332 23.5122 47.9332 22.6554C47.9602 21.3434 48.0684 20.0314 48.0955 18.7193C48.1496 17.3806 48.1496 16.0418 48.1496 14.703C48.1496 13.1768 48.1496 11.6773 48.1496 10.0976C48.0955 10.2314 48.0143 10.3118 47.9873 10.4189C47.257 12.079 46.7701 13.8194 46.3103 15.5598C45.8234 17.4073 45.3906 19.2549 44.7956 21.0756C44.1194 23.2712 42.9834 25.2259 41.3334 26.8324C39.2507 28.8941 36.7623 30.2061 33.814 30.6078C32.0018 30.8488 30.2166 30.822 28.4855 30.2061C25.7807 29.2154 23.8062 27.475 23.2111 24.5565C22.589 21.4505 23.4275 18.7729 25.8618 16.6844C28.3232 14.5423 31.2174 13.7926 34.4361 14.2478C34.7877 14.3013 35.1394 14.462 35.4369 14.6494C36.032 15.0243 36.032 15.6937 35.491 16.1221C35.3828 16.2024 35.2746 16.3095 35.1664 16.3631C34.2197 16.9521 34.355 18.2106 34.923 18.7997C35.6803 19.6029 36.627 19.7101 37.6549 19.4423C39.0073 19.0942 39.9269 18.2106 40.5761 17.0592C41.4687 15.4527 42.2531 13.8194 43.0645 12.1593C43.8759 10.4724 44.6062 8.70521 45.7152 7.179C45.8775 6.96479 46.0398 6.72381 46.2291 6.45605C45.2554 6.18829 44.3358 5.86698 43.335 5.81343C42.6047 5.78666 41.8744 5.81343 41.1982 6.16152C40.6031 6.45605 40.3326 6.99157 40.4408 7.63418C40.522 8.0626 40.7654 8.30358 41.2252 8.30358C41.4416 8.30358 41.6309 8.30358 41.8473 8.30358C42.3071 8.30358 42.5235 8.57134 42.4694 9.02652C42.4153 9.56204 42.1449 9.99045 41.7662 10.3653C41.5498 10.5795 41.3064 10.8205 41.0359 10.9812C39.5753 11.9719 37.9794 12.668 36.2213 12.9358C34.0304 13.2571 31.9206 12.1325 30.8387 10.044C29.4863 7.44675 30.0814 4.42109 32.3805 2.41291C33.9222 1.07412 35.6803 0.244076 37.736 0.0298699C37.8171 0.0298699 37.8712 0.00309412 37.9524 -0.0236816C38.5204 0.0566456 39.0073 0.0566456 39.4941 0.0566456ZM71.0324 17.5412C71.0324 18.7461 71.4922 19.2816 72.3577 19.1745C72.7093 19.121 73.088 18.9871 73.3315 18.7461C74.0077 18.1303 74.3052 17.327 74.3322 16.4166C74.3593 15.774 74.0347 15.3724 73.5208 15.2653C72.9257 15.1582 72.3577 15.2653 71.8979 15.7205C71.3569 16.3095 71.0594 17.0057 71.0324 17.5412ZM109.197 16.497C109.197 15.8008 108.954 15.3992 108.386 15.2921C107.71 15.1582 107.142 15.3188 106.682 15.8276C106.168 16.3899 105.897 17.0593 105.897 17.8357C105.897 18.88 106.628 19.4423 107.602 19.0942C107.899 18.9871 108.17 18.7997 108.386 18.5587C108.9 17.9964 109.17 17.3002 109.197 16.497Z" fill="white"/>
</g>
<defs>
<clipPath id="clip0">
<rect width="138" height="72" fill="white" transform="translate(0.815369 0.0566406)"/>
</clipPath>
</defs>
</svg>
