<svg width="160" height="63" viewBox="0 0 160 63" fill="none" xmlns="http://www.w3.org/2000/svg">
<g clip-path="url(#clip0)" filter="url(#filter0_d)">
<path d="M70.5184 9.20068C70.5184 9.20068 70.5184 9.20068 73.7032 9.20068C74.8613 9.20068 75.4403 9.77668 75.4403 11.0727C75.4403 11.0727 75.4403 11.0727 75.4403 15.6807C75.4403 15.6807 75.4403 15.6807 81.7375 15.6807C81.7375 15.6807 81.7375 15.6807 81.7375 11.0727C81.7375 9.77668 82.3165 9.20068 83.6194 9.20068C83.6194 9.20068 83.6194 9.20068 86.6594 9.20068C86.6594 9.20068 86.6594 9.20068 86.6594 12.2247C86.6594 12.2247 86.6594 12.2247 85.3565 12.2247L85.2118 12.3687C85.2118 12.3687 85.2118 12.3687 85.2118 25.2567C85.2118 25.2567 85.2118 25.2567 81.7375 25.2567C81.7375 25.2567 81.7375 25.2567 81.7375 18.7767C81.7375 18.7767 81.7375 18.7767 75.4403 18.7767C75.4403 18.7767 75.4403 18.7767 75.4403 25.2567C75.4403 25.2567 75.4403 25.2567 71.9661 25.2567C71.9661 25.2567 71.9661 25.2567 71.9661 12.3687C71.9661 12.3687 71.966 12.2247 71.8213 12.2247C71.8213 12.2247 71.8213 12.2247 70.5184 12.2247C70.5184 12.2247 70.5184 12.2247 70.5184 9.20068Z" fill="white"/>
<path d="M95.8518 8.9126H95.9241V12.2246H95.8518C93.246 12.2246 91.2194 14.3846 91.2194 17.1206C91.2194 20.0006 93.246 22.3046 95.8518 22.3046H95.9241V25.6166H95.8518C91.2194 25.6166 87.3832 21.8726 87.3832 17.1926C87.4556 12.5126 91.2194 8.9126 95.8518 8.9126Z" fill="white"/>
<path d="M95.924 8.9126L97.5163 9.0566C101.353 9.7766 104.248 13.0166 104.248 17.0486C104.248 21.1526 101.353 24.5366 97.5163 25.3286L95.924 25.4726V22.1606L97.7335 21.8006C99.4706 21.0086 100.701 19.2086 100.701 17.0486C100.701 15.0326 99.4706 13.3046 97.7335 12.5846L95.924 12.2246V8.9126Z" fill="white"/>
<path d="M105.044 9.20068C105.044 9.20068 105.044 9.20068 109.893 9.20068H112.209V12.2247H111.992C111.703 12.2247 111.124 12.2247 109.965 12.2247C109.965 12.2247 109.965 12.2247 109.965 15.5367C109.965 15.5367 109.965 15.5367 110.979 15.5367H112.282V18.4167H111.558C111.196 18.4167 110.689 18.4167 110.038 18.4167C110.038 18.4167 110.038 18.4167 110.038 22.0167C110.038 22.1607 110.038 22.1607 110.183 22.1607C110.183 22.1607 110.183 22.1607 111.196 22.1607H112.282V25.2567H111.992C111.485 25.2567 110.4 25.2567 108.301 25.2567C107.143 25.2567 106.564 24.6807 106.564 23.3847V12.2247C106.564 12.2247 106.564 12.2247 105.116 12.2247C105.044 12.2247 105.044 12.2247 105.044 9.20068Z" fill="white"/>
<path d="M112.282 9.20068C115.539 9.20068 117.421 10.9287 117.421 13.5207C117.421 15.1047 116.697 16.1127 115.973 16.8327C117.276 17.4087 118.145 18.8487 118.145 20.4327C118.145 23.4567 115.828 25.3287 112.499 25.3287C112.499 25.3287 112.499 25.3287 112.427 25.3287H112.282V22.1607H112.644C113.802 22.1607 114.526 21.4407 114.526 20.2887C114.526 19.1367 113.802 18.4167 112.644 18.4167C112.644 18.4167 112.644 18.4167 112.354 18.4167V15.5367H112.427C113.44 15.5367 114.019 14.8167 114.019 13.8087C114.019 12.8007 113.44 12.2247 112.427 12.2247C112.282 12.2247 112.282 9.20068 112.282 9.20068Z" fill="white"/>
<path d="M124.876 9.20068C124.876 9.20068 124.876 9.20068 126.324 9.20068H126.613V13.8087C126.469 14.0967 126.324 14.5287 126.324 14.9607C126.324 14.9607 126.324 14.9607 125.166 18.2727C125.166 18.2727 125.166 18.2727 126.396 18.2727H126.613V21.2967H125.817C125.383 21.2967 124.876 21.2967 124.297 21.2967C124.297 21.2967 124.297 21.2967 123.284 23.8887C122.994 24.8967 122.415 25.3287 121.257 25.3287C121.257 25.3287 121.257 25.3287 119.086 25.3287C119.086 25.3287 119.086 25.3287 119.086 22.1607C119.086 22.1607 119.086 22.1607 119.81 22.1607C120.099 22.1607 120.099 22.1607 120.244 22.0167C120.171 21.9447 120.171 21.9447 124.876 9.20068Z" fill="white"/>
<path d="M126.613 9.20068H128.351C128.351 9.20068 128.351 9.20068 132.983 21.9447C133.128 22.0887 133.128 22.0887 133.417 22.0887C133.417 22.0887 133.417 22.0887 133.996 22.0887C133.996 22.0887 133.996 22.0887 133.996 25.2567C133.996 25.2567 133.996 25.2567 131.97 25.2567C130.812 25.2567 130.233 24.8247 129.943 23.6727C129.943 23.6727 129.943 23.6727 128.93 21.2247C128.93 21.2247 128.93 21.2247 126.975 21.2247H126.613V18.2007H128.061C128.061 18.2007 128.061 18.2007 126.903 14.8887C126.903 14.4567 126.758 14.0247 126.613 13.7367C126.613 13.8087 126.613 9.20068 126.613 9.20068Z" fill="white"/>
<path d="M70.5184 29.8647C70.5184 29.8647 70.5184 29.8647 83.1851 29.8647C84.3432 29.8647 85.067 30.4407 85.067 31.7367C85.067 31.7367 85.067 31.7367 85.067 42.6087C85.067 42.7527 85.067 42.7527 85.2118 42.7527C85.2118 42.7527 85.2118 42.7527 86.3698 42.7527C86.3698 42.7527 86.3698 42.7527 86.3698 45.9207C86.3698 45.9207 86.3698 45.9207 83.3298 45.9207C82.027 45.9207 81.4479 45.3447 81.4479 44.0487C81.4479 44.0487 81.4479 44.0487 81.4479 33.0327C81.4479 33.0327 81.4479 32.8887 81.3032 32.8887C81.3032 32.8887 81.3032 32.8887 75.5127 32.8887C75.5127 32.8887 75.5127 32.8887 75.5127 45.9207C75.5127 45.9207 75.5127 45.9207 72.0384 45.9207C72.0384 45.9207 72.0384 45.9207 72.0384 32.8887C72.0384 32.8887 72.0384 32.8887 70.5908 32.8887C70.5184 32.8887 70.5184 32.8887 70.5184 29.8647Z" fill="white"/>
<path d="M95.562 29.5767L95.6344 32.8887H95.562C92.9563 32.8887 90.9296 35.0487 90.9296 37.7847C90.9296 40.6647 92.9563 42.9687 95.562 42.9687H95.6344V46.1367H95.562C90.9296 46.1367 87.2382 42.3927 87.2382 37.7127C87.3105 33.1767 90.9296 29.5767 95.562 29.5767Z" fill="white"/>
<path d="M95.634 29.5767L97.2987 29.7207C101.207 30.4407 104.03 33.6807 104.03 37.7127C104.03 41.8167 101.28 45.2007 97.2987 45.9927L95.634 46.1367V42.8247L97.5159 42.4647C99.253 41.6727 100.411 39.8727 100.411 37.7127C100.411 35.6967 99.253 33.9687 97.5159 33.2487L95.634 32.8887V29.5767Z" fill="white"/>
<path d="M104.754 29.8647C104.754 29.8647 104.754 29.8647 107.939 29.8647C109.097 29.8647 109.676 30.4407 109.676 31.7367C109.676 31.7367 109.676 31.7367 109.676 42.6087C109.676 42.7527 109.676 42.7527 109.821 42.7527C109.821 42.7527 109.821 42.7527 114.019 42.7527C114.019 42.7527 114.019 42.7527 114.019 29.8647C114.019 29.8647 114.019 29.8647 117.493 29.8647C117.493 29.8647 117.493 29.8647 117.493 42.7527C117.493 42.7527 117.493 42.7527 121.691 42.7527C121.836 42.7527 121.836 42.7527 121.836 42.6087C121.836 42.6087 121.836 42.6087 121.836 31.7367C121.836 30.4407 122.415 29.8647 123.573 29.8647C123.573 29.8647 123.573 29.8647 126.758 29.8647C126.758 29.8647 126.758 29.8647 126.758 32.8887C126.758 32.8887 126.758 32.8887 125.455 32.8887C125.31 32.8887 125.31 33.0327 125.31 33.0327C125.31 33.0327 125.31 33.0327 125.31 44.0487C125.31 45.3447 124.731 45.9207 123.573 45.9207C123.573 45.9207 123.573 45.9207 108.011 45.9207C106.708 45.9207 106.129 45.3447 106.129 44.0487C106.129 44.0487 106.129 44.0487 106.129 33.0327C106.129 33.0327 106.129 32.8887 105.985 32.8887C105.985 32.8887 105.985 32.8887 104.682 32.8887C104.754 32.8887 104.754 32.8887 104.754 29.8647Z" fill="white"/>
<path d="M129.654 29.8647C129.654 29.8647 129.654 29.8647 140.583 29.8647C141.886 29.8647 142.32 30.4407 142.32 31.5927C142.32 31.5927 142.32 31.5927 142.32 34.3287H139.135C139.135 34.3287 139.135 34.3287 139.135 33.0327C139.135 32.8887 139.135 32.8887 138.991 32.8887C138.991 32.8887 138.991 32.8887 136.964 32.8887C136.964 32.8887 136.964 32.8887 136.964 45.9207C136.964 45.9207 136.964 45.9207 133.49 45.9207C133.49 45.9207 133.49 45.9207 133.49 32.8887C133.49 32.8887 133.49 32.8887 131.463 32.8887C131.318 32.8887 131.318 32.8887 131.318 33.0327C131.318 33.0327 131.318 33.0327 131.318 34.3287C131.318 34.3287 131.318 34.3287 128.134 34.3287C128.134 34.3287 128.134 34.3287 128.134 31.5927C128.061 30.4407 128.496 29.8647 129.654 29.8647Z" fill="white"/>
<path d="M146.808 29.8647C146.808 29.8647 146.808 29.8647 148.255 29.8647H148.545V34.4727C148.4 34.7607 148.255 35.1927 148.255 35.6247C148.255 35.6247 148.255 35.6247 147.097 38.9367C147.097 38.9367 147.097 38.9367 148.328 38.9367H148.545V41.9607H147.749C147.314 41.9607 146.808 41.9607 146.229 41.9607C146.229 41.9607 146.229 41.9607 145.215 44.4087C144.926 45.5607 144.347 45.9927 143.189 45.9927C143.189 45.9927 143.189 45.9927 141.017 45.9927C141.017 45.9927 141.017 45.9928 141.017 42.8247C141.017 42.8247 141.017 42.8247 141.741 42.8247C142.03 42.8247 142.03 42.8247 142.175 42.6807C142.175 42.6087 142.175 42.6087 146.808 29.8647Z" fill="white"/>
<path d="M148.545 29.8647H150.282C150.282 29.8647 150.282 29.8647 154.914 42.6087C155.059 42.7527 155.059 42.7527 155.349 42.7527H155.928C155.928 42.7527 155.928 42.7527 155.928 45.9207C155.928 45.9207 155.928 45.9207 153.901 45.9207C152.743 45.9207 152.164 45.4887 151.874 44.3367C151.874 44.3367 151.874 44.3367 150.861 41.8887C150.861 41.8887 150.861 41.8887 148.907 41.8887H148.545V38.8647H149.993C149.993 38.8647 149.993 38.8647 148.834 35.5527C148.834 35.1207 148.69 34.6887 148.545 34.4007V29.8647Z" fill="white"/>
<path d="M48.0801 16.0406C48.2248 15.9686 48.442 16.1126 48.6591 16.4006C48.6591 16.4006 48.6591 16.4006 58.5753 25.9766C59.1543 26.5526 59.1543 27.4166 58.5753 27.8486C58.5753 27.8486 58.5753 27.8486 48.6591 37.5686C48.442 37.8566 48.2248 37.9286 48.0801 37.8566C47.9353 37.7846 47.7905 37.4966 47.7905 37.1366V16.6886C47.7905 16.3286 47.9353 16.1126 48.0801 16.0406Z" fill="white"/>
<path d="M31.1428 0.0566406H31.8666L32.518 0.344641C32.518 0.344641 32.518 0.344641 42.7237 10.3526C43.158 10.9286 43.0132 11.3606 42.2894 11.3606C42.2894 11.3606 42.2894 11.3606 38.0913 11.3606C37.3675 11.3606 36.7885 11.9366 36.7885 12.6566C36.7885 12.6566 36.7885 12.6566 36.7885 20.0726C36.7885 20.7926 36.2094 21.3686 35.3409 21.3686C35.3409 21.3686 35.3409 21.3686 27.958 21.3686C27.2342 21.3686 26.6551 20.7926 26.6551 20.0726C26.6551 20.0726 26.6551 20.0726 26.6551 12.6566C26.6551 11.9366 26.0761 11.3606 25.3523 11.3606H20.8647C20.1409 11.3606 19.9961 10.9286 20.4304 10.3526C20.4304 10.3526 20.4304 10.3526 30.6361 0.344641C30.4913 0.344641 31.1428 0.0566406 31.1428 0.0566406Z" fill="white"/>
<path d="M15.219 15.8246C15.4362 15.8966 15.5086 16.1846 15.5086 16.5446V37.4246C15.5086 37.7846 15.3638 38.0006 15.219 38.0726C15.0743 38.1446 14.7848 38.0726 14.4952 37.8566C14.4952 37.8566 14.4952 37.8566 4.43429 27.8486C3.85524 27.4166 3.85524 26.5526 4.43429 25.9766C4.43429 25.9766 4.43429 25.9766 14.4952 16.1126C14.7848 15.8246 15.0019 15.7526 15.219 15.8246Z" fill="white"/>
<path d="M27.8861 32.3125C27.8861 32.3125 27.8861 32.3125 35.2689 32.3125C36.1375 32.3125 36.7166 32.8885 36.7166 33.6085C36.7166 33.6085 36.7166 33.6085 36.7166 41.4565C36.7166 42.3205 37.2956 42.8965 38.0194 42.8965H41.928C42.6518 42.8965 42.9413 43.3285 42.3623 43.7605C42.3623 43.7605 42.3623 43.7605 32.4461 53.6245C32.2289 53.9125 31.867 54.0565 31.5051 54.0565C31.1432 54.0565 30.7813 53.9125 30.4918 53.6245C30.4918 53.6245 30.4918 53.6245 20.5756 43.7605C19.9966 43.3285 20.2861 42.8965 21.0099 42.8965C21.0099 42.8965 21.0099 42.8965 25.208 42.8965C25.9318 42.8965 26.5109 42.3205 26.5109 41.4565C26.5109 41.4565 26.5109 41.4565 26.5109 33.6085C26.5832 32.8885 27.1623 32.3125 27.8861 32.3125Z" fill="white"/>
</g>
<defs>
<filter id="filter0_d" x="0" y="0.0566406" width="160" height="62" filterUnits="userSpaceOnUse" color-interpolation-filters="sRGB">
<feFlood flood-opacity="0" result="BackgroundImageFix"/>
<feColorMatrix in="SourceAlpha" type="matrix" values="0 0 0 0 0 0 0 0 0 0 0 0 0 0 0 0 0 0 127 0" result="hardAlpha"/>
<feOffset dy="4"/>
<feGaussianBlur stdDeviation="2"/>
<feComposite in2="hardAlpha" operator="out"/>
<feColorMatrix type="matrix" values="0 0 0 0 0 0 0 0 0 0 0 0 0 0 0 0 0 0 0.25 0"/>
<feBlend mode="normal" in2="BackgroundImageFix" result="effect1_dropShadow"/>
<feBlend mode="normal" in="SourceGraphic" in2="effect1_dropShadow" result="shape"/>
</filter>
<clipPath id="clip0">
<rect width="152" height="54" fill="white" transform="translate(4 0.0566406)"/>
</clipPath>
</defs>
</svg>
