<svg width="192" height="69" viewBox="0 0 192 69" fill="none" xmlns="http://www.w3.org/2000/svg">
<g clip-path="url(#clip0)">
<path d="M84.5742 12.2075C84.5742 12.2075 84.5742 12.2075 88.5761 12.2075C90.0314 12.2075 90.759 12.9329 90.759 14.5649C90.759 14.5649 90.759 14.5649 90.759 20.3675C90.759 20.3675 90.759 20.3675 98.6718 20.3675C98.6718 20.3675 98.6718 20.3675 98.6718 14.5649C98.6718 12.9329 99.3995 12.2075 101.037 12.2075C101.037 12.2075 101.037 12.2075 104.857 12.2075C104.857 12.2075 104.857 12.2075 104.857 16.0155C104.857 16.0155 104.857 16.0155 103.219 16.0155L103.038 16.1969C103.038 16.1969 103.038 16.1969 103.038 32.4262C103.038 32.4262 103.038 32.4262 98.6718 32.4262C98.6718 32.4262 98.6718 32.4262 98.6718 24.2662C98.6718 24.2662 98.6718 24.2662 90.759 24.2662C90.759 24.2662 90.759 24.2662 90.759 32.4262C90.759 32.4262 90.759 32.4262 86.3933 32.4262C86.3933 32.4262 86.3933 32.4262 86.3933 16.1969C86.3933 16.1969 86.3933 16.0155 86.2114 16.0155C86.2114 16.0155 86.2114 16.0155 84.5742 16.0155C84.5742 16.0155 84.5742 16.0155 84.5742 12.2075Z" fill="white"/>
<path d="M116.407 11.8447H116.498V16.0154H116.407C113.133 16.0154 110.586 18.7354 110.586 22.1807C110.586 25.8074 113.133 28.7087 116.407 28.7087H116.498V32.8794H116.407C110.586 32.8794 105.766 28.1647 105.766 22.2714C105.857 16.3781 110.586 11.8447 116.407 11.8447Z" fill="white"/>
<path d="M116.5 11.8447L118.501 12.0261C123.322 12.9327 126.96 17.0127 126.96 22.0901C126.96 27.2581 123.322 31.5194 118.501 32.5167L116.5 32.6981V28.5274L118.774 28.0741C120.957 27.0767 122.503 24.8101 122.503 22.0901C122.503 19.5514 120.957 17.3754 118.774 16.4687L116.5 16.0154V11.8447Z" fill="white"/>
<path d="M127.957 12.2075C127.957 12.2075 127.957 12.2075 134.051 12.2075H136.962V16.0155H136.689C136.325 16.0155 135.597 16.0155 134.142 16.0155C134.142 16.0155 134.142 16.0155 134.142 20.1862C134.142 20.1862 134.142 20.1862 135.416 20.1862H137.053V23.8129H136.143C135.688 23.8129 135.052 23.8129 134.233 23.8129C134.233 23.8129 134.233 23.8129 134.233 28.3462C134.233 28.5275 134.233 28.5275 134.415 28.5275C134.415 28.5275 134.415 28.5275 135.688 28.5275H137.053V32.4262H136.689C136.052 32.4262 134.688 32.4262 132.05 32.4262C130.595 32.4262 129.867 31.7009 129.867 30.0689V16.0155C129.867 16.0155 129.867 16.0155 128.048 16.0155C127.957 16.0155 127.957 16.0155 127.957 12.2075Z" fill="white"/>
<path d="M137.055 12.2075C141.148 12.2075 143.512 14.3835 143.512 17.6475C143.512 19.6422 142.603 20.9115 141.693 21.8182C143.33 22.5435 144.422 24.3569 144.422 26.3515C144.422 30.1595 141.511 32.5168 137.328 32.5168C137.328 32.5168 137.328 32.5168 137.237 32.5168H137.055V28.5275H137.509C138.965 28.5275 139.874 27.6209 139.874 26.1702C139.874 24.7195 138.965 23.8129 137.509 23.8129C137.509 23.8129 137.509 23.8129 137.146 23.8129V20.1862H137.237C138.51 20.1862 139.238 19.2795 139.238 18.0102C139.238 16.7409 138.51 16.0155 137.237 16.0155C137.055 16.0155 137.055 12.2075 137.055 12.2075Z" fill="white"/>
<path d="M152.878 12.2075C152.878 12.2075 152.878 12.2075 154.697 12.2075H155.061V18.0102C154.879 18.3729 154.697 18.9169 154.697 19.4609C154.697 19.4609 154.697 19.4609 153.242 23.6315C153.242 23.6315 153.242 23.6315 154.788 23.6315H155.061V27.4395H154.06C153.514 27.4395 152.878 27.4395 152.15 27.4395C152.15 27.4395 152.15 27.4395 150.877 30.7035C150.513 31.9729 149.785 32.5168 148.33 32.5168C148.33 32.5168 148.33 32.5168 145.602 32.5168C145.602 32.5168 145.602 32.5169 145.602 28.5275C145.602 28.5275 145.602 28.5275 146.511 28.5275C146.875 28.5275 146.875 28.5275 147.057 28.3462C146.966 28.2555 146.966 28.2555 152.878 12.2075Z" fill="white"/>
<path d="M155.062 12.2075H157.245C157.245 12.2075 157.245 12.2075 163.066 28.2555C163.247 28.4369 163.247 28.4369 163.611 28.4369C163.611 28.4369 163.611 28.4369 164.339 28.4369C164.339 28.4369 164.339 28.4369 164.339 32.4262C164.339 32.4262 164.339 32.4262 161.792 32.4262C160.337 32.4262 159.609 31.8822 159.246 30.4315C159.246 30.4315 159.246 30.4315 157.972 27.3489C157.972 27.3489 157.972 27.3489 155.517 27.3489H155.062V23.5409H156.881C156.881 23.5409 156.881 23.5409 155.426 19.3702C155.426 18.8262 155.244 18.2822 155.062 17.9195C155.062 18.0102 155.062 12.2075 155.062 12.2075Z" fill="white"/>
<path d="M84.5742 38.229C84.5742 38.229 84.5742 38.229 100.491 38.229C101.946 38.229 102.856 38.9543 102.856 40.5863C102.856 40.5863 102.856 40.5863 102.856 54.277C102.856 54.4583 102.856 54.4583 103.038 54.4583C103.038 54.4583 103.038 54.4583 104.493 54.4583C104.493 54.4583 104.493 54.4583 104.493 58.4477C104.493 58.4477 104.493 58.4477 100.673 58.4477C99.0356 58.4477 98.308 57.7223 98.308 56.0903C98.308 56.0903 98.308 56.0903 98.308 42.2183C98.308 42.2183 98.308 42.037 98.1261 42.037C98.1261 42.037 98.1261 42.037 90.8499 42.037C90.8499 42.037 90.8499 42.037 90.8499 58.4477C90.8499 58.4477 90.8499 58.4477 86.4842 58.4477C86.4842 58.4477 86.4842 58.4477 86.4842 42.037C86.4842 42.037 86.4842 42.037 84.6652 42.037C84.5742 42.037 84.5742 42.037 84.5742 38.229Z" fill="white"/>
<path d="M116.042 37.8657L116.133 42.0364H116.042C112.767 42.0364 110.221 44.7564 110.221 48.2017C110.221 51.8284 112.767 54.7297 116.042 54.7297H116.133V58.7191H116.042C110.221 58.7191 105.582 54.0044 105.582 48.1111C105.673 42.3991 110.221 37.8657 116.042 37.8657Z" fill="white"/>
<path d="M116.132 37.8662L118.224 38.0475C123.136 38.9542 126.683 43.0342 126.683 48.1115C126.683 53.2795 123.226 57.5409 118.224 58.5382L116.132 58.7196V54.5489L118.497 54.0956C120.68 53.0982 122.135 50.8315 122.135 48.1115C122.135 45.5729 120.68 43.3969 118.497 42.4902L116.132 42.0369V37.8662Z" fill="white"/>
<path d="M127.595 38.229C127.595 38.229 127.595 38.229 131.597 38.229C133.052 38.229 133.78 38.9543 133.78 40.5863C133.78 40.5863 133.78 40.5863 133.78 54.277C133.78 54.4583 133.78 54.4583 133.962 54.4583C133.962 54.4583 133.962 54.4583 139.237 54.4583C139.237 54.4583 139.237 54.4583 139.237 38.229C139.237 38.229 139.237 38.229 143.602 38.229C143.602 38.229 143.602 38.229 143.602 54.4583C143.602 54.4583 143.602 54.4583 148.878 54.4583C149.06 54.4583 149.06 54.4583 149.06 54.277C149.06 54.277 149.06 54.277 149.06 40.5863C149.06 38.9543 149.787 38.229 151.242 38.229C151.242 38.229 151.242 38.229 155.244 38.229C155.244 38.229 155.244 38.229 155.244 42.037C155.244 42.037 155.244 42.037 153.607 42.037C153.425 42.037 153.425 42.2183 153.425 42.2183C153.425 42.2183 153.425 42.2183 153.425 56.0903C153.425 57.7223 152.698 58.4477 151.242 58.4477C151.242 58.4477 151.242 58.4477 131.688 58.4477C130.051 58.4477 129.323 57.7223 129.323 56.0903C129.323 56.0903 129.323 56.0903 129.323 42.2183C129.323 42.2183 129.323 42.037 129.141 42.037C129.141 42.037 129.141 42.037 127.504 42.037C127.595 42.037 127.595 42.037 127.595 38.229Z" fill="white"/>
<path d="M158.881 38.229C158.881 38.229 158.881 38.229 172.614 38.229C174.252 38.229 174.797 38.9543 174.797 40.405C174.797 40.405 174.797 40.405 174.797 43.8503H170.795C170.795 43.8503 170.795 43.8503 170.795 42.2183C170.795 42.037 170.795 42.037 170.613 42.037C170.613 42.037 170.613 42.037 168.067 42.037C168.067 42.037 168.067 42.037 168.067 58.4477C168.067 58.4477 168.067 58.4477 163.701 58.4477C163.701 58.4477 163.701 58.4477 163.701 42.037C163.701 42.037 163.701 42.037 161.154 42.037C160.972 42.037 160.972 42.037 160.972 42.2183C160.972 42.2183 160.972 42.2183 160.972 43.8503C160.972 43.8503 160.972 43.8503 156.971 43.8503C156.971 43.8503 156.971 43.8503 156.971 40.405C156.88 38.9543 157.425 38.229 158.881 38.229Z" fill="white"/>
<path d="M180.435 38.229C180.435 38.229 180.435 38.229 182.254 38.229H182.618V44.0317C182.436 44.3943 182.254 44.9383 182.254 45.4823C182.254 45.4823 182.254 45.4823 180.799 49.653C180.799 49.653 180.799 49.653 182.345 49.653H182.618V53.461H181.618C181.072 53.461 180.435 53.461 179.708 53.461C179.708 53.461 179.708 53.461 178.434 56.5437C178.071 57.9943 177.343 58.5383 175.888 58.5383C175.888 58.5383 175.888 58.5383 173.159 58.5383C173.159 58.5383 173.159 58.5383 173.159 54.549C173.159 54.549 173.159 54.549 174.069 54.549C174.433 54.549 174.433 54.549 174.614 54.3677C174.614 54.277 174.614 54.277 180.435 38.229Z" fill="white"/>
<path d="M182.621 38.229H184.804C184.804 38.229 184.804 38.229 190.625 54.277C190.807 54.4583 190.807 54.4583 191.171 54.4583H191.898C191.898 54.4583 191.898 54.4583 191.898 58.4477C191.898 58.4477 191.898 58.4477 189.352 58.4477C187.896 58.4477 187.169 57.9037 186.805 56.453C186.805 56.453 186.805 56.453 185.532 53.3703C185.532 53.3703 185.532 53.3703 183.076 53.3703H182.621V49.5623H184.44C184.44 49.5623 184.44 49.5623 182.985 45.3917C182.985 44.8477 182.803 44.3037 182.621 43.941V38.229Z" fill="white"/>
<path d="M56.3765 20.821C56.5584 20.7303 56.8313 20.9116 57.1041 21.2743C57.1041 21.2743 57.1041 21.2743 69.5646 33.333C70.2922 34.0583 70.2922 35.1463 69.5646 35.6903C69.5646 35.6903 69.5646 35.6903 57.1041 47.9303C56.8313 48.293 56.5584 48.3836 56.3765 48.293C56.1946 48.2023 56.0127 47.8396 56.0127 47.3863V21.637C56.0127 21.1836 56.1946 20.9116 56.3765 20.821Z" fill="white"/>
<path d="M35.096 0.692871H36.0056L36.8241 1.05554C36.8241 1.05554 36.8241 1.05554 49.6484 13.6582C50.1941 14.3835 50.0122 14.9275 49.1027 14.9275C49.1027 14.9275 49.1027 14.9275 43.8275 14.9275C42.9179 14.9275 42.1903 15.6529 42.1903 16.5595C42.1903 16.5595 42.1903 16.5595 42.1903 25.8982C42.1903 26.8049 41.4627 27.5302 40.3713 27.5302C40.3713 27.5302 40.3713 27.5302 31.0941 27.5302C30.1846 27.5302 29.457 26.8049 29.457 25.8982C29.457 25.8982 29.457 25.8982 29.457 16.5595C29.457 15.6529 28.7294 14.9275 27.8198 14.9275H22.1808C21.2713 14.9275 21.0894 14.3835 21.6351 13.6582C21.6351 13.6582 21.6351 13.6582 34.4594 1.05554C34.2775 1.05554 35.096 0.692871 35.096 0.692871Z" fill="white"/>
<path d="M15.0859 20.5488C15.3588 20.6395 15.4497 21.0021 15.4497 21.4555V47.7488C15.4497 48.2022 15.2678 48.4741 15.0859 48.5648C14.904 48.6555 14.5402 48.5648 14.1764 48.2928C14.1764 48.2928 14.1764 48.2928 1.534 35.6901C0.806377 35.1461 0.806377 34.0581 1.534 33.3328C1.534 33.3328 1.534 33.3328 14.1764 20.9115C14.5402 20.5488 14.813 20.4581 15.0859 20.5488Z" fill="white"/>
<path d="M31.0069 41.311C31.0069 41.311 31.0069 41.311 40.284 41.311C41.3754 41.311 42.103 42.0364 42.103 42.943C42.103 42.943 42.103 42.943 42.103 52.8257C42.103 53.9137 42.8307 54.639 43.7402 54.639H48.6516C49.5611 54.639 49.9249 55.183 49.1973 55.727C49.1973 55.727 49.1973 55.727 36.7369 68.1484C36.464 68.511 36.0092 68.6924 35.5545 68.6924C35.0997 68.6924 34.6449 68.511 34.2811 68.1484C34.2811 68.1484 34.2811 68.1484 21.8207 55.727C21.093 55.183 21.4569 54.639 22.3664 54.639C22.3664 54.639 22.3664 54.639 27.6416 54.639C28.5511 54.639 29.2788 53.9137 29.2788 52.8257C29.2788 52.8257 29.2788 52.8257 29.2788 42.943C29.3697 42.0364 30.0973 41.311 31.0069 41.311Z" fill="white"/>
</g>
<defs>
<clipPath id="clip0">
<rect width="191" height="68" fill="white" transform="translate(0.988281 0.692871)"/>
</clipPath>
</defs>
</svg>
