<svg width="123" height="29" viewBox="0 0 123 29" fill="none" xmlns="http://www.w3.org/2000/svg">
<path d="M121.373 1.33825C117.56 -2.58732 96.2836 3.01233 94.4703 6.72346C93.5143 8.68063 96.6492 13.7303 102.659 19.5995C107.901 24.7152 112.982 29.4352 116.174 28.3961C119.365 27.357 125.196 5.26371 121.373 1.33825Z" fill="white"/>
<path d="M80.7397 8.73828C78.2644 8.73828 76.047 10.3217 74.7674 12.4384V9.10115H70.1246V26.7659H74.7674V17.6751C74.7674 13.964 76.886 12.7599 79.0206 12.7599C81.3028 12.7599 82.9753 14.3297 82.9753 17.4799C82.9753 20.7786 82.9446 26.7494 82.9446 26.7494H87.5885L87.6123 16.0119C87.6101 11.512 84.7999 8.73828 80.7397 8.73828Z" fill="white"/>
<path d="M45.4246 1.89062H40.7816V26.7466H45.4246V1.89062Z" fill="white"/>
<path d="M32.9289 9.08469L26.238 16.3667V1.89062H21.5977V26.7466H26.238L26.1671 19.5636L32.8037 26.7053H38.6067L30.4862 17.8922L38.6067 9.08469H32.9289Z" fill="white"/>
<path d="M57.7925 8.68848C52.5831 8.68848 48.3594 12.8311 48.3594 17.9441C48.3594 23.0571 52.5831 27.2137 57.7925 27.2137C63.0021 27.2137 67.2234 23.0709 67.2234 17.9579C67.2234 12.8449 62.9993 8.68848 57.7925 8.68848ZM57.7925 22.983C56.8023 23.0081 55.8272 22.7347 54.9918 22.1975C54.1564 21.6604 53.4985 20.8841 53.1022 19.9678C52.7062 19.0514 52.5896 18.0365 52.7676 17.0531C52.9458 16.0695 53.4102 15.1618 54.1018 14.4462C54.7934 13.7303 55.6807 13.2389 56.6503 13.0348C57.6198 12.8307 58.6278 12.9229 59.5452 13.2999C60.4625 13.6769 61.2477 14.3215 61.8004 15.1512C62.3532 15.9809 62.6483 16.9581 62.648 17.9579C62.6603 19.2717 62.1562 20.537 61.2461 21.4762C60.3361 22.4157 59.0942 22.9526 57.7925 22.9692V22.983Z" fill="white"/>
<path d="M12.8426 18.173C12.8426 21.8841 10.7266 23.091 8.58898 23.091C6.30963 23.091 4.62944 21.5185 4.62944 18.3683C4.62944 15.0696 4.65668 9.0988 4.65668 9.0988H0.0245237L0 19.8361C0 24.3361 2.81039 27.1098 6.87064 27.1098C9.34596 27.1098 11.5626 25.5265 12.8426 23.4098V26.747H17.472V9.07129H12.8426V18.173Z" fill="white"/>
</svg>
