<svg width="154" height="37" viewBox="0 0 154 37" fill="none" xmlns="http://www.w3.org/2000/svg">
<path d="M151.808 2.57824C147.057 -2.31342 120.544 4.66431 118.285 9.28875C117.094 11.7276 121 18.02 128.489 25.3335C135.021 31.7083 141.353 37.5898 145.33 36.295C149.307 35.0002 156.572 7.46976 151.808 2.57824Z" fill="white"/>
<path d="M101.177 11.7993C98.0928 11.7993 95.3296 13.7724 93.7351 16.41V12.2515H87.9498V34.2635H93.7351V22.9354C93.7351 18.3111 96.3752 16.8107 99.0351 16.8107C101.879 16.8107 103.963 18.7668 103.963 22.6922C103.963 26.8028 103.925 34.243 103.925 34.243H109.711L109.741 20.863C109.738 15.2556 106.237 11.7993 101.177 11.7993Z" fill="white"/>
<path d="M57.1692 3.2666H51.3835V34.2396H57.1692V3.2666Z" fill="white"/>
<path d="M41.5999 12.2311L33.2624 21.3052V3.2666H27.4801V34.2396H33.2624L33.1741 25.2889L41.4439 34.1882H48.675L38.556 23.2062L48.675 12.2311H41.5999Z" fill="white"/>
<path d="M72.5828 11.7368C66.0914 11.7368 60.8281 16.899 60.8281 23.2703C60.8281 29.6416 66.0914 34.821 72.5828 34.821C79.0744 34.821 84.3346 29.6587 84.3346 23.2874C84.3346 16.9161 79.071 11.7368 72.5828 11.7368ZM72.5828 29.5492C71.3489 29.5805 70.1338 29.2398 69.0928 28.5704C68.0518 27.9012 67.232 26.9338 66.7382 25.792C66.2447 24.6501 66.0994 23.3854 66.3213 22.16C66.5433 20.9343 67.1219 19.8033 67.9837 18.9115C68.8456 18.0194 69.9512 17.4072 71.1595 17.1528C72.3676 16.8984 73.6236 17.0134 74.7668 17.4831C75.9098 17.9529 76.8883 18.7561 77.5771 19.79C78.2658 20.8239 78.6335 22.0416 78.6332 23.2874C78.6485 24.9246 78.0203 26.5012 76.8863 27.6716C75.7523 28.8424 74.2048 29.5113 72.5828 29.532V29.5492Z" fill="white"/>
<path d="M16.5696 23.5555C16.5696 28.18 13.9329 29.6839 11.2691 29.6839C8.42884 29.6839 6.33515 27.7244 6.33515 23.7989C6.33515 19.6883 6.3691 12.2481 6.3691 12.2481H0.596965L0.566406 25.6279C0.566406 31.2354 4.06843 34.6917 9.12791 34.6917C12.2124 34.6917 14.9746 32.7187 16.5696 30.0811V34.2396H22.3383V12.2139H16.5696V23.5555Z" fill="white"/>
</svg>
