<svg width="116" height="47" viewBox="0 0 116 47" fill="none" xmlns="http://www.w3.org/2000/svg">
<g clip-path="url(#clip0)">
<path d="M66.213 1.54988C63.9354 2.78024 63.0822 4.85387 63.0822 10.584C63.0822 10.584 64.2377 9.43659 65.9509 8.80067C67.2006 8.33756 68.2621 7.62562 68.8802 7.16251C70.8084 5.71097 71.104 3.83779 71.104 0.692784C71.104 0.692784 67.9665 0.609839 66.213 1.54988Z" fill="white"/>
<path d="M52.6944 2.8893C50.8333 4.57585 50.2892 7.25774 50.2892 7.25774L44.135 31.7819L39.0156 11.7091C38.5184 9.57329 37.6181 6.93979 36.2005 5.15647C34.3865 2.88239 30.7048 2.74415 30.3151 2.74415C29.9255 2.74415 26.2438 2.88239 24.4298 5.15647C23.0055 6.93979 22.1119 9.58021 21.608 11.7091L16.4885 31.7819L10.3546 7.26466C10.3546 7.26466 9.81039 4.57585 7.95609 2.89621C4.9395 0.159021 0.417969 0.746549 0.417969 0.746549L12.2022 46.5807C12.2022 46.5807 16.0922 46.8641 18.0338 45.848C20.5868 44.507 21.8028 43.4771 23.3548 37.2424C24.7321 31.6851 28.5885 15.3518 28.9446 14.1906C29.1193 13.6169 29.3477 12.2414 30.3286 12.2414C31.3296 12.2414 31.5379 13.6169 31.7126 14.1906C32.0687 15.3518 35.9251 31.6851 37.3024 37.2424C38.8476 43.4771 40.0636 44.5139 42.6167 45.848C44.5583 46.871 48.4483 46.5807 48.4483 46.5807L60.2258 0.746549C60.2258 0.746549 55.711 0.159021 52.6944 2.8893ZM71.0962 8.22544C71.0962 8.22544 70.3572 9.40049 68.6776 10.3682C67.5959 10.9903 66.5613 11.4119 65.446 11.958C63.585 12.8773 63.0811 13.9003 63.0811 15.4693V46.5807C63.0811 46.5807 66.0507 46.9677 67.999 45.9447C70.505 44.6314 71.0761 43.3665 71.103 37.6641V9.88434V8.22544H71.0962ZM100.469 23.7707L115.418 0.898615C115.418 0.898615 109.109 -0.20732 105.985 2.7165C103.99 4.58967 101.753 7.95587 101.753 7.95587L96.2502 16.1121C95.9814 16.5338 95.6321 16.9969 95.0745 16.9969C94.5168 16.9969 94.1675 16.5338 93.8987 16.1121L88.3963 7.95587C88.3963 7.95587 86.159 4.58967 84.1637 2.7165C81.0396 -0.20732 74.7309 0.898615 74.7309 0.898615L89.6795 23.7707L74.7712 46.5737C74.7712 46.5737 81.3419 47.4239 84.466 44.5001C86.4681 42.6269 88.403 39.5856 88.403 39.5856L93.9054 31.4293C94.1742 31.0077 94.5235 30.5446 95.0812 30.5446C95.6388 30.5446 95.9882 31.0077 96.2569 31.4293L101.759 39.5856C101.759 39.5856 103.808 42.6269 105.811 44.5001C108.935 47.4239 115.391 46.5737 115.391 46.5737L100.469 23.7707Z" fill="white"/>
</g>
<defs>
<clipPath id="clip0">
<rect width="115" height="46" fill="white" transform="translate(0.417969 0.692871)"/>
</clipPath>
</defs>
</svg>
