<svg width="103" height="41" viewBox="0 0 103 41" fill="none" xmlns="http://www.w3.org/2000/svg">
<g clip-path="url(#clip0)">
<path d="M58.9294 1.74375C56.8895 2.81363 56.1252 4.61678 56.1252 9.5995C56.1252 9.5995 57.1602 8.60176 58.6947 8.04879C59.8139 7.64608 60.7647 7.027 61.3183 6.62429C63.0453 5.36209 63.31 3.73324 63.31 0.998449C63.31 0.998449 60.4999 0.926323 58.9294 1.74375Z" fill="white"/>
<path d="M46.8215 2.90878C45.1546 4.37535 44.6672 6.70743 44.6672 6.70743L39.1553 28.0327L34.57 10.5782C34.1247 8.72095 33.3184 6.43094 32.0487 4.88023C30.424 2.90277 27.1265 2.78256 26.7775 2.78256C26.4285 2.78256 23.1309 2.90277 21.5062 4.88023C20.2305 6.43094 19.4302 8.72696 18.9789 10.5782L14.3936 28.0327L8.89975 6.71344C8.89975 6.71344 8.41234 4.37535 6.75153 2.91479C4.04972 0.534626 0 1.04552 0 1.04552L10.5545 40.9013C10.5545 40.9013 14.0386 41.1477 15.7776 40.2642C18.0643 39.0981 19.1534 38.2025 20.5434 32.7811C21.777 27.9486 25.231 13.7457 25.5499 12.736C25.7064 12.2371 25.911 11.041 26.7895 11.041C27.6861 11.041 27.8726 12.2371 28.0291 12.736C28.348 13.7457 31.802 27.9486 33.0356 32.7811C34.4196 38.2025 35.5087 39.1041 37.7953 40.2642C39.5344 41.1537 43.0185 40.9013 43.0185 40.9013L53.567 1.04552C53.567 1.04552 49.5233 0.534626 46.8215 2.90878ZM63.3032 7.5489C63.3032 7.5489 62.6412 8.57069 61.1369 9.41216C60.1681 9.95311 59.2414 10.3197 58.2425 10.7946C56.5757 11.594 56.1244 12.4835 56.1244 13.8479V40.9013C56.1244 40.9013 58.7841 41.2379 60.5291 40.3483C62.7736 39.2063 63.2851 38.1064 63.3092 33.1477V8.99142V7.5489H63.3032ZM89.6113 21.0666L103 1.17775C103 1.17775 97.3497 0.216068 94.5516 2.75852C92.7644 4.38737 90.7606 7.31449 90.7606 7.31449L85.8323 14.4069C85.5916 14.7735 85.2787 15.1762 84.7793 15.1762C84.2798 15.1762 83.9669 14.7735 83.7262 14.4069L78.798 7.31449C78.798 7.31449 76.7942 4.38737 75.007 2.75852C72.2089 0.216068 66.5586 1.17775 66.5586 1.17775L79.9473 21.0666L66.5947 40.8953C66.5947 40.8953 72.4797 41.6345 75.2778 39.0921C77.071 37.4632 78.804 34.8186 78.804 34.8186L83.7323 27.7262C83.973 27.3596 84.2859 26.9569 84.7853 26.9569C85.2847 26.9569 85.5976 27.3596 85.8383 27.7262L90.7666 34.8186C90.7666 34.8186 92.6019 37.4632 94.3951 39.0921C97.1932 41.6345 102.976 40.8953 102.976 40.8953L89.6113 21.0666Z" fill="white"/>
</g>
<defs>
<clipPath id="clip0">
<rect width="103" height="40" fill="white" transform="translate(0 0.998535)"/>
</clipPath>
</defs>
</svg>
