<svg width="411" height="411" viewBox="0 0 411 411" fill="none" xmlns="http://www.w3.org/2000/svg">
<path d="M205.982 410.319C92.147 410.319 0.499944 318.672 0.499964 205.802C0.499984 92.9311 92.147 0.319352 205.982 0.319372C318.853 0.319392 410.5 91.9665 410.5 205.802C410.5 319.637 318.853 410.319 205.982 410.319ZM205.982 31.19C109.512 31.1899 32.3353 109.331 32.3353 204.837C32.3352 301.308 110.476 378.484 205.982 378.484C301.488 378.484 379.629 300.343 379.629 204.837C379.629 109.331 301.488 31.19 205.982 31.19Z" fill="black"/>
<path d="M159.108 131.391L128.214 164.576L252.344 280.414L283.238 247.228L159.108 131.391Z" fill="black"/>
<path d="M252.344 130.635L128.214 246.472L159.108 279.658L283.238 163.821L252.344 130.635Z" fill="black"/>
</svg>
